<?xml version="1.0" encoding="utf-8"?>
<!-- Generator: Adobe Illustrator 23.0.3, SVG Export Plug-In . SVG Version: 6.00 Build 0)  -->
<svg version="1.1" id="Layer_1" xmlns="http://www.w3.org/2000/svg" xmlns:xlink="http://www.w3.org/1999/xlink" x="0px" y="0px"
	 viewBox="0 0 2361 194" style="enable-background:new 0 0 2361 194;" xml:space="preserve">
<style type="text/css">
	.st0{fill:#B31E3B;}
	.st1{fill:#003767;}
	.st2{fill:#FFFFFF;}
</style>
<rect class="st0" width="451.37" height="194"/>
<rect x="451.37" class="st1" width="1909.63" height="194"/>
<g>
	<g>
		<path class="st2" d="M220.13,142.38c1.17,0.02,2,0.17,2.48,0.42c0.32,0.17,0.46,0.37,0.49,0.69l0.03,0.3
			c0.02,0.25,0.06,0.92,0.7,0.92c0.33,0,0.67-0.26,0.67-0.84c0-0.11,0.01-0.4,0.02-0.77l0-0.11c0.03-0.75,0.06-1.68,0.06-2.2
			c0-0.71-0.39-0.81-0.62-0.81c-0.1,0-0.2,0.02-0.34,0.05c-0.12,0.03-0.29,0.06-0.53,0.1c-0.47,0.09-1.11,0.13-1.9,0.13h-10.49
			c-0.33,0-1.36-0.05-2.17-0.14c-0.4-0.03-0.64-0.14-0.82-0.21c-0.14-0.06-0.28-0.12-0.45-0.12c-0.45,0-0.61,0.47-0.72,0.82
			l-0.02,0.07c-0.01,0.03-0.63,2.64-0.63,3.03c0,0.5,0.32,0.73,0.62,0.73c0.33,0,0.58-0.2,0.72-0.57c0.08-0.18,0.15-0.35,0.43-0.79
			c0.3-0.45,0.73-0.65,2.46-0.68l3.66-0.05v11.35c0,2.72,0,4.87-0.13,6.01c-0.09,0.67-0.2,1.09-0.45,1.14
			c-0.22,0.05-0.52,0.1-0.73,0.1c-0.46,0-0.7,0.32-0.7,0.64c0,0.21,0.09,0.7,0.92,0.7c0.59,0,1.58-0.04,2.23-0.06l0.32-0.01
			c0.1,0,0.17-0.01,0.19-0.01c0.03,0,0.11,0,0.22,0.01l0.1,0c0.57,0.02,1.91,0.07,3.13,0.07c0.88,0,0.92-0.58,0.92-0.7
			c0-0.32-0.24-0.64-0.7-0.64c-0.2,0-0.78-0.05-1.2-0.11c-0.45-0.06-0.59-0.29-0.68-1.12c-0.14-1.15-0.14-3.3-0.14-6.02v-11.35
			L220.13,142.38z"/>
		<path class="st2" d="M239.57,145.5c-1.83-1.62-4.41-2.5-7.26-2.5c-4.03,0-6.47,1.83-7.79,3.37c-1.53,1.78-2.45,4.17-2.45,6.39
			c0,2.43,0.88,4.83,2.4,6.59c1.84,2.11,4.5,3.23,7.7,3.23c1.5,0,2.93-0.27,4.23-0.81c1.25-0.51,2.35-1.25,3.28-2.2
			c1.84-1.88,2.85-4.43,2.85-7.18C242.52,149.6,241.5,147.21,239.57,145.5z M236.72,159.32c-1.45,1.21-3.18,1.34-3.85,1.34
			c-2.05,0-3.9-0.81-5.2-2.27c-1.37-1.54-2.1-3.71-2.1-6.27c0-4.62,2.41-7.27,6.6-7.27c1.86,0,3.56,0.73,4.79,2.06
			c1.37,1.48,2.09,3.61,2.09,6.17C239.05,155.93,238.26,158.03,236.72,159.32z"/>
		<path class="st2" d="M267.04,160.93c-0.22,0-0.82,0-1.44-0.2c-0.76-0.25-0.87-1.43-0.94-2.07l-1.68-14.61
			c-0.12-0.92-0.57-1.06-0.84-1.06c-0.49,0-0.72,0.46-0.82,0.66l-6.74,13.88l-7.01-13.91c-0.2-0.4-0.54-0.63-0.93-0.63
			c-0.33,0-0.69,0.26-0.75,0.84l-1.79,15.53l-0.03,0.23c-0.11,0.89-0.2,1.2-0.53,1.26l-0.06,0.01c-0.3,0.05-0.44,0.07-0.58,0.07
			c-0.4,0-0.73,0.29-0.73,0.65c0,0.12,0.04,0.7,0.9,0.7c0.42,0,1.02-0.03,1.55-0.06c0.25-0.01,0.44-0.02,0.52-0.02
			c0.05,0,0.18,0.01,0.35,0.02l0.06,0c0.49,0.03,1.23,0.06,1.88,0.06c0.86,0,0.92-0.54,0.92-0.7c0-0.38-0.35-0.65-0.67-0.65
			c-0.04,0-0.38,0-0.85-0.13c-0.22-0.05-0.22-0.13-0.22-0.21c0-0.39,0-0.82,0.03-1.16l0.81-9.18c0.45,0.95,1.04,2.14,1.51,3.11
			l0.17,0.34c0.32,0.65,0.61,1.24,0.8,1.64c0.61,1.28,2.23,4.33,2.89,5.54c0.5,0.92,0.73,1.34,1.26,1.34c0.55,0,0.79-0.48,1.3-1.53
			l5.24-10.73l1.02,10.47c0.02,0.2,0.03,0.33,0.02,0.42c-0.19,0.12-0.3,0.33-0.3,0.56c0,0.62,0.74,0.69,1.13,0.73
			c0.94,0.09,3.68,0.14,4.24,0.14c0.72,0,0.98-0.38,0.98-0.7C267.71,161.21,267.42,160.93,267.04,160.93z"/>
		<path class="st2" d="M280.69,152.96c-0.63-0.62-1.44-1.15-2.3-1.52c1.14-1.08,2.07-2.27,2.07-3.99c0-0.35-0.09-1.57-1.19-2.63
			c-1.02-0.98-2.52-1.48-4.46-1.48c-0.67,0-1.35,0.02-1.91,0.04l-0.1,0c-0.35,0.01-0.66,0.02-0.88,0.02l-0.52-0.01
			c-0.59-0.02-1.57-0.04-2.33-0.04c-0.81,0-0.87,0.52-0.87,0.67c0,0.38,0.35,0.62,0.67,0.62c0.2,0,0.6,0.03,0.77,0.05
			c0.42,0.06,0.54,0.11,0.6,0.93c0.05,0.74,0.05,1.4,0.05,5.09v4.2c0,2.31,0,4.14-0.14,5.08l-0.02,0.11
			c-0.06,0.37-0.12,0.78-0.21,0.8c-0.09,0.01-0.2,0.03-0.3,0.05c-0.12,0.02-0.29,0.06-0.39,0.06c-0.44,0-0.67,0.31-0.67,0.62
			c0,0.16,0.06,0.67,0.87,0.67c0.34,0,0.85-0.02,1.48-0.06c0.39,0,0.75-0.02,0.91-0.02l0.1,0c0.07,0,0.39,0.01,0.84,0.03l0.72,0.03
			c0.76,0.06,1.68,0.09,2.16,0.09c2.07,0,3.79-0.62,5-1.78c1.07-1.04,1.66-2.45,1.66-3.98C282.3,155.24,281.74,153.99,280.69,152.96
			z M276.62,150.63c-0.35,0.39-0.66,0.46-2.05,0.46c-0.35,0-0.82-0.01-1.2-0.07v-5.89c0.34-0.06,0.84-0.09,1.09-0.09
			c2.21,0,2.99,1.81,2.99,3.36C277.45,149.27,277.18,150.02,276.62,150.63z M273.4,158.95l-0.01-0.09
			c-0.03-0.35-0.03-3.28-0.03-5.03v-1.01c1.1,0,1.42,0.03,1.5,0.05c0.15,0.03,0.3,0.05,0.47,0.07c0.5,0.06,1.02,0.13,1.58,0.48
			c2.03,1.29,2.13,3.5,2.13,3.93c0,2.15-1.02,3.19-3.13,3.19c-0.84,0-1.55-0.11-1.95-0.29C273.49,160.02,273.48,160.02,273.4,158.95
			z"/>
		<path class="st2" d="M313.18,158c-0.28,0-0.63,0.19-0.72,0.7c-0.08,0.43-0.26,0.85-0.48,1.12c-0.43,0.52-1.35,0.56-2.6,0.56
			c-1.67,0-2.66-0.14-2.95-0.43c-0.35-0.33-0.35-2.92-0.35-5v-4.25c0-3.69,0-4.36,0.03-5.09c0.05-0.78,0.15-0.83,0.5-0.9
			c0.29-0.03,0.63-0.05,0.76-0.05c0.32,0,0.67-0.26,0.67-0.64c0-0.11-0.04-0.67-0.87-0.67c-0.55,0-1.68,0.03-2.29,0.05
			c-0.22,0.01-0.39,0.01-0.42,0.01l-0.51-0.01c-0.57-0.02-1.53-0.04-2.29-0.04c-0.78,0-0.87,0.47-0.87,0.67
			c0,0.35,0.33,0.67,0.67,0.67c0.2,0,0.6,0.03,0.77,0.05c0.44,0.06,0.55,0.11,0.6,0.88c0.06,0.74,0.06,1.4,0.06,5.08v4.2
			c0,2.31,0,4.14-0.13,5.07l-0.01,0.07c-0.1,0.63-0.15,0.77-0.28,0.8c-0.19,0.05-0.47,0.1-0.64,0.1c-0.2,0-0.36,0.08-0.47,0.19
			c-0.14-0.12-0.33-0.19-0.56-0.19c-0.21,0-0.52-0.02-0.84-0.12c-0.38-0.12-0.95-0.3-1.8-2.33c-0.77-1.85-2.19-5.34-3.44-8.43
			l-0.32-0.79c-1.08-2.67-1.94-4.78-2.15-5.24c-0.04-0.08-0.07-0.16-0.11-0.23l-0.03-0.06c-0.18-0.39-0.37-0.84-0.89-0.84
			c-0.55,0-0.75,0.51-1.03,1.23L284.4,159c-0.53,1.35-0.93,1.79-1.69,1.89c-0.17,0.02-0.52,0.05-0.66,0.05c-0.39,0-0.7,0.3-0.7,0.67
			c0,0.2,0.09,0.67,0.95,0.67c0.66,0,1.42-0.04,1.93-0.06l0.14-0.01c0.2-0.01,0.35-0.02,0.42-0.02c0.11,0,0.4,0.01,0.73,0.03
			c0.54,0.03,1.13,0.05,1.49,0.05c0.82,0,0.84-0.6,0.84-0.67c0-0.34-0.23-0.67-0.73-0.67h-0.22c-0.17,0-0.36-0.03-0.36-0.17
			c0-0.35,0.12-0.88,0.33-1.43l1.35-3.69l5.38,0l2.15,5.31c0,0.01,0.01,0.02,0.01,0.02L295.7,161c-0.26,0.12-0.39,0.31-0.39,0.58
			c0,0.57,0.61,0.61,1.14,0.63l0.19,0.01c1.11,0.04,2.49,0.06,3.91,0.06c0.41,0,0.65-0.09,0.81-0.21c0.13,0.12,0.33,0.21,0.67,0.21
			c0.41,0,0.97-0.03,1.45-0.06c0.8-0.05,1.67-0.02,2.92,0.01l0.72,0.02c1.19,0.06,2.55,0.08,4.3,0.08c1.29,0,1.75-0.05,2.03-0.99
			c0.21-0.75,0.38-2.23,0.38-2.51C313.83,158.06,313.33,158,313.18,158z M292.84,153.72h-3.91l1.9-5.39L292.84,153.72z"/>
		<path class="st2" d="M325.65,158c-0.28,0-0.63,0.19-0.72,0.7c-0.08,0.43-0.26,0.85-0.48,1.12c-0.43,0.52-1.35,0.56-2.6,0.56
			c-1.67,0-2.66-0.14-2.95-0.43c-0.35-0.33-0.35-2.92-0.35-5v-4.25c0-3.69,0-4.36,0.03-5.09c0.05-0.78,0.15-0.83,0.5-0.9
			c0.3-0.03,0.63-0.05,0.76-0.05c0.32,0,0.67-0.26,0.67-0.64c0-0.11-0.04-0.67-0.87-0.67c-0.55,0-1.68,0.03-2.29,0.05l-0.42,0.01
			l-0.46-0.01c-0.58-0.02-1.56-0.04-2.34-0.04c-0.78,0-0.87,0.47-0.87,0.67c0,0.35,0.33,0.67,0.67,0.67c0.2,0,0.6,0.03,0.77,0.05
			c0.44,0.06,0.55,0.11,0.6,0.88c0.05,0.74,0.05,1.4,0.05,5.09v4.2c0,2.31,0,4.14-0.14,5.08l-0.01,0.07
			c-0.1,0.63-0.15,0.77-0.28,0.8c-0.24,0.06-0.49,0.1-0.64,0.1c-0.42,0-0.67,0.34-0.67,0.67c0,0.16,0.06,0.67,0.87,0.67
			c0.42,0,0.97-0.03,1.46-0.06c0.8-0.05,1.67-0.02,2.93,0.01l0.72,0.02c1.19,0.06,2.55,0.08,4.3,0.08c1.28,0,1.74-0.05,2.03-0.99
			c0.21-0.75,0.38-2.23,0.38-2.51C326.29,158.06,325.8,158,325.65,158z"/>
		<path class="st2" d="M290.95,76.88c0.17,0,0.59-0.07,0.8-0.66c0.08-0.19,0.15-0.37,0.45-0.83c0.31-0.48,0.77-0.69,2.61-0.73
			l3.89-0.05v12.27c0,2.83,0,5.27-0.15,6.51c-0.11,0.81-0.23,1.16-0.45,1.2c-0.29,0.06-0.59,0.11-0.78,0.11
			c-0.49,0-0.78,0.37-0.79,0.73c0,0.24,0.11,0.79,1.03,0.79c0.66,0,1.8-0.05,2.48-0.07c0.24-0.01,0.42-0.02,0.46-0.02
			c0.03,0,0.15,0,0.33,0.01c0.67,0.03,2.08,0.08,3.36,0.08c0.96,0,1.03-0.65,1.03-0.79c0-0.41-0.35-0.73-0.79-0.73
			c-0.24,0-0.88-0.06-1.27-0.11c-0.44-0.06-0.6-0.23-0.7-1.19c-0.15-1.25-0.15-3.69-0.15-6.52l0-12.27l3.22,0.05
			c3.01,0.07,3.11,0.8,3.16,1.17l0.03,0.31c0.04,0.86,0.45,1.04,0.8,1.04c0,0,0,0,0,0c0.37-0.01,0.74-0.3,0.74-0.94
			c0-0.13,0.01-0.52,0.03-1.01c0.03-0.79,0.06-1.76,0.06-2.36c0-0.7-0.41-0.84-0.65-0.87l-0.02,0l-0.02,0
			c-0.12,0-0.24,0.03-0.43,0.06c-0.41,0.08-1.18,0.24-2.53,0.24h-11.25c-0.33,0-1.45-0.06-2.33-0.15c-0.42-0.03-0.64-0.13-0.84-0.22
			c-0.15-0.07-0.31-0.14-0.5-0.15l-0.04,0l-0.04,0.01c-0.37,0.05-0.51,0.35-0.57,0.47l-0.04,0.08c-0.04,0.1-0.08,0.21-0.11,0.3
			l-0.04,0.13c-0.01,0.03-0.67,2.85-0.68,3.29C290.25,76.61,290.6,76.87,290.95,76.88z"/>
		<path class="st2" d="M309.17,94.65c-0.21,0.03-0.61,0.06-0.8,0.06c-0.47,0-0.82,0.31-0.82,0.73c0,0.36,0.19,0.79,1.12,0.79
			c0.99,0,2.07-0.04,2.72-0.07c0.32-0.01,0.56-0.02,0.66-0.02c0.12,0,0.38,0.01,0.68,0.03l0.06,0c0.58,0.03,1.18,0.06,1.6,0.06
			c0.95,0,0.99-0.66,0.99-0.79c0-0.34-0.22-0.73-0.84-0.73h-0.3c-0.15,0-0.59-0.08-0.59-0.33c0-0.53,0.23-1.32,0.4-1.86l0.18-0.54
			c0.37-1.11,1.21-3.64,1.6-4.82c1.77-0.04,2.77,0.19,5.27,1.01c0.42,0.14,0.83,0.25,1.22,0.32c0.38,0.99,1.07,2.77,2.23,5.88
			l0.07,0.19c0.03,0.07,0.04,0.12,0.04,0.15c-0.29,0.13-0.47,0.37-0.47,0.69c0,0.69,0.71,0.73,1.29,0.75l0.15,0.01
			c1.32,0.04,3,0.06,4.72,0.06c1.04,0,1.15-0.55,1.15-0.79c0-0.12-0.04-0.73-0.85-0.73c-0.38,0-0.73-0.05-1.05-0.16
			c-0.53-0.15-1.25-0.63-2.22-3.04c-0.34-0.87-0.79-2.01-1.29-3.31c1.53-0.71,2.05-1.97,2.07-2.02l0.54-1.31l-1.28,0.61
			c-0.01,0-0.69,0.31-1.9,0.31c-0.12,0-0.25,0-0.37-0.01c-1-2.61-2.08-5.47-2.97-7.81l-0.57-1.51c-0.64-1.69-1.1-2.9-1.22-3.22
			c-0.32-0.84-0.55-1.45-1.17-1.45c-0.62,0-0.83,0.58-1.17,1.54l-6.81,18.83C310.63,93.87,310.09,94.52,309.17,94.65z M318.75,78.26
			c1.09,2.97,1.91,5.31,2.34,6.65c-0.55-0.09-1.11-0.13-1.67-0.13c-1.13,0-2.13,0.18-2.92,0.4L318.75,78.26z"/>
		<path class="st2" d="M363.96,104.07l-0.11-0.05l-0.15,0.01c-0.14,0.01-0.28,0.01-0.43,0.01c-3.93,0-7.7-3.48-11.53-10.64
			c-1.5-2.8-3.13-5-4.9-6.58c-0.19-0.14-1.08-0.83-1.59-1.25c0.63-0.33,1.8-1.21,2.27-1.81c0.89-1.17,1.34-2.69,1.34-4.53
			c0-0.34-0.02-0.71-0.05-1.08c-0.22-2.41-1.54-3.97-2.29-4.52c-1.75-1.27-3.92-1.44-5.81-1.44c-0.59,0-1.72,0.04-2.55,0.06
			c-0.48,0.02-0.87,0.03-0.99,0.03c-0.04,0-0.17-0.01-0.38-0.01c-0.65-0.02-1.99-0.08-3.01-0.08c-0.95,0-1.03,0.6-1.03,0.8
			c0.01,0.41,0.35,0.72,0.79,0.72c0.27,0,0.73,0.03,0.9,0.08c0.68,0.16,0.8,0.33,0.87,1.23c0.06,0.95,0.06,1.8,0.06,6.51v5.34
			c0,2.83,0,5.28-0.14,6.51c-0.11,0.81-0.24,1.16-0.45,1.2c-0.29,0.07-0.59,0.11-0.78,0.11c-0.49,0-0.79,0.37-0.79,0.73
			c0,0.18,0.08,0.79,1.03,0.79c0.52,0,1.44-0.03,2.73-0.08l0.09,0c0.03,0,0.15,0,0.33,0.01c0.67,0.03,2.08,0.08,3.36,0.08
			c0.96,0,1.03-0.65,1.03-0.79c0-0.36-0.3-0.72-0.79-0.72c-0.22,0-0.85-0.05-1.27-0.12c-0.44-0.06-0.6-0.23-0.7-1.19
			c-0.15-1.24-0.15-3.69-0.15-6.52V74.39c0.31-0.06,0.96-0.12,1.7-0.12c2.94,0.01,4.64,2.02,4.64,5.52c0,1.16-0.19,2.15-0.57,2.93
			l-0.03,0.06c-0.05,0.09-0.2,0.35-0.53,0.68c-0.42,0.41-1.19,0.98-2.48,1.37l0,0c-0.1,0.03-0.23,0.08-0.4,0.16L341.14,85
			c-0.17,0.09-0.49,0.25-0.54,0.64l0,0.06c0,0.1,0.02,0.2,0.07,0.29l0.03,0.05c0.18,0.27,0.46,0.37,0.76,0.49
			c0.17,0.06,0.34,0.13,0.51,0.23c0.53,0.32,1.29,1.03,1.45,1.24c0.96,1.18,1.88,2.76,2.94,4.6c1.93,3.33,4.33,7.48,8.09,10.86
			c1.72,1.54,4.24,2.29,7.73,2.3h0h0c1.4-0.01,1.7-0.19,1.83-0.27c0.17-0.11,0.41-0.28,0.41-0.68v-0.07
			C364.42,104.39,364.17,104.16,363.96,104.07z"/>
		<path class="st2" d="M336.58,115.45c-0.05,0.02-0.72,0.31-1.89,0.31c-0.88,0-1.83-0.16-2.81-0.48c-0.93-0.3-1.89-0.47-2.88-0.51
			l0-7.3c0.97,0.01,3.29,0.04,3.68,0.08c1.45,0.16,1.58,0.45,1.68,0.69c0.1,0.25,0.14,0.66,0.14,0.88c0,0.7,0.42,0.94,0.79,0.94
			c0.18,0,0.62-0.08,0.75-0.79c0.04-0.25,0.08-0.78,0.12-1.45l0.01-0.17c0.01-0.18,0.02-0.33,0.03-0.41
			c0.05-0.47,0.12-0.77,0.17-1.01c0.04-0.18,0.07-0.33,0.07-0.48c0-0.61-0.36-0.82-0.66-0.82c-0.22,0-0.38,0.08-0.49,0.14
			c-0.02,0.01-0.04,0.02-0.07,0.03c-0.18,0.05-0.61,0.11-1.17,0.13c-0.53,0.02-4.56,0.03-6.85,0.03c-0.04,0-0.18-0.01-0.38-0.01
			l-0.13,0c-0.67-0.02-1.92-0.07-2.88-0.07c-0.93,0-1.03,0.55-1.03,0.79c0,0.41,0.35,0.73,0.79,0.73c0.29,0,0.72,0.03,0.91,0.08
			c0.66,0.14,0.81,0.35,0.86,1.23c0.06,0.95,0.06,1.8,0.06,6.51v0.69c-1.32,0.4-2.21,0.93-2.31,1l-1.03,0.79l1.29,0.05
			c0.06,0,1.49,0.06,2,0.06c0.01,0,0.03,0,0.04,0v2.74c0,2.95,0,5.27-0.15,6.51c-0.13,0.95-0.26,1.17-0.45,1.2
			c-0.29,0.07-0.59,0.11-0.78,0.11c-0.51,0-0.79,0.38-0.79,0.73c0,0.24,0.1,0.79,1.03,0.79c0.62,0,1.66-0.04,2.35-0.07l0.13-0.01
			c0.24-0.01,0.41-0.02,0.46-0.02c0.25,0,0.59,0.02,1.05,0.04l0.11,0.01c1.17,0.05,3.12,0.14,6.25,0.14c1.18,0,1.83,0,2.15-1.21
			c0.15-0.65,0.41-2.76,0.41-3.07c0-0.83-0.4-1-0.73-1c-0.65,0-0.77,0.66-0.81,0.91c-0.2,1.2-0.53,1.56-1.02,1.77
			c-0.67,0.29-1.97,0.29-2.67,0.29c-2.77,0-2.86-0.28-2.93-1.96c-0.02-0.46-0.01-2.57,0-3.83l0-3.46c0.34,0.1,0.74,0.23,1.25,0.4
			c0.98,0.32,1.91,0.49,2.76,0.49c3.27,0,4.3-2.47,4.31-2.49l0.52-1.3l-1.08,0.52L336.58,115.45z"/>
		<path class="st2" d="M282.39,105.27l-0.13,0c-0.67-0.02-1.92-0.07-2.88-0.07c-0.93,0-1.03,0.55-1.03,0.79
			c0,0.41,0.35,0.73,0.79,0.73c0.29,0,0.72,0.03,0.91,0.08c0.66,0.14,0.81,0.35,0.86,1.23c0.06,0.95,0.06,1.8,0.06,6.51v0.69
			c-1.32,0.4-2.21,0.93-2.31,1l-1.03,0.79l1.29,0.05c0.06,0,1.49,0.06,2,0.06c0.01,0,0.03,0,0.04,0v2.74c0,2.95,0,5.27-0.15,6.51
			c-0.13,0.95-0.26,1.17-0.45,1.2c-0.29,0.07-0.59,0.11-0.78,0.11c-0.51,0-0.79,0.38-0.79,0.73c0,0.24,0.1,0.79,1.03,0.79
			c0.62,0,1.66-0.04,2.35-0.07l0.13-0.01c0.24-0.01,0.41-0.02,0.46-0.02c0.25,0,0.58,0.02,1.05,0.04l0.11,0.01
			c1.17,0.05,3.12,0.14,6.25,0.14c1.18,0,1.83,0,2.15-1.21c0.15-0.65,0.41-2.76,0.41-3.07c0-0.83-0.4-1-0.73-1
			c-0.65,0-0.77,0.66-0.81,0.91c-0.2,1.2-0.53,1.56-1.02,1.77c-0.67,0.29-1.97,0.29-2.67,0.29c-2.77,0-2.86-0.28-2.93-1.96
			c-0.02-0.47-0.01-2.65,0-3.83l0-3.46c0.34,0.1,0.74,0.23,1.25,0.4c0.98,0.32,1.91,0.49,2.76,0.49c3.27,0,4.3-2.47,4.31-2.49
			l0.52-1.3l-1.08,0.52l-0.19,0.09c-0.05,0.02-0.72,0.31-1.89,0.31c-0.88,0-1.83-0.16-2.81-0.48c-0.93-0.3-1.89-0.47-2.88-0.51
			l0-7.3c0.97,0.01,3.29,0.04,3.68,0.08c1.45,0.16,1.58,0.45,1.68,0.69c0.1,0.25,0.14,0.66,0.14,0.88c0,0.7,0.42,0.94,0.79,0.94
			c0.18,0,0.62-0.08,0.75-0.79c0.04-0.25,0.08-0.83,0.12-1.45l0.01-0.15c0.01-0.2,0.02-0.36,0.03-0.44c0.05-0.46,0.12-0.76,0.17-1
			c0.04-0.2,0.07-0.33,0.07-0.48c0-0.61-0.36-0.82-0.66-0.82c-0.22,0-0.38,0.08-0.49,0.14c-0.02,0.01-0.04,0.02-0.07,0.03
			c-0.18,0.05-0.61,0.11-1.17,0.13c-0.53,0.02-4.56,0.03-6.85,0.03C282.73,105.28,282.59,105.28,282.39,105.27z"/>
		<path class="st2" d="M190.31,94.98c0.3-1.08,0.54-3.26,0.54-3.68c0-0.22-0.01-0.42-0.06-0.57c-0.09-0.3-0.37-0.51-0.7-0.51
			c0,0,0,0,0,0c-0.23,0-0.77,0.1-0.85,0.93c-0.1,0.63-0.43,1.41-0.8,1.86c-0.64,0.8-1.99,0.86-3.68,0.86h-0.16
			c-2.62,0-3.39-0.25-3.79-0.65c-0.62-0.6-0.61-5.23-0.61-7.72v-6.3c0-5.51,0-6.5,0.07-7.62c0.08-1.25,0.31-1.41,0.91-1.51
			c0.42-0.07,0.88-0.1,1.07-0.1c0.46,0,0.82-0.32,0.82-0.76c0-0.25-0.11-0.83-1.1-0.83c-0.76,0-2.26,0.06-3.16,0.09
			c-0.34,0.01-0.58,0.02-0.63,0.02c-0.04,0-0.2-0.01-0.43-0.02c-0.75-0.03-2.32-0.09-3.52-0.09c-1,0-1.11,0.58-1.11,0.84
			c0.01,0.43,0.36,0.75,0.83,0.75c0.32,0,0.86,0.04,1.07,0.09c0.85,0.19,1.01,0.42,1.08,1.52c0.07,1.12,0.07,2.11,0.07,7.62v6.23
			c0,3.31,0,6.16-0.17,7.61c-0.14,1.03-0.3,1.43-0.59,1.49c-0.34,0.08-0.7,0.13-0.93,0.13c-0.54,0-0.82,0.39-0.82,0.76
			c0,0.25,0.11,0.83,1.11,0.83c0.69,0,1.79-0.04,2.59-0.08c0.41-0.02,0.73-0.03,0.84-0.03c0.78,0,1.59,0.03,2.61,0.07
			c1.64,0.06,3.68,0.14,6.77,0.14l0.25,0C189.52,96.34,190,96.08,190.31,94.98z"/>
		<path class="st2" d="M204.76,96.65c7.25,0,12.51-5.45,12.51-12.95c0-7.13-4.96-11.92-12.33-11.92c-9.01,0-12.37,7.61-12.37,12.4
			C192.58,90.19,196.39,96.65,204.76,96.65z M204.73,73.9c4.13,0,8.57,3.33,8.57,10.64c0,9.38-6.44,9.86-7.73,9.86
			c-5.33,0-9.05-4.55-9.05-11.07C196.52,77.52,199.67,73.9,204.73,73.9z"/>
		<path class="st2" d="M220.98,96.22c0.95,0,1.86-0.05,2.41-0.07c0.23-0.01,0.4-0.02,0.47-0.02c0.07,0,0.21,0.01,0.41,0.02
			c0.53,0.03,1.53,0.08,2.77,0.08c0.92,0,1.07-0.49,1.08-0.79c0-0.41-0.34-0.73-0.79-0.73c-0.08,0-0.77,0-1.35-0.16
			c-0.37-0.11-0.71-0.42-0.77-3l-0.35-13.02c1.53,1.73,4.15,4.66,6.84,7.58c3.07,3.34,7.48,7.9,7.85,8.23l0.13,0.13
			c1.67,1.68,1.93,1.94,2.39,1.96l0.08,0c0.31,0,0.68-0.21,0.74-0.79c0.05-0.31,0.06-0.83,0.06-1.9L243,75.97
			c0.01-1.94,0.16-2.05,0.7-2.17c0.29-0.08,0.45-0.08,0.59-0.08c0.5,0,0.87-0.32,0.87-0.79c-0.05-0.72-0.83-0.73-1.09-0.73
			c-0.82,0-1.55,0.04-2.03,0.07c-0.24,0.01-0.41,0.02-0.52,0.02c-0.1,0-0.32-0.01-0.62-0.02c-0.63-0.03-1.58-0.07-2.51-0.07
			c0,0,0,0,0,0c-0.35,0-1.07,0.01-1.14,0.71l0,0.03l0,0.03c0,0.08,0,0.31,0.18,0.51c0.14,0.16,0.35,0.25,0.61,0.25
			c0.19,0,0.85,0.02,1.33,0.13c0.49,0.13,0.72,0.28,0.76,2.36l0.3,13.96c-0.45-0.5-1-1.11-1.63-1.8c-1.34-1.49-3.01-3.34-4.59-5.05
			c-4.6-4.99-9.09-9.88-9.56-10.42c-0.08-0.08-0.17-0.18-0.27-0.29c-0.34-0.39-0.7-0.8-1.17-0.84c-0.31,0-0.68,0.2-0.78,0.74
			c-0.06,0.28-0.09,0.66-0.09,1.32l-0.03,17.38c0,2.33-0.13,3.22-0.52,3.33c-0.33,0.11-0.77,0.15-1.06,0.15h0
			c-0.45,0-0.78,0.32-0.78,0.73C219.96,95.73,220.1,96.22,220.98,96.22z"/>
		<path class="st2" d="M212.98,127.56c0.35-1.23,0.79-4.34,0.79-4.69c-0.01-0.89-0.48-1.05-0.8-1.08c-0.72,0-0.85,0.74-0.89,0.99
			c-0.1,0.62-0.54,2.04-1.15,2.69c-1.28,1.33-3.21,1.6-5.7,1.6c-7.57-0.01-12.1-6.32-12.1-12.41c0-2.95,0.36-6.3,2.99-8.85
			c1.06-1.04,3.01-2.43,7.68-2.43c3.07,0,5.6,0.98,6.64,1.89c0.77,0.65,1.28,1.93,1.28,3.19c0,0.26,0.01,0.51,0.07,0.7
			c0.09,0.35,0.39,0.59,0.78,0.59c0,0,0,0,0,0c0.75-0.04,0.81-0.86,0.84-1.26c0.01-0.23,0.02-0.71,0.03-1.27
			c0.01-0.76,0.03-1.71,0.07-2.38c0.04-0.76,0.1-1.21,0.13-1.51c0.03-0.22,0.04-0.37,0.04-0.48c0.02-0.24-0.06-0.47-0.21-0.64
			c-0.12-0.14-0.35-0.3-0.75-0.32c-1.07-0.07-2.16-0.27-3.43-0.51l-0.08-0.02c-2.11-0.39-4.32-0.43-5.18-0.43
			c-4.82,0-8.44,1.29-11.07,3.95c-3.01,3.04-4.08,7.19-4.08,10.05c0,4.56,1.49,8.23,4.42,10.88c2.98,2.71,6.76,3.97,11.92,3.97h0.01
			c2.12,0,4.95-0.23,6.52-0.86C212.52,128.6,212.74,128.36,212.98,127.56z M205.23,129.33L205.23,129.33L205.23,129.33
			L205.23,129.33z"/>
		<path class="st2" d="M227.69,129.71c7.25,0,12.52-5.45,12.52-12.95c0-7.13-4.96-11.92-12.34-11.92c-9.01,0-12.37,7.61-12.37,12.4
			C215.5,123.25,219.31,129.71,227.69,129.71z M227.66,106.97c4.13,0,8.57,3.33,8.57,10.64c0,9.38-6.44,9.85-7.73,9.85
			c-5.33,0-9.05-4.55-9.05-11.06C219.45,110.58,222.59,106.97,227.66,106.97z"/>
		<path class="st2" d="M242.88,106.07c0.01,0.41,0.35,0.72,0.79,0.72c0.27,0,0.72,0.03,0.89,0.08c0.69,0.16,0.8,0.32,0.87,1.23
			c0.06,0.95,0.06,1.8,0.06,6.51v5.34c0,2.83,0,5.26-0.15,6.51c-0.11,0.81-0.23,1.17-0.44,1.21c-0.3,0.07-0.6,0.11-0.78,0.11
			c-0.44,0-0.79,0.32-0.79,0.73c0,0.24,0.1,0.79,1.03,0.79c0.6,0,1.54-0.04,2.23-0.07c0.35-0.01,0.62-0.03,0.71-0.03
			c0.66,0,1.35,0.03,2.23,0.06c1.4,0.05,3.15,0.12,5.79,0.12c0,0,0.01,0,0.01,0c0.08,0,0.16,0,0.24,0c1.36,0,1.9-0.18,2.19-1.22
			c0.24-0.91,0.47-2.77,0.47-3.18c0-0.19-0.01-0.37-0.06-0.51c-0.08-0.29-0.35-0.49-0.67-0.49c0,0,0,0,0,0
			c-0.36,0-0.76,0.24-0.81,0.86c-0.07,0.45-0.32,1.14-0.67,1.56c-0.53,0.65-1.64,0.7-3.05,0.7h-0.18c-2.22,0-2.87-0.2-3.2-0.54
			c-0.51-0.49-0.5-4.74-0.49-6.55l0-5.4c0-4.72,0-5.57,0.06-6.51c0.07-1.03,0.23-1.14,0.72-1.23c0.31-0.05,0.71-0.09,0.9-0.09
			c0.44,0,0.78-0.31,0.79-0.73c0-0.18-0.08-0.79-1.03-0.79c-0.65,0-1.94,0.05-2.71,0.07c-0.29,0.01-0.49,0.02-0.53,0.02
			c-0.04,0-0.17-0.01-0.37-0.01c-0.65-0.03-1.99-0.08-3.02-0.08C242.95,105.27,242.88,105.87,242.88,106.07z"/>
		<path class="st2" d="M260.64,106.07c0.01,0.41,0.35,0.72,0.79,0.72c0.27,0,0.72,0.03,0.9,0.08c0.68,0.15,0.81,0.33,0.87,1.23
			c0.06,0.95,0.06,1.8,0.06,6.51v5.34c0,2.83,0,5.28-0.15,6.51c-0.08,0.57-0.19,1.16-0.44,1.21c-0.32,0.07-0.6,0.11-0.79,0.11
			c-0.44,0-0.79,0.32-0.79,0.73c0,0.24,0.1,0.79,1.03,0.79c0.59,0,1.54-0.04,2.23-0.07c0.35-0.01,0.62-0.03,0.71-0.03
			c0.66,0,1.36,0.03,2.23,0.06c1.4,0.05,3.15,0.12,5.79,0.12c0,0,0.01,0,0.01,0c0.08,0,0.16,0,0.24,0c1.37,0,1.9-0.18,2.19-1.22
			c0.26-0.93,0.47-2.78,0.47-3.18c0-0.2-0.01-0.37-0.05-0.5c-0.08-0.29-0.35-0.5-0.67-0.5c0,0,0,0,0,0c-0.17,0-0.72,0.07-0.81,0.86
			c-0.08,0.51-0.36,1.18-0.66,1.56c-0.53,0.65-1.64,0.7-3.04,0.7h-0.18c-2.23,0-2.87-0.2-3.2-0.54c-0.5-0.49-0.5-4.74-0.49-6.55
			l0-5.4c0-4.72,0-5.56,0.06-6.51c0.07-1.02,0.23-1.14,0.71-1.23c0.35-0.06,0.74-0.09,0.9-0.09c0.44,0,0.78-0.31,0.79-0.73
			c0-0.18-0.08-0.79-1.03-0.79c-0.65,0-1.94,0.05-2.7,0.07c-0.29,0.01-0.49,0.02-0.54,0.02c-0.04,0-0.17-0.01-0.37-0.01
			c-0.65-0.02-1.99-0.08-3.02-0.08C260.72,105.27,260.64,105.87,260.64,106.07z"/>
		<path class="st2" d="M317.25,119.64c0.07-1.06,0.26-1.14,0.66-1.22c0.36-0.06,0.5-0.08,0.66-0.08c0.44,0,0.77-0.31,0.78-0.73
			c0-0.19-0.08-0.79-1.02-0.79c-0.65,0-1.79,0.05-2.48,0.07c-0.25,0.01-0.42,0.02-0.46,0.02c-0.04,0-0.18-0.01-0.38-0.01
			c-0.64-0.03-1.99-0.08-3.01-0.08c-0.95,0-1.02,0.6-1.03,0.8c0.01,0.41,0.35,0.72,0.8,0.72c0.27,0,0.72,0.03,0.86,0.07
			c0.88,0.26,0.94,0.27,0.95,2.6v5.15c0,0.35-0.11,0.47-0.33,0.59c-0.63,0.37-2.05,0.56-3.15,0.56c0,0,0,0,0,0
			c-2.88,0-5.39-1.04-7.47-3.09c-1.04-1.02-3.02-4.01-3.02-8.01c0-3.17,1.03-5.89,2.77-7.28c2.17-1.74,4.28-1.88,6.09-1.88
			c3.54,0,5.89,1.15,6.57,2.2c0.35,0.56,0.51,1.29,0.55,1.75l0.01,0.06c0.03,0.25,0.1,0.85,0.72,0.9l0.05,0
			c0.32,0,0.6-0.19,0.71-0.48c0.08-0.2,0.09-0.41,0.09-0.7c0-2.18,0.11-3.21,0.17-3.77c0.03-0.24,0.04-0.4,0.04-0.52
			c0.02-0.39-0.27-0.81-0.88-0.84c-0.77-0.03-1.77-0.15-2.34-0.29c-0.1-0.02-2.52-0.53-4.7-0.53c-2.37,0-5.46,0.23-8.27,2
			c-3.3,2.09-5.26,5.99-5.26,10.44c0,4.25,2.02,7.53,3.75,9.05c2.54,2.24,5.98,3.38,10.23,3.38h0c1.91,0,4.65-0.38,6.63-1.44
			c0.65-0.37,0.67-0.8,0.67-2.11v-3.39C317.19,121.51,317.19,120.6,317.25,119.64z"/>
		<path class="st2" d="M249.46,83.21l-1.28,0.8l1.51,0.06c0.06,0,1.49,0.06,2,0.06c0.02,0,0.03,0,0.04,0v2.74
			c0,2.94,0,5.27-0.15,6.51c-0.1,0.73-0.2,1.16-0.45,1.21c-0.29,0.07-0.59,0.11-0.78,0.11c-0.51,0-0.79,0.38-0.79,0.73
			c0,0.24,0.1,0.79,1.03,0.79c0.68,0,1.88-0.05,2.46-0.07l0.24-0.01c0.12-0.01,0.21-0.01,0.24-0.01c0.26,0,0.63,0.02,1.17,0.04
			c1.17,0.05,3.12,0.14,6.24,0.14c1.18,0,1.83,0,2.15-1.21c0.15-0.66,0.41-2.76,0.41-3.07c0-0.83-0.4-1-0.73-1
			c-0.65,0-0.76,0.66-0.81,0.91c-0.2,1.2-0.53,1.56-1.02,1.77C260.27,94,258.97,94,258.28,94c-2.77,0-2.86-0.28-2.93-1.96
			c-0.02-0.46-0.01-2.57,0-3.83l0-3.46c0.34,0.1,0.75,0.23,1.25,0.4c0.98,0.32,1.91,0.49,2.76,0.49c3.27,0,4.3-2.46,4.31-2.49
			l0.52-1.3l-1.27,0.6c-0.05,0.02-0.72,0.31-1.88,0.31c-0.89,0-1.83-0.16-2.81-0.48c-0.93-0.3-1.89-0.47-2.88-0.51l0-7.3
			c0.96,0.01,3.3,0.04,3.68,0.09c1.45,0.16,1.58,0.45,1.68,0.69c0.1,0.25,0.14,0.67,0.14,0.88c0,0.7,0.42,0.94,0.79,0.94
			c0.18,0,0.61-0.08,0.75-0.8c0.04-0.26,0.08-0.86,0.11-1.4l0.01-0.23c0.01-0.18,0.02-0.33,0.03-0.41c0.05-0.49,0.12-0.8,0.17-1.01
			c0.04-0.2,0.07-0.33,0.07-0.47c0-0.61-0.36-0.82-0.67-0.82c-0.22,0-0.38,0.08-0.49,0.14c-0.02,0.01-0.04,0.02-0.07,0.03
			c-0.18,0.05-0.61,0.1-1.17,0.13c-0.58,0.02-5.26,0.03-6.85,0.03c-0.03,0-0.1,0-0.21-0.01l-0.17-0.01
			c-0.59-0.02-1.97-0.08-3.01-0.08c-0.93,0-1.03,0.55-1.03,0.79c0,0.41,0.35,0.73,0.79,0.73c0.28,0,0.72,0.03,0.91,0.08
			c0.66,0.14,0.81,0.35,0.86,1.23c0.06,0.95,0.06,1.8,0.06,6.51v0.69C250.41,82.63,249.56,83.15,249.46,83.21z"/>
		<path class="st2" d="M274.95,95.51l0.34,0.17c0.03,0.01,0.05,0.03,0.08,0.04l0.03,0.01c0.04,0.02,0.09,0.04,0.13,0.06l0.25,0.12
			l0-0.01c1.29,0.55,2.77,0.82,4.52,0.82c2.2,0,4.14-0.55,5.61-1.59c2.36-1.7,3.2-4.38,3.21-6.32c0-3.33-1.39-5.62-5.32-8.75
			l-0.97-0.77c-3.31-2.75-4.07-3.78-4.07-5.53c0-2.16,1.48-3.56,3.76-3.56c2.73,0,3.64,1.11,3.9,1.59c0.15,0.28,0.36,1.16,0.39,1.56
			c0.06,0.63,0.34,0.95,0.82,0.96l0.03,0l0.03,0c0.73-0.07,0.74-0.87,0.75-1.36c0-1.88,0.08-2.99,0.12-3.46
			c0.01-0.15,0.02-0.24,0.02-0.28c0.01-0.36-0.18-0.55-0.29-0.63c-0.19-0.15-0.41-0.17-0.61-0.17c-0.22,0-0.44-0.02-1.1-0.16
			c-1.02-0.25-2.1-0.37-3.38-0.37c-2.3,0-4.26,0.66-5.66,1.9c-1.4,1.25-2.14,2.98-2.14,5.02c0,2.96,1.38,5.31,4.75,8.1l1.57,1.31
			c3.01,2.51,3.83,3.79,3.83,5.95c0,2-1.4,4.16-4.46,4.16c-1.21,0-4.07-0.32-4.65-3.18c-0.09-0.44-0.09-0.89-0.09-1.2
			c0-0.15,0-0.36-0.11-0.56c-0.13-0.23-0.38-0.37-0.7-0.37c0,0,0,0,0,0c-0.72,0.03-0.79,0.81-0.81,1.08
			c-0.01,0.1-0.02,0.23-0.03,0.39c-0.06,0.72-0.15,1.93-0.15,3.39c-0.01,0.79,0.03,1.25,0.43,1.59L274.95,95.51z"/>
	</g>
	<g>
		<polygon class="st2" points="88.69,76.33 102.16,34.81 118.35,69.97 103.07,8.46 81.58,65.98 19.31,65.98 74.16,101.64 
			48.4,76.33 		"/>
		<path class="st2" d="M191.58,58.68c0,0-48.47-6.05-95.45,30.21c0,0-41.29,34.26-47.04,91.64c0,0,23.58-65.75,66.45-91.33
			C158.42,63.61,170.39,64.17,191.58,58.68z"/>
		<polygon class="st2" points="72.5,160.8 102.49,121.22 137.38,143.69 121.67,106.68 160.98,78.96 135.41,109.92 152.6,162.26 
			103.22,134.9 		"/>
	</g>
</g>
<g>
	<path class="st2" d="M815.09,138.69c-1.53-0.76-1.63-1.2-1.63-4.14c0-5.45,0.44-9.81,0.54-11.55c0.11-1.2,0.33-1.74,0.87-1.74
		c0.65,0,0.76,0.33,0.76,1.2c0,0.98,0,2.51,0.33,4.03c1.63,8.07,8.83,11.12,16.13,11.12c10.46,0,15.59-7.52,15.59-14.5
		c0-7.52-3.16-11.88-12.53-19.62l-4.9-4.03c-11.55-9.48-14.17-16.24-14.17-23.65c0-11.66,8.72-19.62,22.56-19.62
		c4.25,0,7.41,0.44,10.14,1.09c2.07,0.44,2.94,0.54,3.81,0.54s1.09,0.22,1.09,0.76s-0.44,4.14-0.44,11.55
		c0,1.74-0.22,2.51-0.76,2.51c-0.65,0-0.76-0.54-0.87-1.42c-0.11-1.31-0.76-4.25-1.42-5.45c-0.65-1.2-3.6-5.78-13.62-5.78
		c-7.52,0-13.41,4.69-13.41,12.64c0,6.21,2.83,10.14,13.3,18.31l3.05,2.4c12.86,10.14,15.91,16.89,15.91,25.61
		c0,4.47-1.74,12.75-9.26,18.09c-4.69,3.27-10.57,4.58-16.46,4.58C824.57,141.63,819.56,140.87,815.09,138.69z"/>
	<path class="st2" d="M902.61,113.19c0,8.94,0,16.24,0.44,20.05c0.33,2.72,0.76,4.47,3.71,4.9c1.31,0.22,3.49,0.44,4.36,0.44
		c0.65,0,0.76,0.44,0.76,0.76c0,0.44-0.44,0.76-1.53,0.76c-5.23,0-11.33-0.33-11.88-0.33c-0.44,0-7.08,0.33-9.92,0.33
		c-1.09,0-1.53-0.22-1.53-0.76c0-0.33,0.22-0.65,0.76-0.65c0.87,0,1.96-0.22,2.83-0.44c1.96-0.44,2.51-2.29,2.83-5.01
		c0.44-3.81,0.44-11.12,0.44-20.05V74.28l-13.84,0.22c-5.99,0.11-8.28,0.76-9.7,2.94c-1.09,1.63-1.2,2.29-1.53,2.94
		c-0.22,0.76-0.54,0.87-0.98,0.87c-0.22,0-0.65-0.22-0.65-0.76c0-0.98,1.96-9.26,2.07-10.03c0.22-0.54,0.65-1.74,0.98-1.74
		c0.65,0,1.63,0.76,4.25,1.09c2.72,0.33,6.43,0.44,7.52,0.44h36.19c3.16,0,5.34-0.22,6.87-0.44c1.42-0.22,2.29-0.44,2.72-0.44
		s0.44,0.54,0.44,1.09c0,2.83-0.33,9.48-0.33,10.57c0,0.76-0.44,1.2-0.87,1.2c-0.44,0-0.65-0.33-0.76-1.64l-0.11-0.98
		c-0.33-2.83-2.4-4.9-11.55-5.12l-11.99-0.22V113.19z"/>
	<path class="st2" d="M943.27,96.84c0-14.39,0-17-0.22-19.95s-0.76-4.69-3.92-5.12c-0.76-0.11-2.4-0.22-3.27-0.22
		c-0.33,0-0.76-0.44-0.76-0.76c0-0.55,0.44-0.76,1.53-0.76c4.36,0,10.14,0.22,11.01,0.22s6.87-0.22,9.7-0.22
		c1.09,0,1.63,0.22,1.63,0.76c0,0.33-0.44,0.76-0.87,0.76c-0.65,0-1.2,0-2.4,0.22c-2.51,0.44-3.05,2.07-3.27,5.12
		c-0.22,2.94-0.22,5.56-0.22,19.95v12.97c0,13.41,2.94,18.96,7.08,22.67c4.69,4.25,8.83,5.01,14.28,5.01
		c5.89,0,11.55-2.62,14.82-6.54c4.47-5.34,5.45-12.97,5.45-22.45V96.84c0-14.39-0.11-17-0.22-19.95c-0.11-2.94-0.65-4.69-3.82-5.12
		c-0.76-0.11-2.4-0.22-3.27-0.22c-0.44,0-0.76-0.44-0.76-0.76c0-0.55,0.44-0.76,1.53-0.76c4.25,0,9.81,0.22,10.35,0.22
		c0.65,0,5.23-0.22,8.07-0.22c1.09,0,1.53,0.22,1.53,0.76c0,0.33-0.33,0.76-0.76,0.76c-0.65,0-1.2,0-2.4,0.22
		c-2.62,0.55-3.16,2.07-3.38,5.12c-0.22,2.94-0.11,5.56-0.11,19.95v9.92c0,10.03-1.31,21.25-8.94,27.79
		c-6.98,6-14.39,6.76-20.05,6.76c-3.16,0-13.19-0.22-19.95-6.54c-4.69-4.36-8.39-10.79-8.39-24.31V96.84z"/>
	<path class="st2" d="M1027.96,96.84c0-14.39,0-17-0.22-19.95c-0.22-3.16-0.76-4.69-3.92-5.12c-0.76-0.11-2.4-0.22-3.27-0.22
		c-0.33,0-0.76-0.44-0.76-0.76c0-0.55,0.44-0.76,1.53-0.76c4.36,0,10.57,0.22,11.12,0.22c1.09,0,7.19-0.22,12.86-0.22
		c9.59,0,27.14-0.87,38.47,10.57c4.8,4.8,9.37,12.53,9.37,23.54c0,11.66-5.01,20.6-10.35,26.05c-4.14,4.25-12.75,10.68-29.1,10.68
		c-4.14,0-9.26-0.33-13.41-0.54c-4.14-0.33-7.41-0.54-7.85-0.54c-0.22,0-1.96,0.11-3.92,0.11c-1.96,0.11-4.25,0.22-5.78,0.22
		c-0.98,0-1.53-0.22-1.53-0.76c0-0.33,0.22-0.76,0.76-0.76c0.87,0,2.07-0.22,2.94-0.44c1.85-0.44,2.07-2.18,2.51-4.9
		c0.54-3.81,0.54-11.12,0.54-20.05V96.84z M1036.68,106.87c0,9.81,0,18.42,0.11,20.16c0.11,2.29,0.33,5.67,1.09,6.65
		c1.2,1.74,4.58,3.71,15.91,3.71c8.83,0,16.68-2.94,22.45-8.39c5.01-4.69,7.52-13.52,7.52-22.02c0-11.77-5.12-19.29-9.05-23.22
		c-9.05-9.16-19.62-10.35-31.06-10.35c-1.85,0-4.9,0.33-5.78,0.65s-1.2,0.76-1.2,1.85V106.87z"/>
	<path class="st2" d="M1115.16,96.84c0-14.39,0-17-0.22-19.95c-0.22-3.16-0.76-4.69-3.92-5.12c-0.76-0.11-2.4-0.22-3.27-0.22
		c-0.33,0-0.76-0.44-0.76-0.76c0-0.55,0.44-0.76,1.53-0.76c4.36,0,10.57,0.22,11.12,0.22c0.65,0,20.71,0.11,22.89,0
		c1.85-0.11,3.6-0.44,4.36-0.54c0.44-0.11,0.87-0.44,1.31-0.44c0.33,0,0.44,0.44,0.44,0.87c0,0.65-0.54,1.74-0.76,4.36
		c-0.11,0.87-0.33,5.01-0.54,6.1c-0.11,0.44-0.44,0.98-0.87,0.98c-0.54,0-0.76-0.44-0.76-1.2c0-0.65-0.11-2.18-0.54-3.27
		c-0.65-1.53-1.63-2.18-6.87-2.83c-1.63-0.22-12.75-0.33-13.84-0.33c-0.44,0-0.54,0.33-0.54,0.98v25.18c0,0.65,0,0.98,0.54,0.98
		c1.2,0,13.84,0,16.02-0.22c2.29-0.22,3.71-0.33,4.69-1.31c0.65-0.65,1.09-1.2,1.42-1.2s0.54,0.22,0.54,0.76s-0.54,2.07-0.76,5.12
		c-0.22,1.85-0.44,5.34-0.44,5.99c0,0.76-0.22,1.74-0.87,1.74c-0.44,0-0.65-0.33-0.65-0.87c0-0.87,0-1.85-0.44-3.05
		c-0.33-1.31-1.2-2.4-4.9-2.83c-2.62-0.33-12.86-0.44-14.5-0.44c-0.54,0-0.65,0.33-0.65,0.65v7.74c0,3.16-0.11,13.95,0,15.8
		c0.22,6.21,1.96,7.41,11.44,7.41c2.51,0,7.08,0,9.59-0.98c2.51-1.09,3.81-2.72,4.36-6.43c0.22-1.09,0.44-1.42,0.98-1.42
		s0.65,0.76,0.65,1.42c0,0.65-0.76,6.98-1.31,8.94c-0.65,2.4-1.63,2.4-5.34,2.4c-7.19,0-12.75-0.22-16.68-0.33
		c-4.03-0.22-6.54-0.22-7.96-0.22c-0.22,0-2.07,0-4.14,0.11c-1.85,0.11-4.03,0.22-5.56,0.22c-0.98,0-1.53-0.22-1.53-0.76
		c0-0.33,0.22-0.76,0.76-0.76c0.87,0,2.07-0.33,2.94-0.44c1.85-0.33,2.07-2.18,2.51-4.9c0.54-3.81,0.54-11.12,0.54-20.05V96.84z"/>
	<path class="st2" d="M1179.26,127.46c0.22,7.63,1.09,9.92,3.71,10.57c1.74,0.44,3.92,0.54,4.8,0.54c0.44,0,0.76,0.33,0.76,0.76
		c0,0.54-0.65,0.76-1.74,0.76c-5.45,0-9.26-0.33-10.14-0.33c-0.87,0-4.91,0.33-9.26,0.33c-0.98,0-1.53-0.11-1.53-0.76
		c0-0.44,0.33-0.76,0.76-0.76c0.76,0,2.51-0.11,3.92-0.54c2.4-0.65,2.72-3.16,2.72-11.55V73.4c0-3.71,0.54-4.69,1.31-4.69
		c1.09,0,2.72,1.85,3.71,2.83c1.53,1.53,15.48,16.35,30.3,31.61c9.48,9.81,19.73,20.82,22.67,23.87l-0.98-46.43
		c-0.11-5.99-0.65-8.07-3.6-8.61c-1.74-0.33-3.92-0.44-4.69-0.44c-0.65,0-0.76-0.54-0.76-0.87c0-0.54,0.76-0.65,1.85-0.65
		c4.36,0,8.94,0.22,10.03,0.22s4.25-0.22,8.17-0.22c0.98,0,1.74,0.11,1.74,0.65c0,0.33-0.44,0.87-1.09,0.87c-0.44,0-1.2,0-2.29,0.22
		c-3.16,0.65-3.38,2.51-3.38,8.07l-0.22,54.28c0,6.1-0.11,6.65-0.76,6.65c-0.98,0-1.96-0.76-7.3-5.67
		c-0.98-0.87-14.82-14.5-24.96-25.07c-11.12-11.66-21.91-23-24.85-26.27L1179.26,127.46z"/>
	<path class="st2" d="M1286.95,113.19c0,8.94,0,16.24,0.44,20.05c0.33,2.72,0.76,4.47,3.71,4.9c1.31,0.22,3.49,0.44,4.36,0.44
		c0.65,0,0.76,0.44,0.76,0.76c0,0.44-0.44,0.76-1.53,0.76c-5.23,0-11.33-0.33-11.88-0.33c-0.44,0-7.08,0.33-9.92,0.33
		c-1.09,0-1.53-0.22-1.53-0.76c0-0.33,0.22-0.65,0.76-0.65c0.87,0,1.96-0.22,2.83-0.44c1.96-0.44,2.51-2.29,2.83-5.01
		c0.44-3.81,0.44-11.12,0.44-20.05V74.28l-13.84,0.22c-5.99,0.11-8.28,0.76-9.7,2.94c-1.09,1.63-1.2,2.29-1.53,2.94
		c-0.22,0.76-0.54,0.87-0.98,0.87c-0.22,0-0.65-0.22-0.65-0.76c0-0.98,1.96-9.26,2.07-10.03c0.22-0.54,0.65-1.74,0.98-1.74
		c0.65,0,1.63,0.76,4.25,1.09c2.72,0.33,6.43,0.44,7.52,0.44h36.19c3.16,0,5.34-0.22,6.87-0.44c1.42-0.22,2.29-0.44,2.72-0.44
		s0.44,0.54,0.44,1.09c0,2.83-0.33,9.48-0.33,10.57c0,0.76-0.44,1.2-0.87,1.2c-0.44,0-0.65-0.33-0.76-1.64l-0.11-0.98
		c-0.33-2.83-2.4-4.9-11.55-5.12l-11.99-0.22V113.19z"/>
	<path class="st2" d="M1379.6,108.72c0,16.02,0.44,23,2.4,24.96c1.74,1.74,4.58,2.51,13.08,2.51c5.78,0,10.57-0.11,13.19-3.27
		c1.42-1.74,2.51-4.47,2.83-6.54c0.11-0.87,0.33-1.42,0.98-1.42c0.54,0,0.65,0.44,0.65,1.64c0,1.2-0.76,7.74-1.63,10.9
		c-0.76,2.51-1.09,2.94-6.87,2.94c-7.85,0-13.51-0.22-18.09-0.33c-4.58-0.22-7.96-0.33-11.12-0.33c-0.44,0-2.29,0.11-4.47,0.11
		c-2.18,0.11-4.58,0.22-6.21,0.22c-1.2,0-1.74-0.22-1.74-0.87c0-0.33,0.22-0.65,0.87-0.65c0.98,0,2.29-0.22,3.27-0.44
		c2.18-0.44,2.72-2.83,3.16-5.99c0.54-4.58,0.54-13.19,0.54-23.65V89.32c0-17,0-20.06-0.22-23.54c-0.22-3.71-1.09-5.45-4.69-6.21
		c-0.87-0.22-2.72-0.33-3.71-0.33c-0.44,0-0.87-0.22-0.87-0.65c0-0.65,0.55-0.87,1.74-0.87c4.91,0,11.77,0.33,12.32,0.33
		s8.5-0.33,11.77-0.33c1.2,0,1.74,0.22,1.74,0.87c0,0.44-0.44,0.65-0.87,0.65c-0.76,0-2.29,0.11-3.6,0.33
		c-3.16,0.54-4.03,2.4-4.25,6.21c-0.22,3.49-0.22,6.54-0.22,23.54V108.72z"/>
	<path class="st2" d="M1441.18,113.19c0,8.94,0,16.24,0.44,20.05c0.33,2.72,0.65,4.47,3.49,4.9c1.42,0.22,3.49,0.44,4.36,0.44
		c0.54,0,0.76,0.44,0.76,0.76c0,0.44-0.44,0.76-1.53,0.76c-5.34,0-11.55-0.33-11.99-0.33c-0.54,0-6.54,0.33-9.48,0.33
		c-0.98,0-1.53-0.22-1.53-0.76c0-0.33,0.22-0.76,0.76-0.76c0.87,0,2.07-0.22,2.94-0.44c1.85-0.44,2.18-2.18,2.51-4.9
		c0.44-3.81,0.54-11.12,0.54-20.05V96.84c0-14.39,0-17-0.22-19.95c-0.22-3.16-0.98-4.58-3.05-5.01c-1.09-0.22-2.29-0.33-2.94-0.33
		c-0.44,0-0.76-0.44-0.76-0.76c0-0.55,0.44-0.76,1.53-0.76c3.16,0,9.16,0.22,9.7,0.22c0.44,0,6.65-0.22,9.59-0.22
		c1.09,0,1.53,0.22,1.53,0.76c0,0.33-0.44,0.76-0.76,0.76c-0.65,0-1.31,0-2.4,0.22c-2.62,0.55-3.16,1.85-3.38,5.12
		c-0.11,2.94-0.11,5.56-0.11,19.95V113.19z"/>
	<path class="st2" d="M1472.68,96.84c0-14.39,0-17-0.22-19.95c-0.22-3.16-0.76-4.69-3.92-5.12c-0.76-0.11-2.4-0.22-3.27-0.22
		c-0.33,0-0.76-0.44-0.76-0.76c0-0.55,0.44-0.76,1.53-0.76c4.36,0,10.35,0.22,10.9,0.22c1.85,0,22.67,0.11,24.85,0
		c1.85-0.11,3.49-0.11,4.36-0.44c0.54-0.11,0.98-0.55,1.31-0.55c0.44,0,0.65,0.44,0.65,0.87c0,0.65-0.44,1.74-0.76,4.36
		c-0.11,0.87-0.22,5.01-0.44,6.1c-0.11,0.44-0.44,0.98-0.87,0.98c-0.44,0-0.76-0.44-0.76-1.09c0-0.76-0.33-2.29-0.87-3.49
		s-2.83-2.72-6.54-2.72l-15.7-0.22c-0.54,0-0.76,0.22-0.76,0.98v25.29c0,0.54,0,0.87,0.65,0.87l13.08-0.11c1.63,0,3.05,0,4.36-0.11
		c2.29-0.22,3.6-0.54,4.47-1.63c0.44-0.54,0.87-0.98,1.2-0.98c0.44,0,0.54,0.33,0.54,0.76c0,0.54-0.65,2.07-0.87,5.12
		c-0.22,1.85-0.33,5.56-0.33,6.21c0,0.87-0.22,1.85-0.87,1.85c-0.55,0-0.65-0.44-0.65-0.87c-0.11-0.98-0.22-2.29-0.65-3.38
		c-0.44-1.31-1.96-2.51-4.9-2.94c-2.4-0.33-13.73-0.22-15.37-0.22c-0.54,0-0.65,0.22-0.65,0.87v7.41c0,9.16,0,16.46,0.44,20.05
		c0.33,2.72,0.87,4.47,3.49,4.9c1.42,0.22,3.49,0.44,4.36,0.44c0.54,0,0.76,0.44,0.76,0.76c0,0.44-0.44,0.76-1.53,0.76
		c-5.34,0-11.55-0.33-11.99-0.33c-0.54,0-6.54,0.33-9.48,0.33c-0.98,0-1.53-0.22-1.53-0.76c0-0.33,0.22-0.76,0.76-0.76
		c0.87,0,2.07-0.33,2.94-0.44c1.85-0.33,2.07-2.18,2.51-4.9c0.54-3.81,0.54-11.12,0.54-20.05V96.84z"/>
	<path class="st2" d="M1530.99,96.84c0-14.39,0-17-0.22-19.95c-0.22-3.16-0.76-4.69-3.92-5.12c-0.76-0.11-2.4-0.22-3.27-0.22
		c-0.33,0-0.76-0.44-0.76-0.76c0-0.55,0.44-0.76,1.53-0.76c4.36,0,10.57,0.22,11.12,0.22c0.65,0,20.71,0.11,22.89,0
		c1.85-0.11,3.6-0.44,4.36-0.54c0.44-0.11,0.87-0.44,1.31-0.44c0.33,0,0.44,0.44,0.44,0.87c0,0.65-0.55,1.74-0.76,4.36
		c-0.11,0.87-0.33,5.01-0.54,6.1c-0.11,0.44-0.44,0.98-0.87,0.98c-0.54,0-0.76-0.44-0.76-1.2c0-0.65-0.11-2.18-0.54-3.27
		c-0.65-1.53-1.63-2.18-6.87-2.83c-1.63-0.22-12.75-0.33-13.84-0.33c-0.44,0-0.54,0.33-0.54,0.98v25.18c0,0.65,0,0.98,0.54,0.98
		c1.2,0,13.84,0,16.02-0.22c2.29-0.22,3.71-0.33,4.69-1.31c0.65-0.65,1.09-1.2,1.42-1.2s0.54,0.22,0.54,0.76s-0.54,2.07-0.76,5.12
		c-0.22,1.85-0.44,5.34-0.44,5.99c0,0.76-0.22,1.74-0.87,1.74c-0.44,0-0.65-0.33-0.65-0.87c0-0.87,0-1.85-0.44-3.05
		c-0.33-1.31-1.2-2.4-4.9-2.83c-2.62-0.33-12.86-0.44-14.5-0.44c-0.54,0-0.65,0.33-0.65,0.65v7.74c0,3.16-0.11,13.95,0,15.8
		c0.22,6.21,1.96,7.41,11.44,7.41c2.51,0,7.08,0,9.59-0.98c2.51-1.09,3.81-2.72,4.36-6.43c0.22-1.09,0.44-1.42,0.98-1.42
		s0.65,0.76,0.65,1.42c0,0.65-0.76,6.98-1.31,8.94c-0.65,2.4-1.63,2.4-5.34,2.4c-7.19,0-12.75-0.22-16.68-0.33
		c-4.03-0.22-6.54-0.22-7.96-0.22c-0.22,0-2.07,0-4.14,0.11c-1.85,0.11-4.03,0.22-5.56,0.22c-0.98,0-1.53-0.22-1.53-0.76
		c0-0.33,0.22-0.76,0.76-0.76c0.87,0,2.07-0.33,2.94-0.44c1.85-0.33,2.07-2.18,2.51-4.9c0.54-3.81,0.54-11.12,0.54-20.05V96.84z"/>
</g>
</svg>
