<?xml version="1.0" encoding="utf-8"?>
<!-- Generator: Adobe Illustrator 23.0.3, SVG Export Plug-In . SVG Version: 6.00 Build 0)  -->
<svg version="1.1" id="Layer_1" xmlns="http://www.w3.org/2000/svg" xmlns:xlink="http://www.w3.org/1999/xlink" x="0px" y="0px"
	 viewBox="0 0 2361 194" style="enable-background:new 0 0 2361 194;" xml:space="preserve">
<style type="text/css">
	.st0{fill:#B31E3B;}
	.st1{fill:#003767;}
	.st2{fill:#FFFFFF;stroke:#FFFFFF;stroke-width:1.6538;stroke-miterlimit:10;}
	.st3{fill:#FFFFFF;}
	.st4{fill:none;stroke:#FFFFFF;stroke-width:0.8456;}
	.st5{clip-path:url(#SVGID_2_);fill:none;stroke:#FFFFFF;stroke-width:0.8456;}
	.st6{clip-path:url(#SVGID_4_);fill:none;stroke:#FFFFFF;stroke-width:0.8456;}
</style>
<rect class="st0" width="451.37" height="194"/>
<rect x="451.37" class="st1" width="1909.63" height="194"/>
<g>
	<path class="st2" d="M555.26,59.14c23.16,0,40.46,14.6,40.46,38.58c0,23.04-16.27,42.09-41.08,42.09
		c-28.18,0-39.91-21.93-39.91-40.44C514.72,82.7,526.86,59.14,555.26,59.14z M557.43,135.92c9.26,0,28.41-5.35,28.41-35.32
		c0-24.68-15.04-37.96-31.28-37.96c-17.18,0-30.06,11.32-30.06,33.84C524.49,120.46,538.9,135.92,557.43,135.92z"/>
	<path class="st2" d="M614.86,97.52c0-13.6,0-16.05-0.21-18.82c-0.19-3-0.71-4.43-3.7-4.83c-0.72-0.12-2.26-0.22-3.09-0.22
		c-0.31,0-0.73-0.41-0.73-0.73c0-0.52,0.42-0.71,1.46-0.71c4.1,0,9.76,0.2,10.27,0.2c1.76,0,21.41,0.12,23.47,0
		c1.74-0.08,3.29-0.08,4.11-0.39c0.52-0.12,0.93-0.53,1.25-0.53c0.4,0,0.6,0.41,0.6,0.84c0,0.6-0.41,1.64-0.72,4.11
		c-0.11,0.83-0.21,4.73-0.41,5.76c-0.11,0.41-0.42,0.93-0.82,0.93c-0.42,0-0.73-0.41-0.73-1.03c0-0.73-0.3-2.17-0.81-3.29
		c-0.51-1.13-2.7-2.58-6.19-2.58L623.81,76c-0.52,0-0.73,0.21-0.73,0.93v23.87c0,0.52,0,0.83,0.64,0.83l12.34-0.1
		c1.54,0,2.89,0,4.1-0.12c2.17-0.21,3.41-0.52,4.24-1.54c0.41-0.51,0.81-0.93,1.13-0.93c0.4,0,0.5,0.32,0.5,0.73
		c0,0.5-0.6,1.96-0.81,4.83c-0.22,1.76-0.31,5.26-0.31,5.87c0,0.83-0.19,1.75-0.83,1.75c-0.5,0-0.61-0.4-0.61-0.84
		c-0.1-0.91-0.21-2.16-0.62-3.17c-0.41-1.23-1.84-2.38-4.63-2.81c-2.27-0.29-12.96-0.19-14.5-0.19c-0.53,0-0.64,0.19-0.64,0.83v6.99
		c0,8.65,0,15.54,0.42,18.94c0.31,2.58,0.82,4.22,3.3,4.62c1.34,0.22,3.29,0.42,4.12,0.42c0.5,0,0.71,0.42,0.71,0.73
		c0,0.4-0.41,0.72-1.44,0.72c-5.03,0-10.92-0.31-11.32-0.31c-0.51,0-6.17,0.31-8.94,0.31c-0.94,0-1.45-0.21-1.45-0.72
		c0-0.31,0.22-0.73,0.73-0.73c0.81,0,1.95-0.32,2.76-0.42c1.75-0.28,1.96-2.04,2.38-4.62c0.5-3.6,0.5-10.5,0.5-18.94V97.52z"/>
	<path class="st2" d="M669.93,97.52c0-13.6,0-16.05-0.21-18.82c-0.2-3-0.72-4.43-3.7-4.83c-0.71-0.12-2.27-0.22-3.08-0.22
		c-0.3,0-0.73-0.41-0.73-0.73c0-0.52,0.43-0.71,1.45-0.71c4.1,0,9.78,0.2,10.28,0.2c1.76,0,21.42,0.12,23.47,0
		c1.75-0.08,3.29-0.08,4.12-0.39c0.52-0.12,0.93-0.53,1.23-0.53c0.42,0,0.62,0.41,0.62,0.84c0,0.6-0.42,1.64-0.72,4.11
		c-0.11,0.83-0.21,4.73-0.41,5.76c-0.11,0.41-0.41,0.93-0.83,0.93c-0.4,0-0.73-0.41-0.73-1.03c0-0.73-0.3-2.17-0.81-3.29
		c-0.51-1.13-2.68-2.58-6.18-2.58L678.88,76c-0.52,0-0.73,0.21-0.73,0.93v23.87c0,0.52,0,0.83,0.61,0.83l12.36-0.1
		c1.55,0,2.87,0,4.11-0.12c2.16-0.21,3.39-0.52,4.24-1.54c0.4-0.51,0.81-0.93,1.12-0.93c0.42,0,0.51,0.32,0.51,0.73
		c0,0.5-0.61,1.96-0.82,4.83c-0.21,1.76-0.31,5.26-0.31,5.87c0,0.83-0.19,1.75-0.82,1.75c-0.52,0-0.61-0.4-0.61-0.84
		c-0.1-0.91-0.19-2.16-0.62-3.17c-0.4-1.23-1.84-2.38-4.62-2.81c-2.26-0.29-12.96-0.19-14.52-0.19c-0.5,0-0.61,0.19-0.61,0.83v6.99
		c0,8.65,0,15.54,0.42,18.94c0.3,2.58,0.81,4.22,3.29,4.62c1.33,0.22,3.29,0.42,4.1,0.42c0.52,0,0.73,0.42,0.73,0.73
		c0,0.4-0.42,0.72-1.44,0.72c-5.03,0-10.9-0.31-11.33-0.31c-0.5,0-6.18,0.31-8.94,0.31c-0.94,0-1.45-0.21-1.45-0.72
		c0-0.31,0.2-0.73,0.71-0.73c0.83,0,1.96-0.32,2.78-0.42c1.76-0.28,1.96-2.04,2.37-4.62c0.52-3.6,0.52-10.5,0.52-18.94V97.52z"/>
	<path class="st2" d="M733.22,112.95c0,8.44,0,15.33,0.41,18.94c0.31,2.58,0.62,4.22,3.3,4.62c1.33,0.22,3.28,0.42,4.11,0.42
		c0.51,0,0.71,0.42,0.71,0.73c0,0.4-0.41,0.72-1.45,0.72c-5.03,0-10.9-0.31-11.31-0.31c-0.5,0-6.17,0.31-8.95,0.31
		c-0.92,0-1.45-0.21-1.45-0.72c0-0.31,0.22-0.73,0.73-0.73c0.81,0,1.95-0.2,2.77-0.42c1.75-0.4,2.06-2.04,2.37-4.62
		c0.42-3.6,0.52-10.5,0.52-18.94V97.52c0-13.6,0-16.05-0.23-18.82c-0.19-3-0.91-4.33-2.86-4.74c-1.04-0.21-2.17-0.31-2.77-0.31
		c-0.42,0-0.73-0.41-0.73-0.73c0-0.52,0.41-0.71,1.44-0.71c2.99,0,8.65,0.2,9.16,0.2c0.41,0,6.28-0.2,9.07-0.2
		c1.02,0,1.45,0.2,1.45,0.71c0,0.32-0.42,0.73-0.73,0.73c-0.62,0-1.23,0-2.27,0.22c-2.46,0.5-2.97,1.74-3.18,4.83
		c-0.11,2.77-0.11,5.22-0.11,18.82V112.95z"/>
	<path class="st2" d="M764.31,130.13c-8.84-7.62-11.02-17.58-11.02-25.93c0-5.88,2.17-16.05,10.19-23.85
		c5.45-5.26,13.68-9.38,27.59-9.38c3.6,0,8.74,0.3,13.17,1.04c3.39,0.6,6.28,1.23,9.27,1.33c0.92,0,1.14,0.41,1.14,0.93
		c0,0.71-0.22,1.74-0.43,4.95c-0.1,2.87-0.1,7.71-0.19,8.94c-0.11,1.33-0.52,1.86-1.04,1.86c-0.61,0-0.72-0.65-0.72-1.86
		c0-3.39-1.44-6.89-3.82-8.74c-3.19-2.68-9.78-4.82-17.79-4.82c-11.65,0-17.2,3.07-20.38,6.06c-6.69,6.18-8.13,13.98-8.13,22.86
		c0,16.76,13.25,31.67,32.61,31.67c6.79,0,11.32-0.5,14.93-4.11c1.96-1.96,3.17-5.66,3.49-7.31c0.2-0.93,0.31-1.24,0.93-1.24
		c0.41,0,0.83,0.63,0.83,1.24c0,0.63-1.24,8.24-2.16,11.24c-0.53,1.61-0.73,1.93-2.27,2.55c-3.7,1.44-10.5,1.95-16.37,1.95
		C780.56,139.49,771.41,136.31,764.31,130.13z"/>
	<path class="st2" d="M836.45,97.52c0-13.6,0-16.05-0.21-18.82c-0.21-3-0.71-4.43-3.7-4.83c-0.73-0.12-2.26-0.22-3.1-0.22
		c-0.31,0-0.71-0.41-0.71-0.73c0-0.52,0.4-0.71,1.44-0.71c4.12,0,9.99,0.2,10.5,0.2c0.62,0,19.56,0.12,21.62,0
		c1.74-0.08,3.4-0.39,4.11-0.51c0.41-0.09,0.82-0.41,1.24-0.41c0.3,0,0.4,0.41,0.4,0.84c0,0.6-0.51,1.64-0.71,4.11
		c-0.1,0.83-0.33,4.73-0.52,5.76c-0.1,0.41-0.41,0.93-0.83,0.93c-0.52,0-0.71-0.41-0.71-1.12c0-0.63-0.1-2.08-0.5-3.1
		c-0.62-1.44-1.56-2.04-6.51-2.68c-1.54-0.21-12.04-0.3-13.05-0.3c-0.42,0-0.53,0.3-0.53,0.93v23.75c0,0.62,0,0.94,0.53,0.94
		c1.12,0,13.05,0,15.11-0.21c2.15-0.22,3.5-0.32,4.45-1.27c0.6-0.62,1.02-1.12,1.32-1.12c0.31,0,0.51,0.21,0.51,0.73
		c0,0.5-0.51,1.96-0.73,4.83c-0.18,1.76-0.41,5.04-0.41,5.66c0,0.72-0.19,1.65-0.82,1.65c-0.4,0-0.61-0.32-0.61-0.83
		c0-0.83,0-1.75-0.42-2.87c-0.3-1.23-1.14-2.27-4.63-2.69c-2.46-0.31-12.15-0.41-13.69-0.41c-0.5,0-0.61,0.29-0.61,0.62v7.3
		c0,3-0.1,13.19,0,14.93c0.21,5.86,1.86,7,10.82,7c2.34,0,6.69,0,9.05-0.93c2.35-1.02,3.6-2.58,4.11-6.07
		c0.21-1.03,0.41-1.35,0.94-1.35c0.49,0,0.6,0.73,0.6,1.35s-0.71,6.59-1.24,8.44c-0.61,2.27-1.54,2.27-5.03,2.27
		c-6.8,0-12.04-0.21-15.76-0.31c-3.82-0.21-6.18-0.21-7.51-0.21c-0.21,0-1.96,0-3.9,0.1c-1.76,0.11-3.82,0.21-5.26,0.21
		c-0.92,0-1.41-0.21-1.41-0.72c0-0.31,0.19-0.73,0.7-0.73c0.82,0,1.96-0.32,2.79-0.42c1.73-0.28,1.95-2.04,2.35-4.62
		c0.51-3.6,0.51-10.5,0.51-18.94V97.52z"/>
	<path class="st2" d="M952.24,70.97c20.37,0,35.81,12.46,35.81,32.83c0,19.54-14.5,35.7-36.33,35.7
		c-24.79,0-35.38-18.61-35.38-34.36C916.33,91.03,927.25,70.97,952.24,70.97z M954.29,135.92c8.14,0,24.51-4.35,24.51-29.65
		c0-20.99-12.77-32.01-27.09-32.01c-15.12,0-26.02,9.47-26.02,28.51C925.69,123.15,937.94,135.92,954.29,135.92z"/>
	<path class="st2" d="M1006.99,97.52c0-13.6,0-16.05-0.2-18.82c-0.21-3-0.71-4.43-3.7-4.83c-0.73-0.12-2.27-0.22-3.1-0.22
		c-0.31,0-0.72-0.41-0.72-0.73c0-0.52,0.41-0.71,1.45-0.71c4.13,0,9.78,0.2,10.29,0.2c1.74,0,21.4,0.12,23.46,0
		c1.75-0.08,3.31-0.08,4.13-0.39c0.51-0.12,0.92-0.53,1.21-0.53c0.42,0,0.61,0.41,0.61,0.84c0,0.6-0.41,1.64-0.69,4.11
		c-0.11,0.83-0.22,4.73-0.44,5.76c-0.09,0.41-0.39,0.93-0.82,0.93c-0.42,0-0.69-0.41-0.69-1.03c0-0.73-0.33-2.17-0.83-3.29
		c-0.53-1.13-2.68-2.58-6.18-2.58L1015.95,76c-0.51,0-0.72,0.21-0.72,0.93v23.87c0,0.52,0,0.83,0.62,0.83l12.34-0.1
		c1.53,0,2.89,0,4.13-0.12c2.16-0.21,3.39-0.52,4.22-1.54c0.42-0.51,0.82-0.93,1.13-0.93c0.39,0,0.52,0.32,0.52,0.73
		c0,0.5-0.62,1.96-0.83,4.83c-0.21,1.76-0.32,5.26-0.32,5.87c0,0.83-0.19,1.75-0.81,1.75c-0.51,0-0.63-0.4-0.63-0.84
		c-0.08-0.91-0.18-2.16-0.6-3.17c-0.4-1.23-1.85-2.38-4.63-2.81c-2.27-0.29-12.97-0.19-14.51-0.19c-0.54,0-0.62,0.19-0.62,0.83v6.99
		c0,8.65,0,15.54,0.42,18.94c0.3,2.58,0.82,4.22,3.28,4.62c1.34,0.22,3.3,0.42,4.12,0.42c0.5,0,0.72,0.42,0.72,0.73
		c0,0.4-0.41,0.72-1.44,0.72c-5.04,0-10.91-0.31-11.32-0.31c-0.51,0-6.16,0.31-8.96,0.31c-0.93,0-1.45-0.21-1.45-0.72
		c0-0.31,0.22-0.73,0.75-0.73c0.81,0,1.93-0.32,2.78-0.42c1.74-0.28,1.95-2.04,2.35-4.62c0.51-3.6,0.51-10.5,0.51-18.94V97.52z"/>
	<path class="st2" d="M1119.79,108.53c0,9.87,0,18,0.53,22.33c0.29,2.97,0.92,5.24,3.99,5.65c1.45,0.22,3.72,0.42,4.64,0.42
		c0.61,0,0.84,0.31,0.84,0.62c0,0.52-0.53,0.83-1.67,0.83c-5.64,0-12.13-0.31-12.65-0.31c-0.51,0-6.99,0.31-10.07,0.31
		c-1.13,0-1.64-0.21-1.64-0.83c0-0.31,0.2-0.62,0.81-0.62c0.93,0,2.16-0.2,3.1-0.42c2.06-0.4,2.57-2.67,2.97-5.65
		c0.52-4.33,0.52-12.46,0.52-22.33V65l-15.24,0.22c-6.37,0.11-8.84,0.81-10.47,3.28c-1.14,1.75-1.45,2.48-1.76,3.2
		c-0.31,0.84-0.63,1.02-1.04,1.02c-0.31,0-0.53-0.31-0.53-0.91c0-1.02,2.07-9.88,2.27-10.71c0.22-0.63,0.61-1.95,1.05-1.95
		c0.69,0,1.73,1.04,4.5,1.23c3,0.31,6.91,0.5,8.15,0.5h38.59c3.29,0,5.65-0.2,7.3-0.5c1.55-0.2,2.47-0.52,2.89-0.52
		c0.49,0,0.49,0.6,0.49,1.23c0,3.07-0.3,10.17-0.3,11.31c0,0.94-0.31,1.34-0.73,1.34c-0.5,0-0.72-0.31-0.81-1.74l-0.1-1.15
		c-0.3-3.08-2.81-5.44-12.68-5.64L1119.79,65V108.53z"/>
	<path class="st2" d="M1164.57,97.52c0-13.6,0-16.05-0.21-18.82c-0.21-3-0.72-4.43-3.71-4.83c-0.72-0.12-2.26-0.22-3.09-0.22
		c-0.3,0-0.69-0.41-0.69-0.73c0-0.52,0.39-0.71,1.43-0.71c4.12,0,9.99,0.2,10.48,0.2c0.61,0,19.56,0.12,21.61,0
		c1.77-0.08,3.42-0.39,4.14-0.51c0.4-0.09,0.81-0.41,1.22-0.41c0.33,0,0.42,0.41,0.42,0.84c0,0.6-0.52,1.64-0.72,4.11
		c-0.11,0.83-0.3,4.73-0.53,5.76c-0.1,0.41-0.4,0.93-0.81,0.93c-0.51,0-0.72-0.41-0.72-1.12c0-0.63-0.1-2.08-0.52-3.1
		c-0.63-1.44-1.54-2.04-6.47-2.68c-1.55-0.21-12.05-0.3-13.07-0.3c-0.42,0-0.52,0.3-0.52,0.93v23.75c0,0.62,0,0.94,0.52,0.94
		c1.12,0,13.07,0,15.12-0.21c2.16-0.22,3.5-0.32,4.43-1.27c0.63-0.62,1.03-1.12,1.35-1.12c0.3,0,0.5,0.21,0.5,0.73
		c0,0.5-0.5,1.96-0.71,4.83c-0.21,1.76-0.42,5.04-0.42,5.66c0,0.72-0.21,1.65-0.84,1.65c-0.41,0-0.6-0.32-0.6-0.83
		c0-0.83,0-1.75-0.42-2.87c-0.31-1.23-1.13-2.27-4.62-2.69c-2.47-0.31-12.13-0.41-13.7-0.41c-0.51,0-0.61,0.29-0.61,0.62v7.3
		c0,3-0.11,13.19,0,14.93c0.22,5.86,1.84,7,10.8,7c2.36,0,6.7,0,9.06-0.93c2.37-1.02,3.6-2.58,4.13-6.07
		c0.19-1.03,0.42-1.35,0.92-1.35c0.52,0,0.61,0.73,0.61,1.35s-0.71,6.59-1.23,8.44c-0.61,2.27-1.56,2.27-5.04,2.27
		c-6.8,0-12.04-0.21-15.74-0.31c-3.82-0.21-6.15-0.21-7.53-0.21c-0.2,0-1.95,0-3.89,0.1c-1.75,0.11-3.81,0.21-5.24,0.21
		c-0.94,0-1.44-0.21-1.44-0.72c0-0.31,0.19-0.73,0.72-0.73c0.82,0,1.94-0.32,2.76-0.42c1.74-0.28,1.96-2.04,2.36-4.62
		c0.53-3.6,0.53-10.5,0.53-18.94V97.52z"/>
	<path class="st2" d="M1222.01,130.13c-8.84-7.62-11.01-17.58-11.01-25.93c0-5.88,2.17-16.05,10.19-23.85
		c5.45-5.26,13.68-9.38,27.59-9.38c3.6,0,8.73,0.3,13.15,1.04c3.4,0.6,6.28,1.23,9.27,1.33c0.93,0,1.13,0.41,1.13,0.93
		c0,0.71-0.2,1.74-0.42,4.95c-0.1,2.87-0.1,7.71-0.19,8.94c-0.11,1.33-0.52,1.86-1.02,1.86c-0.62,0-0.73-0.65-0.73-1.86
		c0-3.39-1.44-6.89-3.8-8.74c-3.19-2.68-9.79-4.82-17.81-4.82c-11.63,0-17.18,3.07-20.36,6.06c-6.7,6.18-8.14,13.98-8.14,22.86
		c0,16.76,13.27,31.67,32.62,31.67c6.8,0,11.33-0.5,14.93-4.11c1.94-1.96,3.19-5.66,3.48-7.31c0.22-0.93,0.31-1.24,0.93-1.24
		c0.41,0,0.83,0.63,0.83,1.24c0,0.63-1.23,8.24-2.16,11.24c-0.52,1.61-0.73,1.93-2.27,2.55c-3.7,1.44-10.5,1.95-16.36,1.95
		C1238.26,139.49,1229.12,136.31,1222.01,130.13z"/>
	<path class="st2" d="M1349.42,112.95c0,8.44,0.1,15.33,0.52,18.94c0.3,2.58,0.5,4.22,3.26,4.62c1.25,0.22,3.3,0.42,4.02,0.42
		c0.62,0,0.81,0.42,0.81,0.73c0,0.4-0.5,0.72-1.53,0.72c-4.93,0-10.7-0.31-11.21-0.31c-0.42,0-6.3,0.31-8.96,0.31
		c-1.04,0-1.44-0.21-1.44-0.72c0-0.31,0.2-0.73,0.72-0.73c0.81,0,1.84-0.2,2.67-0.42c1.85-0.4,2.16-2.13,2.47-4.7
		c0.41-3.6,0.41-10.21,0.41-18.64v-8.74c0-0.41-0.2-0.52-0.51-0.52h-37.76c-0.32,0-0.49,0.11-0.49,0.52v8.74
		c0,8.44,0,15.12,0.38,18.73c0.3,2.58,0.64,4.22,3.29,4.62c1.34,0.22,3.3,0.42,4.13,0.42c0.52,0,0.73,0.42,0.73,0.73
		c0,0.4-0.41,0.72-1.45,0.72c-5.03,0-10.81-0.31-11.2-0.31c-0.53,0-6.3,0.31-9.08,0.31c-0.92,0-1.44-0.21-1.44-0.72
		c0-0.31,0.21-0.73,0.72-0.73c0.83,0,1.96-0.2,2.79-0.42c1.74-0.4,1.95-2.04,2.35-4.62c0.52-3.6,0.52-10.5,0.52-18.94V97.52
		c0-13.6,0-16.05-0.18-18.82c-0.22-3-0.74-4.43-3.74-4.83c-0.7-0.12-2.25-0.22-3.08-0.22c-0.3,0-0.72-0.41-0.72-0.73
		c0-0.52,0.42-0.71,1.45-0.71c4.1,0,9.87,0.2,10.4,0.2c0.39,0,6.17-0.2,8.94-0.2c1.03,0,1.43,0.2,1.43,0.71
		c0,0.32-0.4,0.73-0.72,0.73c-0.6,0-1.25,0-2.27,0.22c-2.45,0.5-2.97,1.74-3.18,4.83c-0.08,2.77-0.08,5.45-0.08,19.03v1.86
		c0,0.48,0.18,0.48,0.49,0.48h37.76c0.31,0,0.51,0,0.51-0.48v-1.86c0-13.58-0.1-16.26-0.2-19.03c-0.21-3-0.61-4.43-3.6-4.83
		c-0.72-0.12-2.26-0.22-3.07-0.22c-0.44,0-0.75-0.41-0.75-0.73c0-0.52,0.43-0.71,1.45-0.71c4.01,0,9.88,0.2,10.3,0.2
		c0.5,0,6.27-0.2,8.96-0.2c1.04,0,1.54,0.2,1.54,0.71c0,0.32-0.41,0.73-0.84,0.73c-0.61,0-1.11,0-2.26,0.22
		c-2.37,0.5-2.87,1.74-3.09,4.83c-0.19,2.77-0.19,5.22-0.19,18.82V112.95z"/>
	<path class="st2" d="M1383.07,126.43c0.21,7.2,1.04,9.36,3.5,9.98c1.64,0.42,3.71,0.51,4.54,0.51c0.38,0,0.69,0.31,0.69,0.73
		c0,0.5-0.63,0.72-1.64,0.72c-5.14,0-8.75-0.31-9.57-0.31c-0.83,0-4.63,0.31-8.75,0.31c-0.93,0-1.43-0.1-1.43-0.72
		c0-0.42,0.31-0.73,0.7-0.73c0.73,0,2.36-0.1,3.71-0.51c2.27-0.62,2.56-2.99,2.56-10.89V75.37c0-3.48,0.53-4.4,1.24-4.4
		c1.03,0,2.59,1.74,3.5,2.68c1.45,1.45,14.61,15.43,28.62,29.86c8.93,9.25,18.61,19.65,21.39,22.52l-0.94-43.84
		c-0.08-5.65-0.6-7.59-3.38-8.13c-1.64-0.31-3.7-0.41-4.41-0.41c-0.63,0-0.73-0.5-0.73-0.83c0-0.5,0.73-0.61,1.76-0.61
		c4.13,0,8.44,0.2,9.47,0.2c1.02,0,4.01-0.2,7.71-0.2c0.93,0,1.65,0.11,1.65,0.61c0,0.32-0.41,0.83-1.03,0.83
		c-0.41,0-1.14,0-2.17,0.22c-2.98,0.61-3.18,2.35-3.18,7.61l-0.21,51.23c0,5.77-0.11,6.29-0.72,6.29c-0.93,0-1.85-0.71-6.9-5.36
		c-0.94-0.83-14-13.68-23.57-23.66c-10.5-11.02-20.69-21.72-23.45-24.8L1383.07,126.43z"/>
	<path class="st2" d="M1489.18,70.97c20.39,0,35.82,12.46,35.82,32.83c0,19.54-14.5,35.7-36.32,35.7
		c-24.81,0-35.39-18.61-35.39-34.36C1453.28,91.03,1464.18,70.97,1489.18,70.97z M1491.25,135.92c8.13,0,24.49-4.35,24.49-29.65
		c0-20.99-12.76-32.01-27.06-32.01c-15.12,0-26.04,9.47-26.04,28.51C1462.64,123.15,1474.88,135.92,1491.25,135.92z"/>
	<path class="st2" d="M1552.18,113.16c0,12.87,0.19,18.11,1.85,19.65c1.44,1.46,4.95,2.06,12.04,2.06c4.73,0,8.76-0.1,10.9-2.67
		c1.13-1.35,1.86-3.19,2.17-4.95c0.1-0.62,0.4-1.12,0.91-1.12c0.42,0,0.63,0.39,0.63,1.33c0,0.91-0.63,6.17-1.35,8.76
		c-0.58,2.05-0.91,2.35-5.76,2.35c-6.47,0-11.52-0.11-15.73-0.31c-4.12-0.11-7.21-0.21-9.88-0.21c-0.41,0-1.95,0-3.71,0.1
		c-1.85,0.11-3.78,0.21-5.24,0.21c-0.93,0-1.45-0.21-1.45-0.72c0-0.31,0.21-0.73,0.73-0.73c0.82,0,1.95-0.2,2.77-0.42
		c1.74-0.4,1.96-2.04,2.37-4.62c0.52-3.6,0.52-10.5,0.52-18.94V97.52c0-13.6,0-16.05-0.21-18.82c-0.21-3-0.72-4.43-3.7-4.83
		c-0.72-0.12-2.27-0.22-3.09-0.22c-0.3,0-0.71-0.41-0.71-0.73c0-0.52,0.42-0.71,1.44-0.71c4.12,0,9.77,0.2,10.29,0.2
		c0.41,0,7.21-0.2,9.99-0.2c0.93,0,1.43,0.2,1.43,0.71c0,0.32-0.4,0.64-0.72,0.64c-0.62,0-1.96,0.09-2.98,0.19
		c-2.67,0.52-3.19,1.85-3.4,4.95c-0.1,2.77-0.1,5.22-0.1,18.82V113.16z"/>
	<path class="st2" d="M1622.37,70.97c20.38,0,35.82,12.46,35.82,32.83c0,19.54-14.52,35.7-36.34,35.7
		c-24.79,0-35.39-18.61-35.39-34.36C1586.46,91.03,1597.36,70.97,1622.37,70.97z M1624.41,135.92c8.16,0,24.51-4.35,24.51-29.65
		c0-20.99-12.77-32.01-27.08-32.01c-15.11,0-26.02,9.47-26.02,28.51C1595.83,123.15,1608.07,135.92,1624.41,135.92z"/>
	<path class="st2" d="M1722.5,116.04c0-7.1-0.21-8.14-3.9-8.86c-0.73-0.1-2.28-0.2-3.1-0.2c-0.3,0-0.72-0.42-0.72-0.71
		c0-0.63,0.42-0.73,1.44-0.73c4.13,0,10.2,0.2,10.7,0.2c0.41,0,6.08-0.2,8.84-0.2c1.02,0,1.44,0.1,1.44,0.73
		c0,0.3-0.42,0.71-0.72,0.71c-0.61,0-1.24,0-2.25,0.2c-2.49,0.42-3.2,1.75-3.41,4.84c-0.11,2.79-0.11,5.35-0.11,9.06v9.77
		c0,4.01-0.1,4.14-1.21,4.74c-5.78,2.99-14.02,3.9-19.26,3.9c-6.89,0-19.77-0.81-29.85-9.36c-5.56-4.61-10.81-13.99-10.81-24.92
		c0-13.96,7.1-23.85,15.15-28.68c8.11-4.96,17.15-5.56,24.06-5.56c5.76,0,12.14,1.04,13.91,1.43c1.85,0.42,5.03,0.94,7.3,0.94
		c0.93,0,1.13,0.41,1.13,0.81c0,1.22-0.53,3.62-0.53,12.34c0,1.44-0.4,1.86-1.01,1.86c-0.51,0-0.63-0.53-0.63-1.34
		c-0.11-1.14-0.61-3.7-2.06-5.76c-2.24-3.31-9.16-6.78-20.87-6.78c-5.46,0-12.05,0.41-18.94,5.65c-5.28,4.02-8.95,11.83-8.95,22.02
		c0,12.36,6.39,21.19,9.56,24.2c7.22,6.68,14.81,9.14,23.16,9.14c3.19,0,7.4-0.31,9.76-1.65c1.13-0.61,1.85-1.03,1.85-2.68V116.04z"
		/>
	<path class="st2" d="M1768.3,115.62c0-4.73-0.59-6.49-1.95-8.94c-0.72-1.36-12.96-20.8-16.04-25.42c-2.16-3.31-4.33-5.26-5.97-6.38
		c-1.34-0.83-3.08-1.24-3.8-1.24c-0.53,0-0.94-0.41-0.94-0.83c0-0.42,0.31-0.61,1.13-0.61c1.74,0,8.55,0.2,8.94,0.2
		c0.64,0,4.34-0.2,7.84-0.2c1.02,0,1.24,0.2,1.24,0.61c0,0.32-0.63,0.62-1.44,0.93c-0.73,0.31-1.12,0.73-1.12,1.43
		c0,1.25,0.6,2.27,1.21,3.39l16.46,27.28c1.87-3.71,13.19-22.42,14.84-25.31c1.13-1.98,1.52-3.39,1.52-4.54
		c0-1.23-0.39-1.95-1.43-2.26c-0.81-0.19-1.35-0.6-1.35-1.04c0-0.31,0.53-0.5,1.45-0.5c2.36,0,5.54,0.2,6.27,0.2
		c0.62,0,7.09-0.2,8.86-0.2c0.61,0,1.13,0.2,1.13,0.5c0,0.43-0.41,0.94-1.13,0.94c-1.04,0-2.79,0.31-4.23,1.13
		c-1.74,1.03-2.59,1.96-4.52,4.31c-2.99,3.5-15.74,24.09-17.6,27.81c-1.54,3.08-1.14,5.85-1.14,8.73v7.53c0,1.43,0,5.13,0.31,8.73
		c0.21,2.58,0.83,4.22,3.5,4.62c1.22,0.22,3.3,0.42,4.1,0.42c0.54,0,0.73,0.42,0.73,0.73c0,0.4-0.51,0.72-1.45,0.72
		c-5.04,0-10.91-0.31-11.42-0.31c-0.41,0-6.18,0.31-8.84,0.31c-1.04,0-1.44-0.21-1.44-0.72c0-0.31,0.21-0.73,0.72-0.73
		c0.81,0,1.85-0.2,2.67-0.42c1.85-0.4,2.48-2.04,2.68-4.62c0.19-3.6,0.19-7.3,0.19-8.73V115.62z"/>
	<path class="st2" d="M1846.54,137.02c-1.45-0.71-1.55-1.11-1.55-3.89c0-5.16,0.42-9.26,0.5-10.92c0.12-1.12,0.33-1.64,0.83-1.64
		c0.63,0,0.73,0.31,0.73,1.12c0,0.91,0,2.38,0.33,3.83c1.52,7.61,8.31,10.5,15.21,10.5c9.9,0,14.71-7.12,14.71-13.69
		c0-7.11-2.97-11.23-11.83-18.53l-4.64-3.8c-10.9-8.97-13.37-15.35-13.37-22.34c0-11.03,8.23-18.51,21.29-18.51
		c4.04,0,7.01,0.39,9.59,1.04c1.93,0.39,2.76,0.5,3.58,0.5c0.81,0,1.03,0.2,1.03,0.71c0,0.52-0.42,3.93-0.42,10.92
		c0,1.64-0.18,2.35-0.7,2.35c-0.61,0-0.73-0.52-0.85-1.33c-0.08-1.23-0.72-4.02-1.31-5.14c-0.62-1.14-3.39-5.47-12.87-5.47
		c-7.12,0-12.66,4.43-12.66,11.94c0,5.87,2.68,9.56,12.55,17.28l2.89,2.25c12.16,9.59,15.02,15.96,15.02,24.19
		c0,4.21-1.66,12.04-8.78,17.09c-4.4,3.1-9.95,4.33-15.53,4.33C1855.48,139.81,1850.76,139.1,1846.54,137.02z"/>
	<path class="st2" d="M1909.42,97.52c0-13.6,0-16.05-0.2-18.82c-0.22-3-0.73-4.43-3.7-4.83c-0.73-0.12-2.27-0.22-3.11-0.22
		c-0.31,0-0.7-0.41-0.7-0.73c0-0.52,0.39-0.71,1.43-0.71c4.12,0,9.98,0.2,10.51,0.2c0.59,0,19.54,0.12,21.58,0
		c1.76-0.08,3.42-0.39,4.12-0.51c0.42-0.09,0.81-0.41,1.26-0.41c0.28,0,0.39,0.41,0.39,0.84c0,0.6-0.5,1.64-0.69,4.11
		c-0.14,0.83-0.34,4.73-0.54,5.76c-0.1,0.41-0.42,0.93-0.84,0.93c-0.47,0-0.69-0.41-0.69-1.12c0-0.63-0.11-2.08-0.51-3.1
		c-0.61-1.44-1.56-2.04-6.5-2.68c-1.55-0.21-12.03-0.3-13.06-0.3c-0.42,0-0.51,0.3-0.51,0.93v23.75c0,0.62,0,0.94,0.51,0.94
		c1.15,0,13.06,0,15.13-0.21c2.15-0.22,3.47-0.32,4.42-1.27c0.62-0.62,1.01-1.12,1.32-1.12c0.3,0,0.53,0.21,0.53,0.73
		c0,0.5-0.53,1.96-0.76,4.83c-0.17,1.76-0.36,5.04-0.36,5.66c0,0.72-0.22,1.65-0.85,1.65c-0.42,0-0.61-0.32-0.61-0.83
		c0-0.83,0-1.75-0.42-2.87c-0.3-1.23-1.12-2.27-4.62-2.69c-2.47-0.31-12.14-0.41-13.7-0.41c-0.5,0-0.59,0.29-0.59,0.62v7.3
		c0,3-0.11,13.19,0,14.93c0.17,5.86,1.85,7,10.79,7c2.35,0,6.7,0,9.05-0.93c2.38-1.02,3.62-2.58,4.12-6.07
		c0.21-1.03,0.42-1.35,0.96-1.35c0.51,0,0.59,0.73,0.59,1.35s-0.7,6.59-1.26,8.44c-0.59,2.27-1.52,2.27-5.02,2.27
		c-6.78,0-12.03-0.21-15.72-0.31c-3.81-0.21-6.19-0.21-7.51-0.21c-0.22,0-1.96,0-3.93,0.1c-1.74,0.11-3.81,0.21-5.24,0.21
		c-0.96,0-1.46-0.21-1.46-0.72c0-0.31,0.22-0.73,0.73-0.73c0.81,0,1.93-0.32,2.8-0.42c1.72-0.28,1.94-2.04,2.33-4.62
		c0.53-3.6,0.53-10.5,0.53-18.94V97.52z"/>
	<path class="st2" d="M1966.16,97.52c0-13.6,0-16.05-0.26-18.82c-0.2-3-0.7-4.43-3.67-4.83c-0.7-0.12-2.27-0.22-3.11-0.22
		c-0.31,0-0.7-0.41-0.7-0.73c0-0.52,0.39-0.71,1.43-0.71c4.12,0,10.21,0.2,10.71,0.2c0.92,0,8.52-0.2,11.32-0.2
		c5.75,0,12.14,0.5,16.88,3.8c2.27,1.65,6.27,5.87,6.27,11.94c0,6.49-2.67,12.78-11.13,19.96c7.4,9.26,13.67,17.19,18.95,22.66
		c4.82,4.92,7.82,5.74,10.09,6.04c1.74,0.32,2.66,0.32,3.17,0.32c0.53,0,0.84,0.42,0.84,0.73c0,0.5-0.5,0.72-2.16,0.72h-5.66
		c-5.16,0-7.4-0.51-9.67-1.77c-3.93-2.05-7.23-6.25-12.36-12.85c-3.82-4.74-7.82-10.38-9.75-12.76c-0.42-0.4-0.65-0.5-1.26-0.5
		l-11.52-0.21c-0.39,0-0.61,0.21-0.61,0.71v2.06c0,8.44,0,15.22,0.38,18.83c0.34,2.58,0.85,4.22,3.65,4.62
		c1.24,0.22,3.17,0.42,3.98,0.42c0.64,0,0.75,0.42,0.75,0.73c0,0.4-0.44,0.72-1.45,0.72c-4.93,0-10.7-0.31-11.13-0.31
		c-0.08,0-6.17,0.31-8.94,0.31c-0.93,0-1.44-0.21-1.44-0.72c0-0.31,0.2-0.73,0.7-0.73c0.85,0,1.96-0.2,2.81-0.42
		c1.74-0.4,1.93-2.04,2.35-4.62c0.54-3.6,0.54-10.5,0.54-18.94V97.52z M1973.95,104.93c0,0.5,0.22,0.81,0.61,1.12
		c1.34,0.73,5.97,1.34,9.98,1.34c2.16,0,4.62-0.12,6.81-1.54c3.08-2.06,5.44-6.7,5.44-13.37c0-10.93-5.97-17.18-15.64-17.18
		c-2.67,0-5.56,0.3-6.47,0.5c-0.42,0.2-0.73,0.51-0.73,1.04V104.93z"/>
	<path class="st2" d="M2052.8,126.93c5.24-11.72,17.07-41.57,19.03-47.85c0.42-1.32,0.81-2.55,0.81-3.28c0-0.71-0.28-1.54-1.2-1.85
		c-1.07-0.31-2.08-0.31-3.11-0.31c-0.5,0-1.04-0.31-1.04-0.73c0-0.52,0.61-0.71,2.08-0.71c3.59,0,7.71,0.2,8.86,0.2
		c0.5,0,4.43-0.2,7.1-0.2c0.92,0,1.43,0.2,1.43,0.61c0,0.42-0.31,0.83-1.01,0.83c-0.61,0-2.69,0-4.34,1.03
		c-1.24,0.83-2.67,2.06-5.02,8.03c-1.04,2.47-5.47,12.97-10.09,23.66c-5.58,12.76-9.59,22.23-11.64,26.56
		c-2.46,5.24-2.99,6.57-3.92,6.57c-1.01,0-1.65-1.12-3.39-5.34l-22.23-53.6c-2.04-4.95-3.27-5.87-6.27-6.59
		c-1.43-0.31-2.97-0.31-3.5-0.31c-0.5,0-0.7-0.5-0.7-0.83c0-0.5,0.93-0.61,2.35-0.61c4.32,0,9.47,0.2,10.59,0.2
		c0.93,0,4.94-0.2,8.47-0.2c1.65,0,2.47,0.2,2.47,0.61c0,0.42-0.34,0.83-0.93,0.83c-1.04,0-2.49,0.1-3.31,0.41
		c-0.92,0.42-1.03,0.93-1.03,1.54c0,1.13,1.15,3.81,2.47,7.32L2052.8,126.93z"/>
	<path class="st2" d="M2108.35,112.95c0,8.44,0,15.33,0.42,18.94c0.34,2.58,0.62,4.22,3.29,4.62c1.34,0.22,3.3,0.42,4.14,0.42
		c0.51,0,0.7,0.42,0.7,0.73c0,0.4-0.42,0.72-1.43,0.72c-5.08,0-10.94-0.31-11.33-0.31c-0.5,0-6.16,0.31-8.96,0.31
		c-0.9,0-1.41-0.21-1.41-0.72c0-0.31,0.2-0.73,0.7-0.73c0.81,0,1.96-0.2,2.77-0.42c1.76-0.4,2.08-2.04,2.39-4.62
		c0.39-3.6,0.5-10.5,0.5-18.94V97.52c0-13.6,0-16.05-0.22-18.82c-0.2-3-0.9-4.33-2.89-4.74c-1.01-0.21-2.15-0.31-2.75-0.31
		c-0.42,0-0.73-0.41-0.73-0.73c0-0.52,0.42-0.71,1.43-0.71c3,0,8.66,0.2,9.16,0.2c0.39,0,6.25-0.2,9.05-0.2
		c1.04,0,1.46,0.2,1.46,0.71c0,0.32-0.42,0.73-0.73,0.73c-0.61,0-1.23,0-2.27,0.22c-2.46,0.5-3,1.74-3.19,4.83
		c-0.11,2.77-0.11,5.22-0.11,18.82V112.95z"/>
	<path class="st2" d="M2139.44,130.13c-8.83-7.62-10.98-17.58-10.98-25.93c0-5.88,2.15-16.05,10.17-23.85
		c5.48-5.26,13.71-9.38,27.59-9.38c3.62,0,8.75,0.3,13.17,1.04c3.4,0.6,6.28,1.23,9.28,1.33c0.89,0,1.12,0.41,1.12,0.93
		c0,0.71-0.22,1.74-0.42,4.95c-0.11,2.87-0.11,7.71-0.2,8.94c-0.11,1.33-0.5,1.86-1.04,1.86c-0.61,0-0.73-0.65-0.73-1.86
		c0-3.39-1.43-6.89-3.78-8.74c-3.19-2.68-9.79-4.82-17.8-4.82c-11.64,0-17.19,3.07-20.41,6.06c-6.66,6.18-8.1,13.98-8.1,22.86
		c0,16.76,13.26,31.67,32.61,31.67c6.81,0,11.33-0.5,14.93-4.11c1.93-1.96,3.17-5.66,3.48-7.31c0.22-0.93,0.33-1.24,0.93-1.24
		c0.42,0,0.84,0.63,0.84,1.24c0,0.63-1.24,8.24-2.16,11.24c-0.54,1.61-0.73,1.93-2.27,2.55c-3.7,1.44-10.51,1.95-16.36,1.95
		C2155.72,139.49,2146.55,136.31,2139.44,130.13z"/>
	<path class="st2" d="M2211.62,97.52c0-13.6,0-16.05-0.22-18.82c-0.2-3-0.7-4.43-3.7-4.83c-0.73-0.12-2.27-0.22-3.08-0.22
		c-0.3,0-0.73-0.41-0.73-0.73c0-0.52,0.43-0.71,1.46-0.71c4.13,0,9.98,0.2,10.48,0.2c0.61,0,19.57,0.12,21.62,0
		c1.74-0.08,3.39-0.39,4.13-0.51c0.41-0.09,0.81-0.41,1.23-0.41c0.3,0,0.41,0.41,0.41,0.84c0,0.6-0.53,1.64-0.73,4.11
		c-0.11,0.83-0.3,4.73-0.5,5.76c-0.11,0.41-0.41,0.93-0.84,0.93c-0.5,0-0.73-0.41-0.73-1.12c0-0.63-0.08-2.08-0.5-3.1
		c-0.61-1.44-1.54-2.04-6.48-2.68c-1.53-0.21-12.01-0.3-13.06-0.3c-0.42,0-0.53,0.3-0.53,0.93v23.75c0,0.62,0,0.94,0.53,0.94
		c1.13,0,13.06,0,15.12-0.21c2.18-0.22,3.5-0.32,4.42-1.27c0.62-0.62,1.04-1.12,1.37-1.12c0.29,0,0.5,0.21,0.5,0.73
		c0,0.5-0.5,1.96-0.73,4.83c-0.22,1.76-0.42,5.04-0.42,5.66c0,0.72-0.23,1.65-0.81,1.65c-0.43,0-0.65-0.32-0.65-0.83
		c0-0.83,0-1.75-0.42-2.87c-0.28-1.23-1.09-2.27-4.59-2.69c-2.5-0.31-12.17-0.41-13.71-0.41c-0.5,0-0.61,0.29-0.61,0.62v7.3
		c0,3-0.11,13.19,0,14.93c0.19,5.86,1.84,7,10.79,7c2.38,0,6.7,0,9.08-0.93c2.35-1.02,3.61-2.58,4.12-6.07
		c0.19-1.03,0.42-1.35,0.92-1.35c0.5,0,0.61,0.73,0.61,1.35s-0.73,6.59-1.23,8.44c-0.61,2.27-1.54,2.27-5.04,2.27
		c-6.81,0-12.05-0.21-15.75-0.31c-3.82-0.21-6.17-0.21-7.52-0.21c-0.18,0-1.96,0-3.92,0.1c-1.71,0.11-3.78,0.21-5.24,0.21
		c-0.92,0-1.43-0.21-1.43-0.72c0-0.31,0.2-0.73,0.73-0.73c0.81,0,1.93-0.32,2.77-0.42c1.73-0.28,1.96-2.04,2.35-4.62
		c0.54-3.6,0.54-10.5,0.54-18.94V97.52z"/>
	<path class="st2" d="M2260.7,137.14c-1.26-0.63-1.35-0.91-1.35-3.3c0-4.33,0.42-7.81,0.51-9.25c0-0.94,0.22-1.43,0.73-1.43
		s0.84,0.3,0.84,1.02c0,0.71,0,1.96,0.3,3.17c1.43,6.39,8.21,8.67,14.3,8.67c8.94,0,13.59-5.04,13.59-11.63
		c0-6.28-3.42-9.26-11.44-15.25l-4.12-3.08c-9.78-7.3-12.98-12.66-12.98-18.74c0-10.28,8.15-16.46,20.09-16.46
		c3.59,0,7.22,0.52,9.37,1.03c1.73,0.43,2.46,0.43,3.16,0.43c0.73,0,0.93,0.08,0.93,0.6c0,0.42-0.38,3.29-0.38,9.26
		c0,1.35-0.11,1.96-0.74,1.96c-0.61,0-0.73-0.41-0.81-1.15c-0.11-1.01-0.84-3.38-1.35-4.3c-0.61-1.04-3.62-4.33-11.72-4.33
		c-6.58,0-12.05,3.29-12.05,9.46c0,5.55,2.79,8.74,11.73,14.83l2.6,1.74c10.98,7.51,14.8,13.58,14.8,21.1
		c0,5.14-1.96,10.71-8.43,14.91c-3.82,2.48-9.48,3.08-14.42,3.08C2269.67,139.49,2264.4,138.89,2260.7,137.14z"/>
</g>
<g>
	<path class="st3" d="M213.13,149.98c-6.65,0-11.53-1.62-15.36-5.1c-3.76-3.42-5.67-8.12-5.67-13.99c0-3.68,1.38-9.01,5.24-12.91
		c3.37-3.41,8.03-5.07,14.24-5.07c1.11,0,3.98,0.05,6.7,0.56c1.7,0.32,3.17,0.6,4.59,0.68c0.38,0.02,0.54,0.16,0.7,0.34
		c0.16,0.19,0.24,0.43,0.22,0.68c0,0.14-0.02,0.33-0.05,0.6c-0.06,0.43-0.13,1.02-0.18,1.98c-0.05,0.76-0.07,1.77-0.09,2.67
		l-0.01,0.45c-0.01,0.72-0.02,1.33-0.04,1.62l-0.01,0.23c-0.03,0.54-0.06,1.16-0.74,1.19c-0.26,0-0.58-0.1-0.71-0.59
		c-0.07-0.22-0.08-0.5-0.08-0.86c0-1.63-0.75-3.41-1.83-4.33c-1.39-1.21-4.74-2.52-8.8-2.52c-6.14,0.01-8.72,1.85-10.13,3.23
		c-3.48,3.37-3.96,7.8-3.96,11.68c0,8.03,5.97,16.35,15.96,16.37c2.8,0,5.92-0.25,7.74-2.15c0.82-0.87,1.42-2.79,1.56-3.61
		l0.02-0.19c0.05-0.38,0.12-0.9,0.74-0.9c0.75,0.05,0.72,0.84,0.72,1.1c0,0.43-0.55,4.49-1.02,6.11c-0.28,0.94-0.41,1.23-1.37,1.64
		C219.52,149.69,215.87,149.98,213.13,149.98L213.13,149.98L213.13,149.98z"/>
	<path class="st4" d="M213.13,149.98c-6.65,0-11.53-1.62-15.36-5.1c-3.76-3.42-5.67-8.12-5.67-13.99c0-3.68,1.38-9.01,5.24-12.91
		c3.37-3.41,8.03-5.07,14.24-5.07c1.11,0,3.98,0.05,6.7,0.56c1.7,0.32,3.17,0.6,4.59,0.68c0.38,0.02,0.54,0.16,0.7,0.34
		c0.16,0.19,0.24,0.43,0.22,0.68c0,0.14-0.02,0.33-0.05,0.6c-0.06,0.43-0.13,1.02-0.18,1.98c-0.05,0.76-0.07,1.77-0.09,2.67
		l-0.01,0.45c-0.01,0.72-0.02,1.33-0.04,1.62l-0.01,0.23c-0.03,0.54-0.06,1.16-0.74,1.19c-0.26,0-0.58-0.1-0.71-0.59
		c-0.07-0.22-0.08-0.5-0.08-0.86c0-1.63-0.75-3.41-1.83-4.33c-1.39-1.21-4.74-2.52-8.8-2.52c-6.14,0.01-8.72,1.85-10.13,3.23
		c-3.48,3.37-3.96,7.8-3.96,11.68c0,8.03,5.97,16.35,15.96,16.37c2.8,0,5.92-0.25,7.74-2.15c0.82-0.87,1.42-2.79,1.56-3.61
		l0.02-0.19c0.05-0.38,0.12-0.9,0.74-0.9c0.75,0.05,0.72,0.84,0.72,1.1c0,0.43-0.55,4.49-1.02,6.11c-0.28,0.94-0.41,1.23-1.37,1.64
		C219.52,149.69,215.87,149.98,213.13,149.98L213.13,149.98L213.13,149.98z"/>
	<path class="st3" d="M213.13,149.74c-6.59,0-11.42-1.6-15.19-5.04c-3.71-3.37-5.59-8.01-5.59-13.81c0-3.63,1.36-8.89,5.17-12.74
		c3.33-3.37,7.93-5,14.06-5c1.1,0,3.95,0.05,6.66,0.55c1.74,0.33,3.19,0.6,4.62,0.69c0.29,0.01,0.39,0.1,0.54,0.26
		c0.11,0.13,0.17,0.3,0.16,0.49c0,0.15-0.02,0.33-0.05,0.59c-0.05,0.39-0.13,0.99-0.18,2c-0.05,0.89-0.07,2.13-0.09,3.13
		c-0.01,0.72-0.02,1.32-0.04,1.62c-0.04,0.64,0,1.17-0.52,1.19h0c-0.27,0-0.39-0.17-0.45-0.41c-0.06-0.19-0.07-0.45-0.07-0.79
		c0-1.77-0.82-3.58-1.92-4.51c-1.42-1.24-4.84-2.57-8.96-2.57c-6.22,0-8.86,1.88-10.3,3.29c-3.55,3.44-4.03,7.92-4.03,11.85
		c0,8.15,6.06,16.59,16.2,16.61c2.91,0,6.03-0.27,7.92-2.23c0.91-0.96,1.5-2.97,1.62-3.74c0.07-0.46,0.05-0.89,0.52-0.89
		c0.56,0.04,0.47,0.71,0.47,0.93c0,0.35-0.55,4.37-1.01,5.97c-0.27,0.9-0.36,1.11-1.23,1.49
		C219.46,149.45,215.85,149.73,213.13,149.74L213.13,149.74L213.13,149.74z"/>
	<path class="st4" d="M213.13,149.74c-6.59,0-11.42-1.6-15.19-5.04c-3.71-3.37-5.59-8.01-5.59-13.81c0-3.63,1.36-8.89,5.17-12.74
		c3.33-3.37,7.93-5,14.06-5c1.1,0,3.95,0.05,6.66,0.55c1.74,0.33,3.19,0.6,4.62,0.69c0.29,0.01,0.39,0.1,0.54,0.26
		c0.11,0.13,0.17,0.3,0.16,0.49c0,0.15-0.02,0.33-0.05,0.59c-0.05,0.39-0.13,0.99-0.18,2c-0.05,0.89-0.07,2.13-0.09,3.13
		c-0.01,0.72-0.02,1.32-0.04,1.62c-0.04,0.64,0,1.17-0.52,1.19h0c-0.27,0-0.39-0.17-0.45-0.41c-0.06-0.19-0.07-0.45-0.07-0.79
		c0-1.77-0.82-3.58-1.92-4.51c-1.42-1.24-4.84-2.57-8.96-2.57c-6.22,0-8.86,1.88-10.3,3.29c-3.55,3.44-4.03,7.92-4.03,11.85
		c0,8.15,6.06,16.59,16.2,16.61c2.91,0,6.03-0.27,7.92-2.23c0.91-0.96,1.5-2.97,1.62-3.74c0.07-0.46,0.05-0.89,0.52-0.89
		c0.56,0.04,0.47,0.71,0.47,0.93c0,0.35-0.55,4.37-1.01,5.97c-0.27,0.9-0.36,1.11-1.23,1.49
		C219.46,149.45,215.85,149.73,213.13,149.74L213.13,149.74L213.13,149.74z"/>
	<path class="st3" d="M242.29,120.29c-6.73,0-10.91,4.78-10.91,12.49c0,8.61,4.94,14.62,12,14.62c1.72,0,10.28-0.63,10.28-13.04
		C253.66,124.7,247.77,120.29,242.29,120.29L242.29,120.29L242.29,120.29z M242.33,149.87c-10.73,0-15.62-8.29-15.62-15.98
		c0-6.15,4.3-15.9,15.85-15.9c9.46,0,15.82,6.14,15.82,15.27C258.37,142.88,251.63,149.87,242.33,149.87L242.33,149.87
		L242.33,149.87z"/>
	<path class="st4" d="M242.29,120.29c-6.73,0-10.91,4.78-10.91,12.49c0,8.61,4.94,14.62,12,14.62c1.72,0,10.28-0.63,10.28-13.04
		C253.66,124.7,247.77,120.29,242.29,120.29L242.29,120.29L242.29,120.29z M242.33,149.87c-10.73,0-15.62-8.29-15.62-15.98
		c0-6.15,4.3-15.9,15.85-15.9c9.46,0,15.82,6.14,15.82,15.27C258.37,142.88,251.63,149.87,242.33,149.87L242.33,149.87
		L242.33,149.87z"/>
	<path class="st3" d="M242.28,120.05c-6.88,0-11.15,4.88-11.15,12.73c0,8.75,5.03,14.86,12.24,14.86c1.76,0,10.53-0.64,10.53-13.29
		C253.91,124.53,247.88,120.05,242.28,120.05L242.28,120.05L242.28,120.05z M242.33,149.63c-10.56,0-15.38-8.16-15.38-15.74
		c0-6.05,4.24-15.66,15.61-15.66c9.31,0,15.57,6.04,15.57,15.03C258.13,142.74,251.48,149.63,242.33,149.63L242.33,149.63
		L242.33,149.63z"/>
	<path class="st4" d="M242.28,120.05c-6.88,0-11.15,4.88-11.15,12.73c0,8.75,5.03,14.86,12.24,14.86c1.76,0,10.53-0.64,10.53-13.29
		C253.91,124.53,247.88,120.05,242.28,120.05L242.28,120.05L242.28,120.05z M242.33,149.63c-10.56,0-15.38-8.16-15.38-15.74
		c0-6.05,4.24-15.66,15.61-15.66c9.31,0,15.57,6.04,15.57,15.03C258.13,142.74,251.48,149.63,242.33,149.63L242.33,149.63
		L242.33,149.63z"/>
	<path class="st3" d="M301.68,149.44c-0.1,0-0.2,0-0.31,0c-3.51,0-5.83-0.09-7.52-0.16c-0.51-0.02-0.97-0.05-1.41-0.09
		c-0.53-0.04-1.02-0.08-1.5-0.08c-0.12,0-0.48,0.01-0.94,0.03c-0.88,0.04-2.12,0.08-2.89,0.08l-0.22,0.01
		c-0.77,0-0.89-0.45-0.89-0.71c0-0.29,0.21-0.63,0.8-0.63c0.36,0,0.87-0.1,1.07-0.15c0.43-0.08,0.6-0.79,0.75-1.85
		c0.19-1.61,0.19-4.65,0.19-8.49v-6.94c0-6.14,0-7.24-0.07-8.48c-0.09-1.23-0.29-1.68-1.3-1.91c-0.27-0.07-0.87-0.11-1.19-0.11
		c-0.67,0-0.82-0.33-0.83-0.6c0-0.69,0.72-0.69,1.11-0.69c1.33,0,3.08,0.06,3.92,0.09c0.27,0.01,0.44,0.02,0.49,0.02l0.21-0.01
		l0.5-0.02c0.97-0.03,2.67-0.09,3.51-0.09c0.39,0,1.11,0,1.11,0.68c0,0.23-0.11,0.62-0.79,0.62c-0.26,0-0.78,0.04-1.21,0.11
		c-0.7,0.13-1.01,0.42-1.12,1.91c-0.08,1.23-0.08,2.34-0.08,8.48v7.02c-0.01,4.15,0.08,8.07,0.71,8.68
		c0.47,0.49,1.33,0.76,4.31,0.76h0.22c1.91,0,3.54-0.07,4.29-0.99c0.42-0.52,0.81-1.42,0.92-2.13c0.04-0.43,0.16-0.93,0.7-0.93
		c0.2,0,0.46,0.08,0.57,0.48c0.05,0.13,0.04,0.29,0.04,0.46v0.14c0,0.46-0.27,2.87-0.6,4.07
		C303.89,149.13,303.54,149.44,301.68,149.44L301.68,149.44L301.68,149.44z"/>
	<path class="st4" d="M301.68,149.44c-0.1,0-0.2,0-0.31,0c-3.51,0-5.83-0.09-7.52-0.16c-0.51-0.02-0.97-0.05-1.41-0.09
		c-0.53-0.04-1.02-0.08-1.5-0.08c-0.12,0-0.48,0.01-0.94,0.03c-0.88,0.04-2.12,0.08-2.89,0.08l-0.22,0.01
		c-0.77,0-0.89-0.45-0.89-0.71c0-0.29,0.21-0.63,0.8-0.63c0.36,0,0.87-0.1,1.07-0.15c0.43-0.08,0.6-0.79,0.75-1.85
		c0.19-1.61,0.19-4.65,0.19-8.49v-6.94c0-6.14,0-7.24-0.07-8.48c-0.09-1.23-0.29-1.68-1.3-1.91c-0.27-0.07-0.87-0.11-1.19-0.11
		c-0.67,0-0.82-0.33-0.83-0.6c0-0.69,0.72-0.69,1.11-0.69c1.33,0,3.08,0.06,3.92,0.09c0.27,0.01,0.44,0.02,0.49,0.02l0.21-0.01
		l0.5-0.02c0.97-0.03,2.67-0.09,3.51-0.09c0.39,0,1.11,0,1.11,0.68c0,0.23-0.11,0.62-0.79,0.62c-0.26,0-0.78,0.04-1.21,0.11
		c-0.7,0.13-1.01,0.42-1.12,1.91c-0.08,1.23-0.08,2.34-0.08,8.48v7.02c-0.01,4.15,0.08,8.07,0.71,8.68
		c0.47,0.49,1.33,0.76,4.31,0.76h0.22c1.91,0,3.54-0.07,4.29-0.99c0.42-0.52,0.81-1.42,0.92-2.13c0.04-0.43,0.16-0.93,0.7-0.93
		c0.2,0,0.46,0.08,0.57,0.48c0.05,0.13,0.04,0.29,0.04,0.46v0.14c0,0.46-0.27,2.87-0.6,4.07
		C303.89,149.13,303.54,149.44,301.68,149.44L301.68,149.44L301.68,149.44z"/>
	<path class="st3" d="M301.68,149.19c-0.09,0-0.2,0-0.3,0c-3.44,0-5.7-0.09-7.52-0.16c-1.13-0.04-2.05-0.17-2.92-0.17
		c-0.12,0-0.48,0.01-0.95,0.03c-0.87,0.04-2.11,0.08-2.88,0.08c-0.21,0-0.86,0.09-0.86-0.47c0-0.23,0.19-0.38,0.55-0.38
		c0.36,0,0.86-0.1,1.12-0.15c0.58-0.11,0.78-0.9,0.94-2.06c0.2-1.63,0.2-4.67,0.2-8.53v-6.94c0-6.15,0-7.25-0.08-8.5
		c-0.09-1.29-0.32-1.87-1.49-2.13c-0.28-0.08-0.92-0.12-1.24-0.12c-0.3,0-0.57-0.06-0.58-0.37c0-0.37,0.29-0.44,0.87-0.44
		c1.33,0,3.08,0.06,3.91,0.1c0.27,0.01,0.45,0.02,0.5,0.02c0.05,0,0.32-0.01,0.71-0.02c0.97-0.03,2.67-0.09,3.5-0.09
		c0.57,0,0.87,0.07,0.87,0.44c0,0.31-0.28,0.37-0.55,0.37c-0.28,0-0.82,0.04-1.25,0.12c-0.94,0.17-1.22,0.71-1.32,2.13
		c-0.08,1.24-0.08,2.35-0.08,8.5v7.02c-0.01,4.99,0.12,8.22,0.79,8.86c0.53,0.54,1.4,0.83,4.48,0.83h0.22
		c1.96,0,3.66-0.08,4.48-1.09c0.44-0.55,0.85-1.5,0.96-2.25c0.06-0.59,0.22-0.72,0.46-0.72h0c0.2,0,0.28,0.13,0.33,0.3
		c0.05,0.14,0.03,0.32,0.03,0.53c0,0.46-0.27,2.83-0.59,4.01C303.7,148.93,303.48,149.19,301.68,149.19L301.68,149.19L301.68,149.19
		z"/>
	<path class="st4" d="M301.68,149.19c-0.09,0-0.2,0-0.3,0c-3.44,0-5.7-0.09-7.52-0.16c-1.13-0.04-2.05-0.17-2.92-0.17
		c-0.12,0-0.48,0.01-0.95,0.03c-0.87,0.04-2.11,0.08-2.88,0.08c-0.21,0-0.86,0.09-0.86-0.47c0-0.23,0.19-0.38,0.55-0.38
		c0.36,0,0.86-0.1,1.12-0.15c0.58-0.11,0.78-0.9,0.94-2.06c0.2-1.63,0.2-4.67,0.2-8.53v-6.94c0-6.15,0-7.25-0.08-8.5
		c-0.09-1.29-0.32-1.87-1.49-2.13c-0.28-0.08-0.92-0.12-1.24-0.12c-0.3,0-0.57-0.06-0.58-0.37c0-0.37,0.29-0.44,0.87-0.44
		c1.33,0,3.08,0.06,3.91,0.1c0.27,0.01,0.45,0.02,0.5,0.02c0.05,0,0.32-0.01,0.71-0.02c0.97-0.03,2.67-0.09,3.5-0.09
		c0.57,0,0.87,0.07,0.87,0.44c0,0.31-0.28,0.37-0.55,0.37c-0.28,0-0.82,0.04-1.25,0.12c-0.94,0.17-1.22,0.71-1.32,2.13
		c-0.08,1.24-0.08,2.35-0.08,8.5v7.02c-0.01,4.99,0.12,8.22,0.79,8.86c0.53,0.54,1.4,0.83,4.48,0.83h0.22
		c1.96,0,3.66-0.08,4.48-1.09c0.44-0.55,0.85-1.5,0.96-2.25c0.06-0.59,0.22-0.72,0.46-0.72h0c0.2,0,0.28,0.13,0.33,0.3
		c0.05,0.14,0.03,0.32,0.03,0.53c0,0.46-0.27,2.83-0.59,4.01C303.7,148.93,303.48,149.19,301.68,149.19L301.68,149.19L301.68,149.19
		z"/>
	<path class="st3" d="M278.49,149.44c-0.1,0-0.2,0-0.32,0c-3.51,0-5.83-0.09-7.52-0.16c-0.51-0.02-0.97-0.05-1.41-0.09
		c-0.53-0.04-1.02-0.08-1.5-0.08c-0.12,0-0.47,0.01-0.94,0.03c-0.88,0.04-2.12,0.08-2.89,0.08l-0.22,0.01
		c-0.77,0-0.89-0.45-0.89-0.71c0-0.29,0.21-0.63,0.8-0.63c0.3,0,0.75-0.08,1.07-0.15c0.43-0.08,0.61-0.8,0.75-1.85
		c0.2-1.61,0.2-4.65,0.2-8.49v-6.94c0-6.14,0-7.25-0.08-8.49c-0.09-1.25-0.28-1.68-1.3-1.91c-0.26-0.07-0.87-0.11-1.19-0.11
		c-0.66,0-0.81-0.33-0.83-0.6c0-0.7,0.73-0.7,1.11-0.7c1.28,0,2.95,0.06,3.82,0.09c0.37,0.01,0.54,0.02,0.59,0.02l0.21-0.01
		l0.5-0.02l0.13-0.01c0.99-0.03,2.58-0.09,3.38-0.09c0.39,0,1.1,0,1.11,0.68c0,0.23-0.11,0.62-0.79,0.62
		c-0.25,0-0.78,0.04-1.21,0.11c-0.7,0.13-1.01,0.42-1.11,1.91c-0.08,1.23-0.08,2.34-0.08,8.48v7.02c-0.01,4.14,0.08,8.07,0.71,8.68
		c0.48,0.48,1.34,0.76,4.31,0.76h0.22c1.9,0,3.54-0.07,4.29-0.99c0.41-0.51,0.8-1.43,0.91-2.14c0.04-0.42,0.16-0.93,0.7-0.93
		c0.29,0,0.48,0.16,0.57,0.48c0.05,0.13,0.04,0.28,0.04,0.45v0.15c0,0.45-0.26,2.83-0.61,4.08
		C280.71,149.13,280.36,149.44,278.49,149.44L278.49,149.44L278.49,149.44z"/>
	<path class="st4" d="M278.49,149.44c-0.1,0-0.2,0-0.32,0c-3.51,0-5.83-0.09-7.52-0.16c-0.51-0.02-0.97-0.05-1.41-0.09
		c-0.53-0.04-1.02-0.08-1.5-0.08c-0.12,0-0.47,0.01-0.94,0.03c-0.88,0.04-2.12,0.08-2.89,0.08l-0.22,0.01
		c-0.77,0-0.89-0.45-0.89-0.71c0-0.29,0.21-0.63,0.8-0.63c0.3,0,0.75-0.08,1.07-0.15c0.43-0.08,0.61-0.8,0.75-1.85
		c0.2-1.61,0.2-4.65,0.2-8.49v-6.94c0-6.14,0-7.25-0.08-8.49c-0.09-1.25-0.28-1.68-1.3-1.91c-0.26-0.07-0.87-0.11-1.19-0.11
		c-0.66,0-0.81-0.33-0.83-0.6c0-0.7,0.73-0.7,1.11-0.7c1.28,0,2.95,0.06,3.82,0.09c0.37,0.01,0.54,0.02,0.59,0.02l0.21-0.01
		l0.5-0.02l0.13-0.01c0.99-0.03,2.58-0.09,3.38-0.09c0.39,0,1.1,0,1.11,0.68c0,0.23-0.11,0.62-0.79,0.62
		c-0.25,0-0.78,0.04-1.21,0.11c-0.7,0.13-1.01,0.42-1.11,1.91c-0.08,1.23-0.08,2.34-0.08,8.48v7.02c-0.01,4.14,0.08,8.07,0.71,8.68
		c0.48,0.48,1.34,0.76,4.31,0.76h0.22c1.9,0,3.54-0.07,4.29-0.99c0.41-0.51,0.8-1.43,0.91-2.14c0.04-0.42,0.16-0.93,0.7-0.93
		c0.29,0,0.48,0.16,0.57,0.48c0.05,0.13,0.04,0.28,0.04,0.45v0.15c0,0.45-0.26,2.83-0.61,4.08
		C280.71,149.13,280.36,149.44,278.49,149.44L278.49,149.44L278.49,149.44z"/>
	<path class="st3" d="M278.49,149.19c-0.1,0-0.2,0-0.3,0c-3.44,0-5.7-0.09-7.53-0.16c-1.13-0.04-2.05-0.17-2.92-0.17
		c-0.12,0-0.48,0.01-0.95,0.03c-0.87,0.04-2.11,0.08-2.87,0.08c-0.21,0-0.86,0.09-0.86-0.47c0-0.23,0.19-0.38,0.55-0.38
		c0.36,0,0.86-0.1,1.12-0.15c0.58-0.11,0.78-0.9,0.94-2.06c0.2-1.63,0.2-4.67,0.2-8.53v-6.94c0-6.15,0-7.25-0.08-8.5
		c-0.09-1.29-0.31-1.87-1.49-2.13c-0.28-0.08-0.92-0.12-1.25-0.12c-0.29,0-0.57-0.06-0.58-0.37c0-0.37,0.3-0.44,0.86-0.44
		c1.33,0,3.07,0.06,3.91,0.1c0.28,0.01,0.45,0.02,0.5,0.02c0.05,0,0.32-0.01,0.71-0.02c0.97-0.03,2.67-0.09,3.5-0.09
		c0.57,0,0.86,0.07,0.86,0.44c0,0.31-0.28,0.37-0.55,0.37c-0.27,0-0.81,0.04-1.25,0.12c-0.94,0.17-1.22,0.71-1.32,2.13
		c-0.08,1.24-0.08,2.35-0.08,8.5v7.02c-0.01,4.99,0.12,8.22,0.78,8.86c0.53,0.54,1.4,0.83,4.48,0.83h0.22
		c1.96,0,3.66-0.08,4.48-1.09c0.44-0.55,0.85-1.5,0.96-2.25c0.06-0.59,0.22-0.72,0.46-0.72h0c0.2,0,0.28,0.13,0.33,0.3
		c0.05,0.14,0.03,0.32,0.03,0.53c0,0.46-0.27,2.83-0.6,4.01C280.51,148.93,280.29,149.19,278.49,149.19L278.49,149.19L278.49,149.19
		z"/>
	<path class="st4" d="M278.49,149.19c-0.1,0-0.2,0-0.3,0c-3.44,0-5.7-0.09-7.53-0.16c-1.13-0.04-2.05-0.17-2.92-0.17
		c-0.12,0-0.48,0.01-0.95,0.03c-0.87,0.04-2.11,0.08-2.87,0.08c-0.21,0-0.86,0.09-0.86-0.47c0-0.23,0.19-0.38,0.55-0.38
		c0.36,0,0.86-0.1,1.12-0.15c0.58-0.11,0.78-0.9,0.94-2.06c0.2-1.63,0.2-4.67,0.2-8.53v-6.94c0-6.15,0-7.25-0.08-8.5
		c-0.09-1.29-0.31-1.87-1.49-2.13c-0.28-0.08-0.92-0.12-1.25-0.12c-0.29,0-0.57-0.06-0.58-0.37c0-0.37,0.3-0.44,0.86-0.44
		c1.33,0,3.07,0.06,3.91,0.1c0.28,0.01,0.45,0.02,0.5,0.02c0.05,0,0.32-0.01,0.71-0.02c0.97-0.03,2.67-0.09,3.5-0.09
		c0.57,0,0.86,0.07,0.86,0.44c0,0.31-0.28,0.37-0.55,0.37c-0.27,0-0.81,0.04-1.25,0.12c-0.94,0.17-1.22,0.71-1.32,2.13
		c-0.08,1.24-0.08,2.35-0.08,8.5v7.02c-0.01,4.99,0.12,8.22,0.78,8.86c0.53,0.54,1.4,0.83,4.48,0.83h0.22
		c1.96,0,3.66-0.08,4.48-1.09c0.44-0.55,0.85-1.5,0.96-2.25c0.06-0.59,0.22-0.72,0.46-0.72h0c0.2,0,0.28,0.13,0.33,0.3
		c0.05,0.14,0.03,0.32,0.03,0.53c0,0.46-0.27,2.83-0.6,4.01C280.51,148.93,280.29,149.19,278.49,149.19L278.49,149.19L278.49,149.19
		z"/>
	<path class="st3" d="M349.24,149.87c-5.47,0-9.9-1.46-13.16-4.34c-2.22-1.94-4.8-6.15-4.81-11.6c0-5.7,2.52-10.7,6.74-13.38
		c3.6-2.27,7.58-2.56,10.64-2.56c2.88,0,6.04,0.68,6.07,0.68c0.74,0.17,2.06,0.34,3.08,0.38c0.36,0.02,0.49,0.15,0.61,0.29
		c0.16,0.18,0.23,0.37,0.21,0.57c0,0.15-0.02,0.35-0.06,0.66c-0.08,0.73-0.22,2.08-0.22,4.92v0.19c0,0.23,0,0.4-0.06,0.61
		c-0.09,0.34-0.3,0.52-0.6,0.52c-0.6-0.05-0.64-0.53-0.66-0.82l-0.01-0.15c-0.03-0.34-0.15-1.48-0.75-2.44
		c-0.95-1.48-4.31-2.97-8.89-2.97c-2.57,0-5.32,0.3-8.06,2.5c-2.31,1.84-3.69,5.45-3.69,9.64c0,5.26,2.61,9.22,3.99,10.57
		c2.75,2.71,6.07,4.08,9.88,4.08c1.39,0,3.31-0.24,4.21-0.76c0.38-0.22,0.53-0.48,0.54-0.96v-6.7c-0.03-3.32-0.21-3.37-1.4-3.72
		c-0.21-0.06-0.82-0.1-1.2-0.1c-0.38,0-0.79-0.24-0.79-0.59c0-0.49,0.39-0.74,1.17-0.74c1.34,0,3.07,0.07,3.91,0.1l0.21,0.01
		l0.29,0.01c0.05,0,0.28-0.01,0.62-0.02c0.88-0.03,2.36-0.09,3.2-0.09c0.31,0,1.04,0,1.04,0.74c0,0.39-0.41,0.6-0.79,0.6
		c-0.23,0-0.43,0.03-0.89,0.11c-0.63,0.12-0.95,0.44-1.05,1.92c-0.08,1.25-0.08,2.43-0.08,4.07v4.41c0.01,1.77-0.05,2.15-0.75,2.56
		C355.22,149.38,351.69,149.87,349.24,149.87L349.24,149.87L349.24,149.87z"/>
	<path class="st4" d="M349.24,149.87c-5.47,0-9.9-1.46-13.16-4.34c-2.22-1.94-4.8-6.15-4.81-11.6c0-5.7,2.52-10.7,6.74-13.38
		c3.6-2.27,7.58-2.56,10.64-2.56c2.88,0,6.04,0.68,6.07,0.68c0.74,0.17,2.06,0.34,3.08,0.38c0.36,0.02,0.49,0.15,0.61,0.29
		c0.16,0.18,0.23,0.37,0.21,0.57c0,0.15-0.02,0.35-0.06,0.66c-0.08,0.73-0.22,2.08-0.22,4.92v0.19c0,0.23,0,0.4-0.06,0.61
		c-0.09,0.34-0.3,0.52-0.6,0.52c-0.6-0.05-0.64-0.53-0.66-0.82l-0.01-0.15c-0.03-0.34-0.15-1.48-0.75-2.44
		c-0.95-1.48-4.31-2.97-8.89-2.97c-2.57,0-5.32,0.3-8.06,2.5c-2.31,1.84-3.69,5.45-3.69,9.64c0,5.26,2.61,9.22,3.99,10.57
		c2.75,2.71,6.07,4.08,9.88,4.08c1.39,0,3.31-0.24,4.21-0.76c0.38-0.22,0.53-0.48,0.54-0.96v-6.7c-0.03-3.32-0.21-3.37-1.4-3.72
		c-0.21-0.06-0.82-0.1-1.2-0.1c-0.38,0-0.79-0.24-0.79-0.59c0-0.49,0.39-0.74,1.17-0.74c1.34,0,3.07,0.07,3.91,0.1l0.21,0.01
		l0.29,0.01c0.05,0,0.28-0.01,0.62-0.02c0.88-0.03,2.36-0.09,3.2-0.09c0.31,0,1.04,0,1.04,0.74c0,0.39-0.41,0.6-0.79,0.6
		c-0.23,0-0.43,0.03-0.89,0.11c-0.63,0.12-0.95,0.44-1.05,1.92c-0.08,1.25-0.08,2.43-0.08,4.07v4.41c0.01,1.77-0.05,2.15-0.75,2.56
		C355.22,149.38,351.69,149.87,349.24,149.87L349.24,149.87L349.24,149.87z"/>
	<path class="st3" d="M349.24,149.62c-5.41,0-9.78-1.44-13-4.28c-2.18-1.91-4.72-6.05-4.72-11.42c0-5.62,2.48-10.54,6.63-13.18
		c3.55-2.23,7.48-2.52,10.5-2.52c2.81,0,5.89,0.65,6.02,0.67c0.75,0.18,2.09,0.35,3.12,0.39c0.31,0.02,0.37,0.14,0.46,0.23
		c0.09,0.1,0.14,0.23,0.13,0.37c0,0.16-0.02,0.36-0.05,0.64c-0.08,0.73-0.22,2.09-0.22,4.95c0,0.33,0.02,0.51-0.04,0.73
		c-0.06,0.2-0.14,0.33-0.36,0.33c-0.44-0.03-0.39-0.42-0.43-0.76c-0.02-0.29-0.14-1.5-0.79-2.54c-0.96-1.49-4.32-3.09-9.09-3.09
		c-2.62,0-5.42,0.31-8.22,2.55c-2.37,1.89-3.78,5.56-3.78,9.83c0,5.35,2.66,9.37,4.06,10.75c2.79,2.76,6.17,4.15,10.05,4.15
		c1.45,0,3.39-0.25,4.33-0.8c0.46-0.25,0.65-0.6,0.66-1.17v-6.7c-0.03-3.27-0.18-3.55-1.58-3.95c-0.27-0.07-0.92-0.11-1.27-0.11
		c-0.27,0-0.55-0.16-0.55-0.35c0-0.37,0.36-0.49,0.93-0.49c1.32,0,3.06,0.07,3.9,0.1c0.28,0.01,0.47,0.02,0.51,0.02
		c0.05,0,0.29-0.01,0.63-0.03c0.88-0.03,2.35-0.09,3.19-0.09c0.57,0,0.8,0.12,0.8,0.49c0,0.22-0.28,0.35-0.55,0.35
		c-0.26,0-0.47,0.04-0.93,0.12c-0.88,0.17-1.16,0.75-1.25,2.15c-0.08,1.25-0.08,2.44-0.08,4.09v4.42c0.01,1.77-0.05,2.01-0.63,2.34
		C355.15,149.15,351.67,149.62,349.24,149.62L349.24,149.62L349.24,149.62z"/>
	<path class="st4" d="M349.24,149.62c-5.41,0-9.78-1.44-13-4.28c-2.18-1.91-4.72-6.05-4.72-11.42c0-5.62,2.48-10.54,6.63-13.18
		c3.55-2.23,7.48-2.52,10.5-2.52c2.81,0,5.89,0.65,6.02,0.67c0.75,0.18,2.09,0.35,3.12,0.39c0.31,0.02,0.37,0.14,0.46,0.23
		c0.09,0.1,0.14,0.23,0.13,0.37c0,0.16-0.02,0.36-0.05,0.64c-0.08,0.73-0.22,2.09-0.22,4.95c0,0.33,0.02,0.51-0.04,0.73
		c-0.06,0.2-0.14,0.33-0.36,0.33c-0.44-0.03-0.39-0.42-0.43-0.76c-0.02-0.29-0.14-1.5-0.79-2.54c-0.96-1.49-4.32-3.09-9.09-3.09
		c-2.62,0-5.42,0.31-8.22,2.55c-2.37,1.89-3.78,5.56-3.78,9.83c0,5.35,2.66,9.37,4.06,10.75c2.79,2.76,6.17,4.15,10.05,4.15
		c1.45,0,3.39-0.25,4.33-0.8c0.46-0.25,0.65-0.6,0.66-1.17v-6.7c-0.03-3.27-0.18-3.55-1.58-3.95c-0.27-0.07-0.92-0.11-1.27-0.11
		c-0.27,0-0.55-0.16-0.55-0.35c0-0.37,0.36-0.49,0.93-0.49c1.32,0,3.06,0.07,3.9,0.1c0.28,0.01,0.47,0.02,0.51,0.02
		c0.05,0,0.29-0.01,0.63-0.03c0.88-0.03,2.35-0.09,3.19-0.09c0.57,0,0.8,0.12,0.8,0.49c0,0.22-0.28,0.35-0.55,0.35
		c-0.26,0-0.47,0.04-0.93,0.12c-0.88,0.17-1.16,0.75-1.25,2.15c-0.08,1.25-0.08,2.44-0.08,4.09v4.42c0.01,1.77-0.05,2.01-0.63,2.34
		C355.15,149.15,351.67,149.62,349.24,149.62L349.24,149.62L349.24,149.62z"/>
	<path class="st3" d="M190.47,106.48L190.47,106.48l-0.32,0c-3.99,0-6.63-0.1-8.76-0.18c-1.38-0.05-2.43-0.09-3.45-0.09
		c-0.14,0-0.56,0.02-1.1,0.04c-1.09,0.05-2.48,0.1-3.35,0.1c-0.18,0.01-0.27,0.02-0.35,0.02c-0.22,0-0.4-0.04-0.54-0.12
		c-0.15-0.08-0.32-0.26-0.32-0.6c0-0.23,0.11-0.61,0.85-0.62c0.31,0,0.78-0.06,1.26-0.17c0.58-0.11,0.79-1.31,0.95-2.42
		c0.22-1.89,0.22-5.44,0.22-9.93v-8.11c0-7.17,0-8.46-0.09-9.92c-0.1-1.49-0.34-2.04-1.59-2.32c-0.3-0.08-1.04-0.13-1.44-0.13
		c-0.41,0-0.85-0.3-0.85-0.79c0-0.45,0.37-0.68,1.11-0.68c1.62,0,3.56,0.08,4.61,0.12l0.36,0.01l0.28,0.01c0.03,0,0.16,0,0.34-0.01
		l0.48-0.02l0.17-0.01c1.18-0.04,2.99-0.11,3.93-0.11h0.15c0.87,0,1.06,0.37,1.06,0.68c0,0.5-0.43,0.79-0.85,0.79
		c-0.31,0-0.92,0.05-1.43,0.13c-0.94,0.17-1.26,0.71-1.36,2.32c-0.09,1.46-0.09,2.75-0.09,9.92v8.2c-0.01,4.52,0.05,9.41,0.85,10.2
		c0.59,0.59,1.58,0.91,5.09,0.91h0.22c2.25,0,4.05-0.09,4.95-1.2c0.54-0.66,1.05-1.76,1.16-2.52c0.03-0.29,0.1-1.01,0.8-1.02
		c0.3,0,0.54,0.21,0.64,0.55c0.06,0.16,0.07,0.36,0.07,0.67c0,0.57-0.28,3.31-0.66,4.69C193.13,106.19,192.59,106.48,190.47,106.48
		L190.47,106.48L190.47,106.48z"/>
	<path class="st4" d="M190.47,106.48L190.47,106.48l-0.32,0c-3.99,0-6.63-0.1-8.76-0.18c-1.38-0.05-2.43-0.09-3.45-0.09
		c-0.14,0-0.56,0.02-1.1,0.04c-1.09,0.05-2.48,0.1-3.35,0.1c-0.18,0.01-0.27,0.02-0.35,0.02c-0.22,0-0.4-0.04-0.54-0.12
		c-0.15-0.08-0.32-0.26-0.32-0.6c0-0.23,0.11-0.61,0.85-0.62c0.31,0,0.78-0.06,1.26-0.17c0.58-0.11,0.79-1.31,0.95-2.42
		c0.22-1.89,0.22-5.44,0.22-9.93v-8.11c0-7.17,0-8.46-0.09-9.92c-0.1-1.49-0.34-2.04-1.59-2.32c-0.3-0.08-1.04-0.13-1.44-0.13
		c-0.41,0-0.85-0.3-0.85-0.79c0-0.45,0.37-0.68,1.11-0.68c1.62,0,3.56,0.08,4.61,0.12l0.36,0.01l0.28,0.01c0.03,0,0.16,0,0.34-0.01
		l0.48-0.02l0.17-0.01c1.18-0.04,2.99-0.11,3.93-0.11h0.15c0.87,0,1.06,0.37,1.06,0.68c0,0.5-0.43,0.79-0.85,0.79
		c-0.31,0-0.92,0.05-1.43,0.13c-0.94,0.17-1.26,0.71-1.36,2.32c-0.09,1.46-0.09,2.75-0.09,9.92v8.2c-0.01,4.52,0.05,9.41,0.85,10.2
		c0.59,0.59,1.58,0.91,5.09,0.91h0.22c2.25,0,4.05-0.09,4.95-1.2c0.54-0.66,1.05-1.76,1.16-2.52c0.03-0.29,0.1-1.01,0.8-1.02
		c0.3,0,0.54,0.21,0.64,0.55c0.06,0.16,0.07,0.36,0.07,0.67c0,0.57-0.28,3.31-0.66,4.69C193.13,106.19,192.59,106.48,190.47,106.48
		L190.47,106.48L190.47,106.48z"/>
	<path class="st3" d="M190.47,106.23l-0.32,0c-4.02,0-6.67-0.1-8.79-0.18c-1.34-0.05-2.4-0.09-3.42-0.09
		c-0.14,0-0.56,0.02-1.11,0.04c-1.04,0.04-2.45,0.1-3.35,0.1c-0.24,0-0.97,0.15-0.97-0.46c0-0.26,0.21-0.37,0.61-0.38
		c0.34,0,0.82-0.06,1.31-0.17c0.7-0.13,0.94-1.22,1.14-2.63c0.23-1.91,0.23-5.46,0.23-9.96v-8.11c0-7.17,0-8.47-0.09-9.94
		c-0.1-1.52-0.37-2.23-1.78-2.55c-0.33-0.09-1.09-0.13-1.49-0.13c-0.3,0-0.6-0.21-0.6-0.55c0-0.47,0.73-0.44,0.97-0.44
		c1.55,0,3.59,0.08,4.57,0.12c0.31,0.01,0.52,0.02,0.57,0.02c0.06,0,0.38-0.01,0.83-0.03c1.16-0.04,3.11-0.12,4.09-0.12
		c0.24,0,0.97-0.05,0.97,0.44c0,0.34-0.31,0.55-0.6,0.55c-0.33,0-0.95,0.05-1.47,0.13c-1.11,0.2-1.46,0.88-1.57,2.55
		c-0.1,1.47-0.1,2.76-0.1,9.94v8.2c-0.01,5.98,0.14,9.6,0.93,10.38c0.63,0.64,1.66,0.98,5.27,0.98h0.22c2.32,0,4.17-0.09,5.14-1.29
		c0.59-0.72,1.1-1.87,1.22-2.64c0.05-0.53,0.19-0.8,0.56-0.81c0.22,0,0.35,0.18,0.41,0.37c0.05,0.14,0.06,0.32,0.07,0.61
		c0,0.53-0.27,3.24-0.64,4.62C192.94,105.95,192.58,106.23,190.47,106.23L190.47,106.23L190.47,106.23z"/>
	<path class="st4" d="M190.47,106.23l-0.32,0c-4.02,0-6.67-0.1-8.79-0.18c-1.34-0.05-2.4-0.09-3.42-0.09
		c-0.14,0-0.56,0.02-1.11,0.04c-1.04,0.04-2.45,0.1-3.35,0.1c-0.24,0-0.97,0.15-0.97-0.46c0-0.26,0.21-0.37,0.61-0.38
		c0.34,0,0.82-0.06,1.31-0.17c0.7-0.13,0.94-1.22,1.14-2.63c0.23-1.91,0.23-5.46,0.23-9.96v-8.11c0-7.17,0-8.47-0.09-9.94
		c-0.1-1.52-0.37-2.23-1.78-2.55c-0.33-0.09-1.09-0.13-1.49-0.13c-0.3,0-0.6-0.21-0.6-0.55c0-0.47,0.73-0.44,0.97-0.44
		c1.55,0,3.59,0.08,4.57,0.12c0.31,0.01,0.52,0.02,0.57,0.02c0.06,0,0.38-0.01,0.83-0.03c1.16-0.04,3.11-0.12,4.09-0.12
		c0.24,0,0.97-0.05,0.97,0.44c0,0.34-0.31,0.55-0.6,0.55c-0.33,0-0.95,0.05-1.47,0.13c-1.11,0.2-1.46,0.88-1.57,2.55
		c-0.1,1.47-0.1,2.76-0.1,9.94v8.2c-0.01,5.98,0.14,9.6,0.93,10.38c0.63,0.64,1.66,0.98,5.27,0.98h0.22c2.32,0,4.17-0.09,5.14-1.29
		c0.59-0.72,1.1-1.87,1.22-2.64c0.05-0.53,0.19-0.8,0.56-0.81c0.22,0,0.35,0.18,0.41,0.37c0.05,0.14,0.06,0.32,0.07,0.61
		c0,0.53-0.27,3.24-0.64,4.62C192.94,105.95,192.58,106.23,190.47,106.23L190.47,106.23L190.47,106.23z"/>
	<path class="st3" d="M212.48,77.29c-6.73,0-10.91,4.79-10.91,12.49c0,8.61,4.94,14.62,12,14.62c1.71,0,10.28-0.63,10.28-13.04
		C223.85,81.69,217.95,77.29,212.48,77.29L212.48,77.29L212.48,77.29z M212.52,106.87c-10.73,0-15.62-8.28-15.62-15.98
		c0-6.15,4.3-15.9,15.85-15.9c9.46,0,15.81,6.14,15.81,15.27C228.56,99.88,221.81,106.87,212.52,106.87L212.52,106.87L212.52,106.87
		z"/>
	<path class="st4" d="M212.48,77.29c-6.73,0-10.91,4.79-10.91,12.49c0,8.61,4.94,14.62,12,14.62c1.71,0,10.28-0.63,10.28-13.04
		C223.85,81.69,217.95,77.29,212.48,77.29L212.48,77.29L212.48,77.29z M212.52,106.87c-10.73,0-15.62-8.28-15.62-15.98
		c0-6.15,4.3-15.9,15.85-15.9c9.46,0,15.81,6.14,15.81,15.27C228.56,99.88,221.81,106.87,212.52,106.87L212.52,106.87L212.52,106.87
		z"/>
	<path class="st3" d="M212.48,77.05c-6.88,0-11.15,4.88-11.15,12.73c0,8.75,5.03,14.86,12.24,14.86c1.76,0,10.52-0.64,10.52-13.28
		C224.09,81.53,218.07,77.05,212.48,77.05L212.48,77.05L212.48,77.05z M212.52,106.62c-10.56,0-15.38-8.16-15.38-15.74
		c0-6.05,4.24-15.66,15.61-15.66c9.31,0,15.57,6.04,15.57,15.03C228.32,99.74,221.67,106.62,212.52,106.62L212.52,106.62
		L212.52,106.62z"/>
	<path class="st4" d="M212.48,77.05c-6.88,0-11.15,4.88-11.15,12.73c0,8.75,5.03,14.86,12.24,14.86c1.76,0,10.52-0.64,10.52-13.28
		C224.09,81.53,218.07,77.05,212.48,77.05L212.48,77.05L212.48,77.05z M212.52,106.62c-10.56,0-15.38-8.16-15.38-15.74
		c0-6.05,4.24-15.66,15.61-15.66c9.31,0,15.57,6.04,15.57,15.03C228.32,99.74,221.67,106.62,212.52,106.62L212.52,106.62
		L212.52,106.62z"/>
	<path class="st3" d="M261.13,106.59L261.13,106.59l-0.05,0c-0.55-0.03-0.88-0.37-3.05-2.54l-0.12-0.12
		c-0.43-0.4-6.08-6.22-10.2-10.7c-4-4.36-7.87-8.71-9.3-10.32l0.47,17.55c0.08,3.29,0.49,4.05,1.17,4.25
		c0.78,0.21,1.71,0.22,1.81,0.22c0.46,0.01,0.8,0.31,0.8,0.73c0,0.67-0.83,0.67-1.1,0.67c-1.74,0-3.04-0.07-3.67-0.1
		c-0.27-0.01-0.46-0.02-0.55-0.02c-0.08,0-0.22,0.01-0.42,0.02l-0.21,0.01c-0.77,0.04-1.93,0.1-3.12,0.1
		c-0.73,0-1.11-0.22-1.11-0.66c0-0.42,0.33-0.73,0.79-0.73c0.39,0,0.99-0.05,1.45-0.21c0.63-0.17,0.84-1.34,0.83-4.67l0.04-22.6
		c0-0.86,0.03-1.35,0.11-1.67c0.09-0.48,0.4-0.79,0.8-0.79c0.51,0.04,0.96,0.56,1.35,1.02c0.14,0.16,0.26,0.29,0.36,0.39
		c0.58,0.66,6.24,6.84,12.42,13.54c2.05,2.22,4.21,4.61,5.97,6.57c1,1.11,1.87,2.08,2.52,2.79l-0.4-18.76
		c-0.05-2.67-0.33-3.19-1.16-3.41c-0.67-0.15-1.59-0.18-1.79-0.18c-0.27,0-0.48-0.08-0.62-0.24c-0.17-0.2-0.17-0.36-0.18-0.45
		c0-0.69,0.82-0.7,1.26-0.7c1.2,0,2.43,0.05,3.25,0.09c0.38,0.02,0.68,0.03,0.81,0.03c0.14,0,0.37-0.01,0.69-0.03
		c0.68-0.04,1.6-0.08,2.63-0.08c0.4,0,1.15,0,1.21,0.71c0,0.22-0.09,0.69-0.93,0.69h-0.12c-0.17,0-0.4,0-0.72,0.05
		c-0.85,0.12-1.04,0.69-1.05,3.22l-0.07,23.11c0,1.38-0.02,2.04-0.08,2.44C261.81,106.37,261.43,106.59,261.13,106.59L261.13,106.59
		L261.13,106.59z"/>
	<path class="st4" d="M261.13,106.59L261.13,106.59l-0.05,0c-0.55-0.03-0.88-0.37-3.05-2.54l-0.12-0.12
		c-0.43-0.4-6.08-6.22-10.2-10.7c-4-4.36-7.87-8.71-9.3-10.32l0.47,17.55c0.08,3.29,0.49,4.05,1.17,4.25
		c0.78,0.21,1.71,0.22,1.81,0.22c0.46,0.01,0.8,0.31,0.8,0.73c0,0.67-0.83,0.67-1.1,0.67c-1.74,0-3.04-0.07-3.67-0.1
		c-0.27-0.01-0.46-0.02-0.55-0.02c-0.08,0-0.22,0.01-0.42,0.02l-0.21,0.01c-0.77,0.04-1.93,0.1-3.12,0.1
		c-0.73,0-1.11-0.22-1.11-0.66c0-0.42,0.33-0.73,0.79-0.73c0.39,0,0.99-0.05,1.45-0.21c0.63-0.17,0.84-1.34,0.83-4.67l0.04-22.6
		c0-0.86,0.03-1.35,0.11-1.67c0.09-0.48,0.4-0.79,0.8-0.79c0.51,0.04,0.96,0.56,1.35,1.02c0.14,0.16,0.26,0.29,0.36,0.39
		c0.58,0.66,6.24,6.84,12.42,13.54c2.05,2.22,4.21,4.61,5.97,6.57c1,1.11,1.87,2.08,2.52,2.79l-0.4-18.76
		c-0.05-2.67-0.33-3.19-1.16-3.41c-0.67-0.15-1.59-0.18-1.79-0.18c-0.27,0-0.48-0.08-0.62-0.24c-0.17-0.2-0.17-0.36-0.18-0.45
		c0-0.69,0.82-0.7,1.26-0.7c1.2,0,2.43,0.05,3.25,0.09c0.38,0.02,0.68,0.03,0.81,0.03c0.14,0,0.37-0.01,0.69-0.03
		c0.68-0.04,1.6-0.08,2.63-0.08c0.4,0,1.15,0,1.21,0.71c0,0.22-0.09,0.69-0.93,0.69h-0.12c-0.17,0-0.4,0-0.72,0.05
		c-0.85,0.12-1.04,0.69-1.05,3.22l-0.07,23.11c0,1.38-0.02,2.04-0.08,2.44C261.81,106.37,261.43,106.59,261.13,106.59L261.13,106.59
		L261.13,106.59z"/>
	<path class="st3" d="M261.13,106.35L261.13,106.35l-0.03,0c-0.46-0.03-0.83-0.4-2.89-2.47l-0.12-0.12
		c-0.44-0.4-6.08-6.23-10.19-10.7c-4.01-4.37-7.99-8.84-9.74-10.82l0.49,18.22c0.08,3.37,0.52,4.23,1.35,4.48
		c0.82,0.22,1.78,0.23,1.89,0.23c0.33,0.01,0.55,0.21,0.55,0.49c0,0.44-0.66,0.42-0.94,0.42c-1.6,0-2.89-0.07-3.58-0.1
		c-0.28-0.01-0.47-0.02-0.56-0.02c-0.1,0-0.32,0.01-0.64,0.03c-0.7,0.04-1.88,0.1-3.11,0.1c-0.26,0-0.86-0.01-0.86-0.42
		c0-0.28,0.23-0.48,0.55-0.49c0.41,0,1.04-0.06,1.53-0.22c0.79-0.2,1.01-1.41,1-4.9l0.04-22.6c0-0.82,0.03-1.3,0.1-1.62
		c0.07-0.38,0.28-0.6,0.56-0.6c0.38,0.03,0.78,0.49,1.16,0.93c0.13,0.15,0.26,0.3,0.37,0.41c0.57,0.65,6.22,6.82,12.41,13.53
		c2.05,2.22,4.21,4.61,5.97,6.57c1.24,1.38,2.29,2.54,2.96,3.27l-0.41-19.4c-0.05-2.59-0.3-3.37-1.34-3.64
		c-0.69-0.15-1.59-0.19-1.85-0.19c-0.13,0-0.31-0.02-0.44-0.16c-0.11-0.13-0.11-0.22-0.11-0.3c0-0.43,0.56-0.45,1.02-0.45
		c1.19,0,2.42,0.05,3.24,0.09c0.39,0.02,0.68,0.03,0.82,0.03c0.14,0,0.38-0.01,0.7-0.03c0.62-0.03,1.55-0.09,2.61-0.09
		c0.36,0,0.93-0.02,0.96,0.49c0,0.32-0.3,0.43-0.69,0.43c-0.2,0-0.45-0.01-0.88,0.05c-1.11,0.16-1.25,1.06-1.26,3.46l-0.08,23.11
		c0,1.37-0.02,2.02-0.08,2.41C261.57,106.3,261.23,106.35,261.13,106.35L261.13,106.35L261.13,106.35z"/>
	<path class="st4" d="M261.13,106.35L261.13,106.35l-0.03,0c-0.46-0.03-0.83-0.4-2.89-2.47l-0.12-0.12
		c-0.44-0.4-6.08-6.23-10.19-10.7c-4.01-4.37-7.99-8.84-9.74-10.82l0.49,18.22c0.08,3.37,0.52,4.23,1.35,4.48
		c0.82,0.22,1.78,0.23,1.89,0.23c0.33,0.01,0.55,0.21,0.55,0.49c0,0.44-0.66,0.42-0.94,0.42c-1.6,0-2.89-0.07-3.58-0.1
		c-0.28-0.01-0.47-0.02-0.56-0.02c-0.1,0-0.32,0.01-0.64,0.03c-0.7,0.04-1.88,0.1-3.11,0.1c-0.26,0-0.86-0.01-0.86-0.42
		c0-0.28,0.23-0.48,0.55-0.49c0.41,0,1.04-0.06,1.53-0.22c0.79-0.2,1.01-1.41,1-4.9l0.04-22.6c0-0.82,0.03-1.3,0.1-1.62
		c0.07-0.38,0.28-0.6,0.56-0.6c0.38,0.03,0.78,0.49,1.16,0.93c0.13,0.15,0.26,0.3,0.37,0.41c0.57,0.65,6.22,6.82,12.41,13.53
		c2.05,2.22,4.21,4.61,5.97,6.57c1.24,1.38,2.29,2.54,2.96,3.27l-0.41-19.4c-0.05-2.59-0.3-3.37-1.34-3.64
		c-0.69-0.15-1.59-0.19-1.85-0.19c-0.13,0-0.31-0.02-0.44-0.16c-0.11-0.13-0.11-0.22-0.11-0.3c0-0.43,0.56-0.45,1.02-0.45
		c1.19,0,2.42,0.05,3.24,0.09c0.39,0.02,0.68,0.03,0.82,0.03c0.14,0,0.38-0.01,0.7-0.03c0.62-0.03,1.55-0.09,2.61-0.09
		c0.36,0,0.93-0.02,0.96,0.49c0,0.32-0.3,0.43-0.69,0.43c-0.2,0-0.45-0.01-0.88,0.05c-1.11,0.16-1.25,1.06-1.26,3.46l-0.08,23.11
		c0,1.37-0.02,2.02-0.08,2.41C261.57,106.3,261.23,106.35,261.13,106.35L261.13,106.35L261.13,106.35z"/>
	<path class="st3" d="M310.77,106.98c-2.41,0-4.22-0.39-6.06-1.29c-0.85-0.41-1.08-0.88-1.06-2.19c0-1.87,0.12-3.43,0.19-4.37
		l0.04-0.55c0.03-0.44,0.08-1.16,0.77-1.19c0.39,0,0.52,0.19,0.62,0.37c0.11,0.21,0.11,0.44,0.11,0.63c0,0.4,0,1.01,0.13,1.6
		c0.78,3.88,4.64,4.31,6.26,4.32c3.96,0,6.03-2.84,6.03-5.64c0-2.89-1.09-4.59-5.06-7.91l-2.05-1.7c-5.07-4.2-6.1-7.18-6.1-10.37
		c0-2.58,0.93-4.78,2.7-6.35c1.78-1.58,4.27-2.42,7.21-2.42c1.64,0,3.03,0.15,4.35,0.48c0.79,0.16,1.14,0.22,1.49,0.22
		c0.22,0,0.45,0.02,0.65,0.17c0.18,0.14,0.24,0.31,0.24,0.59v0.02l-0.02,0.11c-0.01,0.07-0.03,0.16-0.03,0.26
		c-0.04,0.49-0.16,1.98-0.16,4.54v0.21c0,0.53,0,1.26-0.69,1.33c-0.71,0-0.74-0.64-0.76-0.92l-0.01-0.12
		c-0.04-0.5-0.3-1.69-0.54-2.12c-0.2-0.36-1.4-2.18-5.38-2.19c-3.06,0.01-5.11,1.96-5.12,4.86c0,2.33,1.06,3.78,5.38,7.36l1.27,1.01
		c5.73,4.56,6.84,7.56,6.84,11.21c0,2.47-1.07,5.87-4.07,8.03C316.05,106.28,313.57,106.98,310.77,106.98L310.77,106.98
		L310.77,106.98z"/>
	<path class="st4" d="M310.77,106.98c-2.41,0-4.22-0.39-6.06-1.29c-0.85-0.41-1.08-0.88-1.06-2.19c0-1.87,0.12-3.43,0.19-4.37
		l0.04-0.55c0.03-0.44,0.08-1.16,0.77-1.19c0.39,0,0.52,0.19,0.62,0.37c0.11,0.21,0.11,0.44,0.11,0.63c0,0.4,0,1.01,0.13,1.6
		c0.78,3.88,4.64,4.31,6.26,4.32c3.96,0,6.03-2.84,6.03-5.64c0-2.89-1.09-4.59-5.06-7.91l-2.05-1.7c-5.07-4.2-6.1-7.18-6.1-10.37
		c0-2.58,0.93-4.78,2.7-6.35c1.78-1.58,4.27-2.42,7.21-2.42c1.64,0,3.03,0.15,4.35,0.48c0.79,0.16,1.14,0.22,1.49,0.22
		c0.22,0,0.45,0.02,0.65,0.17c0.18,0.14,0.24,0.31,0.24,0.59v0.02l-0.02,0.11c-0.01,0.07-0.03,0.16-0.03,0.26
		c-0.04,0.49-0.16,1.98-0.16,4.54v0.21c0,0.53,0,1.26-0.69,1.33c-0.71,0-0.74-0.64-0.76-0.92l-0.01-0.12
		c-0.04-0.5-0.3-1.69-0.54-2.12c-0.2-0.36-1.4-2.18-5.38-2.19c-3.06,0.01-5.11,1.96-5.12,4.86c0,2.33,1.06,3.78,5.38,7.36l1.27,1.01
		c5.73,4.56,6.84,7.56,6.84,11.21c0,2.47-1.07,5.87-4.07,8.03C316.05,106.28,313.57,106.98,310.77,106.98L310.77,106.98
		L310.77,106.98z"/>
	<path class="st3" d="M310.77,106.73c-2.45,0-4.22-0.42-5.95-1.27c-0.74-0.35-0.94-0.72-0.93-1.97c0-1.89,0.12-3.45,0.19-4.38
		l0.03-0.51c0.03-0.33,0.02-0.94,0.54-0.96c0.23,0,0.31,0.09,0.39,0.24c0.08,0.15,0.09,0.31,0.09,0.51c0,0.41,0,1.03,0.13,1.65
		c0.82,4.05,4.82,4.5,6.5,4.51c4.11,0,6.27-2.96,6.28-5.88c0-2.98-1.11-4.73-5.15-8.1l-2.05-1.71c-4.99-4.13-6.01-7.06-6.01-10.18
		c0-2.51,0.91-4.65,2.62-6.17c1.73-1.54,4.17-2.36,7.05-2.36c1.63,0,2.99,0.15,4.29,0.47c0.82,0.17,1.18,0.22,1.55,0.22
		c0.21,0,0.37,0.02,0.51,0.13c0.09,0.06,0.15,0.15,0.14,0.39c0,0.05-0.04,0.21-0.05,0.38c-0.05,0.62-0.16,2.08-0.16,4.55
		c-0.01,0.59,0.06,1.25-0.47,1.3c-0.53,0-0.47-0.54-0.5-0.82c-0.04-0.53-0.31-1.75-0.56-2.21c-0.38-0.69-1.8-2.31-5.6-2.31
		c-3.2,0.01-5.36,2.06-5.36,5.1c0,2.43,1.08,3.91,5.47,7.55l1.27,1.01c5.65,4.49,6.75,7.44,6.75,11.02c0,2.41-1.05,5.73-3.97,7.84
		C315.95,106.05,313.52,106.73,310.77,106.73L310.77,106.73L310.77,106.73z"/>
	<path class="st4" d="M310.77,106.73c-2.45,0-4.22-0.42-5.95-1.27c-0.74-0.35-0.94-0.72-0.93-1.97c0-1.89,0.12-3.45,0.19-4.38
		l0.03-0.51c0.03-0.33,0.02-0.94,0.54-0.96c0.23,0,0.31,0.09,0.39,0.24c0.08,0.15,0.09,0.31,0.09,0.51c0,0.41,0,1.03,0.13,1.65
		c0.82,4.05,4.82,4.5,6.5,4.51c4.11,0,6.27-2.96,6.28-5.88c0-2.98-1.11-4.73-5.15-8.1l-2.05-1.71c-4.99-4.13-6.01-7.06-6.01-10.18
		c0-2.51,0.91-4.65,2.62-6.17c1.73-1.54,4.17-2.36,7.05-2.36c1.63,0,2.99,0.15,4.29,0.47c0.82,0.17,1.18,0.22,1.55,0.22
		c0.21,0,0.37,0.02,0.51,0.13c0.09,0.06,0.15,0.15,0.14,0.39c0,0.05-0.04,0.21-0.05,0.38c-0.05,0.62-0.16,2.08-0.16,4.55
		c-0.01,0.59,0.06,1.25-0.47,1.3c-0.53,0-0.47-0.54-0.5-0.82c-0.04-0.53-0.31-1.75-0.56-2.21c-0.38-0.69-1.8-2.31-5.6-2.31
		c-3.2,0.01-5.36,2.06-5.36,5.1c0,2.43,1.08,3.91,5.47,7.55l1.27,1.01c5.65,4.49,6.75,7.44,6.75,11.02c0,2.41-1.05,5.73-3.97,7.84
		C315.95,106.05,313.52,106.73,310.77,106.73L310.77,106.73L310.77,106.73z"/>
	<path class="st3" d="M332.36,106.22c-0.75,0-0.86-0.44-0.87-0.7c0-0.15,0.07-0.6,0.8-0.6c0.34,0,1.39-0.08,1.67-0.15
		c0.44-0.08,0.62-0.81,0.76-1.88c0.19-1.62,0.19-4.81,0.19-8.5V78.21l-5.28,0.07c-2.44,0.04-3.2,0.24-3.67,0.95
		c-0.38,0.59-0.49,0.84-0.6,1.09c-0.2,0.56-0.46,0.84-0.78,0.84c-0.57-0.01-0.57-0.59-0.57-0.84c0-0.4,0.46-2.46,0.85-4.13
		l0.01-0.01l0.03-0.11l0.05-0.13c0.04-0.11,0.08-0.24,0.14-0.37l0.05-0.1c0.08-0.19,0.18-0.43,0.52-0.48c0.25,0,0.38,0.07,0.52,0.14
		c0.33,0.15,0.66,0.29,1.24,0.33c1.13,0.12,2.61,0.2,3.04,0.2h14.63c1.75,0,2.76-0.2,3.31-0.3c0.26-0.06,0.43-0.08,0.54-0.09
		c0.64,0.05,0.62,0.64,0.61,0.83c0,0.78-0.04,1.92-0.07,2.87l-0.01,0.28l-0.01,0.3c-0.01,0.49-0.03,0.87-0.03,1.01
		c0,0.3,0,0.99-0.59,1c-0.7,0-0.71-0.74-0.71-1.02l-0.03-0.53c-0.09-0.69-0.66-1.63-4.51-1.73l-4.42-0.06l0,16.19
		c0,3.52,0,6.84,0.19,8.5c0.15,1.35,0.4,1.77,1.11,1.87c0.53,0.07,1.37,0.15,1.69,0.15c0.74,0,0.8,0.46,0.8,0.59
		c-0.01,0.46-0.38,0.7-1.11,0.7c-1.51,0-3.15-0.06-4.09-0.09l-0.26-0.01c-0.24-0.01-0.4-0.01-0.44-0.01c-0.05,0-0.28,0.01-0.61,0.02
		c-0.85,0.03-2.98,0.09-3.82,0.09L332.36,106.22L332.36,106.22L332.36,106.22z"/>
	<path class="st4" d="M332.36,106.22c-0.75,0-0.86-0.44-0.87-0.7c0-0.15,0.07-0.6,0.8-0.6c0.34,0,1.39-0.08,1.67-0.15
		c0.44-0.08,0.62-0.81,0.76-1.88c0.19-1.62,0.19-4.81,0.19-8.5V78.21l-5.28,0.07c-2.44,0.04-3.2,0.24-3.67,0.95
		c-0.38,0.59-0.49,0.84-0.6,1.09c-0.2,0.56-0.46,0.84-0.78,0.84c-0.57-0.01-0.57-0.59-0.57-0.84c0-0.4,0.46-2.46,0.85-4.13
		l0.01-0.01l0.03-0.11l0.05-0.13c0.04-0.11,0.08-0.24,0.14-0.37l0.05-0.1c0.08-0.19,0.18-0.43,0.52-0.48c0.25,0,0.38,0.07,0.52,0.14
		c0.33,0.15,0.66,0.29,1.24,0.33c1.13,0.12,2.61,0.2,3.04,0.2h14.63c1.75,0,2.76-0.2,3.31-0.3c0.26-0.06,0.43-0.08,0.54-0.09
		c0.64,0.05,0.62,0.64,0.61,0.83c0,0.78-0.04,1.92-0.07,2.87l-0.01,0.28l-0.01,0.3c-0.01,0.49-0.03,0.87-0.03,1.01
		c0,0.3,0,0.99-0.59,1c-0.7,0-0.71-0.74-0.71-1.02l-0.03-0.53c-0.09-0.69-0.66-1.63-4.51-1.73l-4.42-0.06l0,16.19
		c0,3.52,0,6.84,0.19,8.5c0.15,1.35,0.4,1.77,1.11,1.87c0.53,0.07,1.37,0.15,1.69,0.15c0.74,0,0.8,0.46,0.8,0.59
		c-0.01,0.46-0.38,0.7-1.11,0.7c-1.51,0-3.15-0.06-4.09-0.09l-0.26-0.01c-0.24-0.01-0.4-0.01-0.44-0.01c-0.05,0-0.28,0.01-0.61,0.02
		c-0.85,0.03-2.98,0.09-3.82,0.09L332.36,106.22L332.36,106.22L332.36,106.22z"/>
	<path class="st3" d="M341.83,105.97c-1.66,0-3.47-0.07-4.35-0.1c-0.25-0.01-0.41-0.01-0.45-0.01c-0.05,0-0.28,0.01-0.62,0.02
		c-0.85,0.03-2.97,0.09-3.81,0.09c-0.21,0-0.86,0.1-0.87-0.46c0.01-0.23,0.2-0.35,0.56-0.35c0.33,0,1.4-0.08,1.72-0.15
		c0.59-0.11,0.79-0.92,0.94-2.09c0.19-1.64,0.19-4.83,0.19-8.53V77.96l-5.53,0.07c-2.36,0.04-3.3,0.21-3.87,1.06
		c-0.41,0.63-0.52,0.89-0.63,1.15c-0.17,0.48-0.36,0.67-0.55,0.67c-0.28-0.01-0.32-0.24-0.32-0.6c0.01-0.49,0.86-4.13,0.86-4.17
		l0.05-0.13c0.04-0.11,0.08-0.24,0.13-0.36c0.11-0.22,0.14-0.4,0.38-0.43c0.19,0.01,0.29,0.07,0.46,0.15
		c0.27,0.12,0.63,0.28,1.25,0.32c1.13,0.12,2.62,0.2,3.06,0.2h14.63c1.8,0,2.83-0.2,3.38-0.31c0.22-0.05,0.38-0.07,0.48-0.08
		c0.44,0.04,0.36,0.46,0.36,0.66c0,0.78-0.04,2.07-0.08,3.07c-0.02,0.64-0.04,1.15-0.04,1.32c0,0.55-0.11,0.75-0.35,0.75
		c-0.52,0-0.45-0.63-0.47-0.9l-0.03-0.42c-0.13-0.96-0.95-1.86-4.74-1.96l-4.67-0.07l0,16.43c0,3.69,0,6.87,0.19,8.53
		c0.14,1.24,0.36,1.94,1.32,2.08c0.54,0.08,1.39,0.15,1.72,0.15c0.36,0,0.56,0.12,0.56,0.35
		C342.7,105.72,342.58,105.97,341.83,105.97L341.83,105.97L341.83,105.97z"/>
	<path class="st4" d="M341.83,105.97c-1.66,0-3.47-0.07-4.35-0.1c-0.25-0.01-0.41-0.01-0.45-0.01c-0.05,0-0.28,0.01-0.62,0.02
		c-0.85,0.03-2.97,0.09-3.81,0.09c-0.21,0-0.86,0.1-0.87-0.46c0.01-0.23,0.2-0.35,0.56-0.35c0.33,0,1.4-0.08,1.72-0.15
		c0.59-0.11,0.79-0.92,0.94-2.09c0.19-1.64,0.19-4.83,0.19-8.53V77.96l-5.53,0.07c-2.36,0.04-3.3,0.21-3.87,1.06
		c-0.41,0.63-0.52,0.89-0.63,1.15c-0.17,0.48-0.36,0.67-0.55,0.67c-0.28-0.01-0.32-0.24-0.32-0.6c0.01-0.49,0.86-4.13,0.86-4.17
		l0.05-0.13c0.04-0.11,0.08-0.24,0.13-0.36c0.11-0.22,0.14-0.4,0.38-0.43c0.19,0.01,0.29,0.07,0.46,0.15
		c0.27,0.12,0.63,0.28,1.25,0.32c1.13,0.12,2.62,0.2,3.06,0.2h14.63c1.8,0,2.83-0.2,3.38-0.31c0.22-0.05,0.38-0.07,0.48-0.08
		c0.44,0.04,0.36,0.46,0.36,0.66c0,0.78-0.04,2.07-0.08,3.07c-0.02,0.64-0.04,1.15-0.04,1.32c0,0.55-0.11,0.75-0.35,0.75
		c-0.52,0-0.45-0.63-0.47-0.9l-0.03-0.42c-0.13-0.96-0.95-1.86-4.74-1.96l-4.67-0.07l0,16.43c0,3.69,0,6.87,0.19,8.53
		c0.14,1.24,0.36,1.94,1.32,2.08c0.54,0.08,1.39,0.15,1.72,0.15c0.36,0,0.56,0.12,0.56,0.35
		C342.7,105.72,342.58,105.97,341.83,105.97L341.83,105.97L341.83,105.97z"/>
	<path class="st3" d="M285.59,106.43c-3.97,0-6.5-0.11-8.01-0.18l-0.12,0c-0.71-0.03-1.18-0.05-1.51-0.05l-0.21,0.01l-0.42,0.02
		l-0.21,0.01l-0.25,0.01c-0.87,0.03-2.02,0.07-2.73,0.07c-0.51,0-1.11-0.16-1.11-0.62c0-0.36,0.27-0.74,0.8-0.74
		c0.25,0,0.65-0.05,1.07-0.14c0.46-0.1,0.61-0.93,0.75-1.92c0.2-1.62,0.2-4.65,0.2-8.49v-3.79c-0.09,0-0.19,0-0.28,0
		c-0.67,0-1.43,0.03-2.49,0.11l-0.19,0.01l-0.17-0.17l-0.09-0.29l-0.05-0.18l0.12-0.2c0.1-0.08,1.3-0.82,3.16-1.35v-1.07
		c0-6.14,0-7.24-0.08-8.48c-0.07-1.18-0.29-1.81-1.29-2.03c-0.28-0.07-0.89-0.1-1.22-0.1c-0.74,0-0.79-0.48-0.79-0.62
		c0-0.21,0.11-0.68,1.11-0.68c1.36,0,3.21,0.07,3.87,0.1l0.3,0.01l0.24,0.01c0.07,0,8.02,0,8.91-0.04c0.66-0.03,1.28-0.1,1.57-0.18
		c0.04-0.01,0.08-0.03,0.13-0.05c0.12-0.06,0.31-0.16,0.54-0.16c0.53,0,0.53,0.63,0.53,0.84c0,0.17-0.04,0.35-0.09,0.56
		c-0.06,0.26-0.15,0.68-0.23,1.34l-0.01,0.13l-0.03,0.47l-0.01,0.17l-0.01,0.18c-0.04,0.65-0.09,1.37-0.14,1.68
		c-0.08,0.44-0.22,0.85-0.64,0.85c-0.2,0-0.66-0.11-0.66-1.09c0-0.26-0.04-0.85-0.2-1.24c-0.17-0.38-0.47-0.72-2.51-0.95
		c-0.55-0.07-3.94-0.11-5.04-0.11l0,9.93c1.33,0.03,2.64,0.26,3.9,0.67c1.3,0.42,2.55,0.63,3.73,0.63c1.64,0,2.54-0.41,2.55-0.42
		l0.24-0.12l0.32-0.15l0.56-0.28l-0.23,0.58l-0.13,0.33l-0.1,0.25c-0.14,0.33-1.47,3.09-5.4,3.09c-1.08,0-2.27-0.21-3.51-0.63
		c-0.79-0.26-1.4-0.45-1.92-0.61v3.06c0,0.37,0,1.01-0.01,1.73c-0.02,2.82-0.02,4.54,0.01,4.98c0.1,2.35,0.41,2.77,4.04,2.77
		c0.98,0,2.64,0,3.55-0.39c0.84-0.36,1.22-1.01,1.47-2.48c0.08-0.45,0.18-1,0.67-1c0.21,0,0.7,0.1,0.7,1.07
		c0,0.38-0.32,3.08-0.52,3.93C287.6,106.43,287.09,106.43,285.59,106.43L285.59,106.43L285.59,106.43z"/>
	<path class="st4" d="M285.59,106.43c-3.97,0-6.5-0.11-8.01-0.18l-0.12,0c-0.71-0.03-1.18-0.05-1.51-0.05l-0.21,0.01l-0.42,0.02
		l-0.21,0.01l-0.25,0.01c-0.87,0.03-2.02,0.07-2.73,0.07c-0.51,0-1.11-0.16-1.11-0.62c0-0.36,0.27-0.74,0.8-0.74
		c0.25,0,0.65-0.05,1.07-0.14c0.46-0.1,0.61-0.93,0.75-1.92c0.2-1.62,0.2-4.65,0.2-8.49v-3.79c-0.09,0-0.19,0-0.28,0
		c-0.67,0-1.43,0.03-2.49,0.11l-0.19,0.01l-0.17-0.17l-0.09-0.29l-0.05-0.18l0.12-0.2c0.1-0.08,1.3-0.82,3.16-1.35v-1.07
		c0-6.14,0-7.24-0.08-8.48c-0.07-1.18-0.29-1.81-1.29-2.03c-0.28-0.07-0.89-0.1-1.22-0.1c-0.74,0-0.79-0.48-0.79-0.62
		c0-0.21,0.11-0.68,1.11-0.68c1.36,0,3.21,0.07,3.87,0.1l0.3,0.01l0.24,0.01c0.07,0,8.02,0,8.91-0.04c0.66-0.03,1.28-0.1,1.57-0.18
		c0.04-0.01,0.08-0.03,0.13-0.05c0.12-0.06,0.31-0.16,0.54-0.16c0.53,0,0.53,0.63,0.53,0.84c0,0.17-0.04,0.35-0.09,0.56
		c-0.06,0.26-0.15,0.68-0.23,1.34l-0.01,0.13l-0.03,0.47l-0.01,0.17l-0.01,0.18c-0.04,0.65-0.09,1.37-0.14,1.68
		c-0.08,0.44-0.22,0.85-0.64,0.85c-0.2,0-0.66-0.11-0.66-1.09c0-0.26-0.04-0.85-0.2-1.24c-0.17-0.38-0.47-0.72-2.51-0.95
		c-0.55-0.07-3.94-0.11-5.04-0.11l0,9.93c1.33,0.03,2.64,0.26,3.9,0.67c1.3,0.42,2.55,0.63,3.73,0.63c1.64,0,2.54-0.41,2.55-0.42
		l0.24-0.12l0.32-0.15l0.56-0.28l-0.23,0.58l-0.13,0.33l-0.1,0.25c-0.14,0.33-1.47,3.09-5.4,3.09c-1.08,0-2.27-0.21-3.51-0.63
		c-0.79-0.26-1.4-0.45-1.92-0.61v3.06c0,0.37,0,1.01-0.01,1.73c-0.02,2.82-0.02,4.54,0.01,4.98c0.1,2.35,0.41,2.77,4.04,2.77
		c0.98,0,2.64,0,3.55-0.39c0.84-0.36,1.22-1.01,1.47-2.48c0.08-0.45,0.18-1,0.67-1c0.21,0,0.7,0.1,0.7,1.07
		c0,0.38-0.32,3.08-0.52,3.93C287.6,106.43,287.09,106.43,285.59,106.43L285.59,106.43L285.59,106.43z"/>
	<path class="st3" d="M285.59,106.19c-4.07,0-6.61-0.11-8.12-0.18c-0.72-0.03-1.19-0.05-1.52-0.05l-0.21,0.01l-0.43,0.02l-0.21,0.01
		c-0.89,0.04-2.2,0.09-2.97,0.09c-0.24,0-0.86-0.06-0.86-0.38c0-0.24,0.17-0.49,0.56-0.49c0.27,0,0.69-0.06,1.12-0.15
		c0.64-0.13,0.8-1.09,0.94-2.13c0.2-1.64,0.2-4.68,0.2-8.52v-4.03c-0.17-0.01-0.35-0.01-0.53-0.01c-0.66,0-1.44,0.03-2.51,0.11
		l-0.11,0l-0.03-0.1l-0.06-0.19l-0.04-0.1l0.09-0.06c0.01-0.01,1.22-0.78,3.18-1.31v-1.26c0-6.14,0-7.25-0.08-8.5
		c-0.07-1.2-0.3-2-1.49-2.25c-0.3-0.08-0.94-0.11-1.28-0.11c-0.32,0-0.55-0.1-0.55-0.37c0-0.41,0.63-0.44,0.86-0.44
		c1.39,0,3.27,0.07,3.89,0.1l0.26,0.01l0.25,0.01c0.08,0,8.04,0,8.93-0.04c0.7-0.03,1.32-0.11,1.62-0.19
		c0.07-0.01,0.12-0.05,0.19-0.08c0.11-0.06,0.24-0.13,0.42-0.13c0.15,0,0.29,0.08,0.29,0.6c0,0.14-0.03,0.29-0.08,0.51
		c-0.06,0.28-0.16,0.71-0.23,1.36c-0.01,0.11-0.03,0.34-0.04,0.61l-0.01,0.17c-0.04,0.67-0.09,1.51-0.15,1.84
		c-0.1,0.53-0.23,0.64-0.4,0.64c-0.21,0-0.42-0.19-0.42-0.85c0-0.3-0.05-0.91-0.21-1.33c-0.23-0.54-0.7-0.88-2.7-1.1
		c-0.64-0.08-4.77-0.12-5.31-0.12c0,0.01-0.01,0.06-0.01,0.15v10.27c1.38,0.01,2.75,0.23,4.07,0.66c1.32,0.43,2.6,0.64,3.8,0.64
		c1.69,0,2.65-0.44,2.65-0.45l0.24-0.12l0.32-0.16l-0.13,0.33l-0.1,0.25c-0.01,0.02-1.23,2.94-5.17,2.94
		c-1.06,0-2.21-0.21-3.44-0.61c-0.96-0.31-1.66-0.53-2.24-0.7v3.39c0,0.37,0,1-0.01,1.73c-0.01,1.64-0.02,4.39,0.01,5
		c0.11,2.61,0.67,3,4.28,3c1,0,2.69,0,3.65-0.41c0.92-0.39,1.35-1.11,1.61-2.66c0.06-0.34,0.11-0.79,0.43-0.79
		c0.4,0,0.45,0.54,0.45,0.83c0,0.36-0.32,3.05-0.52,3.88C287.41,106.19,287.09,106.19,285.59,106.19L285.59,106.19L285.59,106.19z"
		/>
	<path class="st4" d="M285.59,106.19c-4.07,0-6.61-0.11-8.12-0.18c-0.72-0.03-1.19-0.05-1.52-0.05l-0.21,0.01l-0.43,0.02l-0.21,0.01
		c-0.89,0.04-2.2,0.09-2.97,0.09c-0.24,0-0.86-0.06-0.86-0.38c0-0.24,0.17-0.49,0.56-0.49c0.27,0,0.69-0.06,1.12-0.15
		c0.64-0.13,0.8-1.09,0.94-2.13c0.2-1.64,0.2-4.68,0.2-8.52v-4.03c-0.17-0.01-0.35-0.01-0.53-0.01c-0.66,0-1.44,0.03-2.51,0.11
		l-0.11,0l-0.03-0.1l-0.06-0.19l-0.04-0.1l0.09-0.06c0.01-0.01,1.22-0.78,3.18-1.31v-1.26c0-6.14,0-7.25-0.08-8.5
		c-0.07-1.2-0.3-2-1.49-2.25c-0.3-0.08-0.94-0.11-1.28-0.11c-0.32,0-0.55-0.1-0.55-0.37c0-0.41,0.63-0.44,0.86-0.44
		c1.39,0,3.27,0.07,3.89,0.1l0.26,0.01l0.25,0.01c0.08,0,8.04,0,8.93-0.04c0.7-0.03,1.32-0.11,1.62-0.19
		c0.07-0.01,0.12-0.05,0.19-0.08c0.11-0.06,0.24-0.13,0.42-0.13c0.15,0,0.29,0.08,0.29,0.6c0,0.14-0.03,0.29-0.08,0.51
		c-0.06,0.28-0.16,0.71-0.23,1.36c-0.01,0.11-0.03,0.34-0.04,0.61l-0.01,0.17c-0.04,0.67-0.09,1.51-0.15,1.84
		c-0.1,0.53-0.23,0.64-0.4,0.64c-0.21,0-0.42-0.19-0.42-0.85c0-0.3-0.05-0.91-0.21-1.33c-0.23-0.54-0.7-0.88-2.7-1.1
		c-0.64-0.08-4.77-0.12-5.31-0.12c0,0.01-0.01,0.06-0.01,0.15v10.27c1.38,0.01,2.75,0.23,4.07,0.66c1.32,0.43,2.6,0.64,3.8,0.64
		c1.69,0,2.65-0.44,2.65-0.45l0.24-0.12l0.32-0.16l-0.13,0.33l-0.1,0.25c-0.01,0.02-1.23,2.94-5.17,2.94
		c-1.06,0-2.21-0.21-3.44-0.61c-0.96-0.31-1.66-0.53-2.24-0.7v3.39c0,0.37,0,1-0.01,1.73c-0.01,1.64-0.02,4.39,0.01,5
		c0.11,2.61,0.67,3,4.28,3c1,0,2.69,0,3.65-0.41c0.92-0.39,1.35-1.11,1.61-2.66c0.06-0.34,0.11-0.79,0.43-0.79
		c0.4,0,0.45,0.54,0.45,0.83c0,0.36-0.32,3.05-0.52,3.88C287.41,106.19,287.09,106.19,285.59,106.19L285.59,106.19L285.59,106.19z"
		/>
	<path class="st3" d="M323.65,149.46c-4.02,0-6.55-0.11-8.06-0.18c-0.79-0.04-1.25-0.06-1.58-0.06l-0.21,0.01l-0.42,0.02l-0.21,0.01
		l-0.24,0.01c-0.87,0.03-2.03,0.08-2.74,0.08c-0.51,0-1.11-0.16-1.11-0.62c0-0.37,0.28-0.74,0.8-0.74c0.26,0,0.66-0.06,1.07-0.15
		c0.47-0.1,0.62-0.93,0.75-1.92c0.2-1.62,0.2-4.65,0.2-8.49v-3.79c-0.09,0-0.19,0-0.29,0c-0.67,0-1.44,0.03-2.49,0.11l-0.19,0.01
		l-0.17-0.18l-0.1-0.29l-0.05-0.18l0.12-0.2c0.08-0.05,1.26-0.81,3.16-1.35v-1.07c0-6.14,0-7.24-0.08-8.48
		c-0.07-1.18-0.29-1.81-1.3-2.03c-0.27-0.07-0.89-0.11-1.22-0.11c-0.74,0-0.79-0.47-0.79-0.62c0-0.43,0.4-0.68,1.11-0.68
		c1.42,0,3.35,0.08,3.9,0.1l0.26,0.01l0.24,0.01c0.07,0,8.02,0,8.91-0.04c0.65-0.03,1.27-0.1,1.57-0.18
		c0.04-0.01,0.08-0.03,0.13-0.06c0.15-0.08,0.32-0.16,0.54-0.16c0.36,0,0.53,0.28,0.53,0.84c0,0.17-0.04,0.34-0.09,0.57
		c-0.06,0.3-0.16,0.7-0.22,1.34c-0.01,0.1-0.02,0.33-0.04,0.6l-0.01,0.17c-0.04,0.72-0.09,1.53-0.15,1.86
		c-0.08,0.44-0.22,0.85-0.64,0.85c-0.2,0-0.66-0.1-0.66-1.09c0-0.26-0.04-0.85-0.2-1.24c-0.17-0.38-0.47-0.73-2.51-0.95
		c-0.55-0.07-3.96-0.11-5.04-0.12l0,9.94c1.32,0.03,2.63,0.26,3.9,0.67c1.3,0.42,2.55,0.63,3.73,0.63c1.61,0,2.54-0.42,2.55-0.42
		l0.24-0.12l0.32-0.16l0.57-0.28l-0.24,0.59l-0.13,0.33l-0.1,0.24c-0.14,0.33-1.47,3.09-5.39,3.09c-1.09,0-2.27-0.21-3.52-0.62
		c-0.8-0.26-1.41-0.45-1.92-0.61v3.06c0,0.38,0,1-0.01,1.74v0.32c-0.01,1.63-0.02,4.1,0.01,4.66c0.1,2.35,0.41,2.77,4.04,2.77
		c0.99,0,2.64,0,3.56-0.39c0.84-0.36,1.22-1.01,1.46-2.47c0.08-0.45,0.18-1,0.67-1c0.21,0,0.69,0.11,0.69,1.08
		c0,0.39-0.32,3.08-0.52,3.93C325.66,149.46,325.15,149.46,323.65,149.46L323.65,149.46L323.65,149.46z"/>
	<path class="st4" d="M323.65,149.46c-4.02,0-6.55-0.11-8.06-0.18c-0.79-0.04-1.25-0.06-1.58-0.06l-0.21,0.01l-0.42,0.02l-0.21,0.01
		l-0.24,0.01c-0.87,0.03-2.03,0.08-2.74,0.08c-0.51,0-1.11-0.16-1.11-0.62c0-0.37,0.28-0.74,0.8-0.74c0.26,0,0.66-0.06,1.07-0.15
		c0.47-0.1,0.62-0.93,0.75-1.92c0.2-1.62,0.2-4.65,0.2-8.49v-3.79c-0.09,0-0.19,0-0.29,0c-0.67,0-1.44,0.03-2.49,0.11l-0.19,0.01
		l-0.17-0.18l-0.1-0.29l-0.05-0.18l0.12-0.2c0.08-0.05,1.26-0.81,3.16-1.35v-1.07c0-6.14,0-7.24-0.08-8.48
		c-0.07-1.18-0.29-1.81-1.3-2.03c-0.27-0.07-0.89-0.11-1.22-0.11c-0.74,0-0.79-0.47-0.79-0.62c0-0.43,0.4-0.68,1.11-0.68
		c1.42,0,3.35,0.08,3.9,0.1l0.26,0.01l0.24,0.01c0.07,0,8.02,0,8.91-0.04c0.65-0.03,1.27-0.1,1.57-0.18
		c0.04-0.01,0.08-0.03,0.13-0.06c0.15-0.08,0.32-0.16,0.54-0.16c0.36,0,0.53,0.28,0.53,0.84c0,0.17-0.04,0.34-0.09,0.57
		c-0.06,0.3-0.16,0.7-0.22,1.34c-0.01,0.1-0.02,0.33-0.04,0.6l-0.01,0.17c-0.04,0.72-0.09,1.53-0.15,1.86
		c-0.08,0.44-0.22,0.85-0.64,0.85c-0.2,0-0.66-0.1-0.66-1.09c0-0.26-0.04-0.85-0.2-1.24c-0.17-0.38-0.47-0.73-2.51-0.95
		c-0.55-0.07-3.96-0.11-5.04-0.12l0,9.94c1.32,0.03,2.63,0.26,3.9,0.67c1.3,0.42,2.55,0.63,3.73,0.63c1.61,0,2.54-0.42,2.55-0.42
		l0.24-0.12l0.32-0.16l0.57-0.28l-0.24,0.59l-0.13,0.33l-0.1,0.24c-0.14,0.33-1.47,3.09-5.39,3.09c-1.09,0-2.27-0.21-3.52-0.62
		c-0.8-0.26-1.41-0.45-1.92-0.61v3.06c0,0.38,0,1-0.01,1.74v0.32c-0.01,1.63-0.02,4.1,0.01,4.66c0.1,2.35,0.41,2.77,4.04,2.77
		c0.99,0,2.64,0,3.56-0.39c0.84-0.36,1.22-1.01,1.46-2.47c0.08-0.45,0.18-1,0.67-1c0.21,0,0.69,0.11,0.69,1.08
		c0,0.39-0.32,3.08-0.52,3.93C325.66,149.46,325.15,149.46,323.65,149.46L323.65,149.46L323.65,149.46z"/>
	<path class="st3" d="M323.65,149.22c-4.07,0-6.6-0.12-8.12-0.18c-0.71-0.03-1.19-0.05-1.52-0.05l-0.21,0.01l-0.43,0.02l-0.21,0.01
		c-0.89,0.03-2.2,0.09-2.97,0.09c-0.24,0-0.87-0.06-0.87-0.38c0-0.24,0.17-0.49,0.56-0.49c0.27,0,0.69-0.06,1.12-0.15
		c0.64-0.13,0.8-1.1,0.94-2.13c0.2-1.64,0.2-4.68,0.2-8.52v-4.03c-0.17-0.01-0.35-0.01-0.53-0.01c-0.66,0-1.44,0.03-2.51,0.11
		l-0.11,0.01l-0.03-0.1l-0.06-0.19l-0.03-0.1l0.09-0.06c0.01-0.01,1.22-0.78,3.19-1.31v-1.26c0-6.14,0-7.25-0.08-8.5
		c-0.07-1.2-0.3-2-1.49-2.25c-0.3-0.08-0.94-0.11-1.28-0.11c-0.31,0-0.55-0.1-0.55-0.38c0-0.41,0.63-0.44,0.86-0.44
		c1.39,0,3.27,0.07,3.89,0.1l0.26,0.01l0.25,0.01c0.08,0,8.04,0,8.93-0.04c0.7-0.04,1.32-0.11,1.62-0.18
		c0.07-0.01,0.13-0.05,0.2-0.08c0.11-0.06,0.24-0.13,0.41-0.13c0.15,0,0.29,0.08,0.29,0.6c0,0.14-0.03,0.29-0.09,0.51
		c-0.06,0.28-0.16,0.7-0.23,1.36c-0.01,0.11-0.02,0.34-0.04,0.61l-0.01,0.17c-0.04,0.67-0.09,1.51-0.15,1.84
		c-0.1,0.53-0.23,0.64-0.4,0.64c-0.21,0-0.42-0.18-0.42-0.85c0-0.3-0.05-0.91-0.21-1.33c-0.23-0.54-0.7-0.88-2.7-1.1
		c-0.64-0.08-4.77-0.12-5.31-0.12c0,0.01-0.01,0.06-0.01,0.15v10.27c1.38,0.01,2.75,0.23,4.06,0.66c1.32,0.43,2.6,0.64,3.8,0.64
		c1.69,0,2.65-0.44,2.65-0.44l0.24-0.12l0.32-0.16l-0.14,0.33l-0.1,0.24c-0.01,0.02-1.23,2.94-5.17,2.94
		c-1.06,0-2.22-0.21-3.44-0.61c-0.97-0.31-1.66-0.53-2.24-0.7v3.39c0,0.37,0,1-0.01,1.73c-0.01,1.64-0.02,4.39,0.01,5
		c0.11,2.61,0.67,3,4.28,3c1.01,0,2.69,0,3.65-0.41c0.92-0.39,1.35-1.11,1.61-2.66c0.06-0.33,0.11-0.79,0.43-0.79
		c0.41,0,0.45,0.54,0.45,0.83c0,0.36-0.32,3.05-0.52,3.88C325.47,149.22,325.16,149.22,323.65,149.22L323.65,149.22L323.65,149.22z"
		/>
	<path class="st4" d="M323.65,149.22c-4.07,0-6.6-0.12-8.12-0.18c-0.71-0.03-1.19-0.05-1.52-0.05l-0.21,0.01l-0.43,0.02l-0.21,0.01
		c-0.89,0.03-2.2,0.09-2.97,0.09c-0.24,0-0.87-0.06-0.87-0.38c0-0.24,0.17-0.49,0.56-0.49c0.27,0,0.69-0.06,1.12-0.15
		c0.64-0.13,0.8-1.1,0.94-2.13c0.2-1.64,0.2-4.68,0.2-8.52v-4.03c-0.17-0.01-0.35-0.01-0.53-0.01c-0.66,0-1.44,0.03-2.51,0.11
		l-0.11,0.01l-0.03-0.1l-0.06-0.19l-0.03-0.1l0.09-0.06c0.01-0.01,1.22-0.78,3.19-1.31v-1.26c0-6.14,0-7.25-0.08-8.5
		c-0.07-1.2-0.3-2-1.49-2.25c-0.3-0.08-0.94-0.11-1.28-0.11c-0.31,0-0.55-0.1-0.55-0.38c0-0.41,0.63-0.44,0.86-0.44
		c1.39,0,3.27,0.07,3.89,0.1l0.26,0.01l0.25,0.01c0.08,0,8.04,0,8.93-0.04c0.7-0.04,1.32-0.11,1.62-0.18
		c0.07-0.01,0.13-0.05,0.2-0.08c0.11-0.06,0.24-0.13,0.41-0.13c0.15,0,0.29,0.08,0.29,0.6c0,0.14-0.03,0.29-0.09,0.51
		c-0.06,0.28-0.16,0.7-0.23,1.36c-0.01,0.11-0.02,0.34-0.04,0.61l-0.01,0.17c-0.04,0.67-0.09,1.51-0.15,1.84
		c-0.1,0.53-0.23,0.64-0.4,0.64c-0.21,0-0.42-0.18-0.42-0.85c0-0.3-0.05-0.91-0.21-1.33c-0.23-0.54-0.7-0.88-2.7-1.1
		c-0.64-0.08-4.77-0.12-5.31-0.12c0,0.01-0.01,0.06-0.01,0.15v10.27c1.38,0.01,2.75,0.23,4.06,0.66c1.32,0.43,2.6,0.64,3.8,0.64
		c1.69,0,2.65-0.44,2.65-0.44l0.24-0.12l0.32-0.16l-0.14,0.33l-0.1,0.24c-0.01,0.02-1.23,2.94-5.17,2.94
		c-1.06,0-2.22-0.21-3.44-0.61c-0.97-0.31-1.66-0.53-2.24-0.7v3.39c0,0.37,0,1-0.01,1.73c-0.01,1.64-0.02,4.39,0.01,5
		c0.11,2.61,0.67,3,4.28,3c1.01,0,2.69,0,3.65-0.41c0.92-0.39,1.35-1.11,1.61-2.66c0.06-0.33,0.11-0.79,0.43-0.79
		c0.41,0,0.45,0.54,0.45,0.83c0,0.36-0.32,3.05-0.52,3.88C325.47,149.22,325.16,149.22,323.65,149.22L323.65,149.22L323.65,149.22z"
		/>
	<path class="st3" d="M381.29,149.46c-4.07,0-6.61-0.11-8.12-0.18c-0.72-0.03-1.19-0.06-1.52-0.06l-0.21,0.01l-0.43,0.01l-0.21,0.01
		l-0.39,0.01c-0.85,0.03-1.92,0.08-2.59,0.08c-0.51,0-1.11-0.17-1.11-0.63c0-0.37,0.28-0.74,0.8-0.74c0.25,0,0.65-0.05,1.07-0.14
		c0.47-0.1,0.62-0.93,0.75-1.92c0.19-1.62,0.19-4.65,0.19-8.49v-3.79c-0.09,0-0.19,0-0.28,0c-0.67,0-1.43,0.03-2.49,0.11l-0.19,0.02
		l-0.16-0.18l-0.09-0.28l-0.06-0.18l0.12-0.2l0,0l0.1-0.06c0.3-0.19,1.4-0.81,3.06-1.28v-1.07c0-6.14,0-7.24-0.08-8.48
		c-0.07-1.18-0.28-1.81-1.29-2.03c-0.28-0.07-0.89-0.11-1.22-0.11c-0.74,0-0.8-0.47-0.8-0.62c0-0.21,0.11-0.68,1.11-0.68
		c1.35,0,3.18,0.07,3.85,0.1l0.32,0.01l0.24,0.01c0.07,0,8.02,0,8.91-0.04c0.66-0.03,1.28-0.1,1.57-0.18l0.16-0.07
		c0.12-0.06,0.29-0.15,0.51-0.15c0.54,0,0.54,0.63,0.54,0.84c0,0.17-0.04,0.34-0.09,0.57c-0.08,0.34-0.16,0.74-0.23,1.34
		c-0.01,0.11-0.02,0.33-0.04,0.6l-0.01,0.17c-0.04,0.73-0.09,1.53-0.15,1.86c-0.08,0.44-0.22,0.85-0.65,0.85
		c-0.2,0-0.66-0.11-0.66-1.09c0-0.26-0.04-0.85-0.2-1.24c-0.17-0.38-0.47-0.72-2.5-0.95c-0.55-0.07-3.95-0.11-5.04-0.11l0,9.93
		c1.31,0.03,2.62,0.26,3.9,0.67c1.29,0.42,2.54,0.63,3.72,0.63c1.64,0,2.53-0.42,2.55-0.42l0.24-0.12l0.33-0.16l0.57-0.27
		l-0.24,0.58l-0.13,0.33l-0.1,0.25c-0.01,0.01-1.29,3.09-5.39,3.09c-1.08,0-2.27-0.21-3.52-0.63c-0.79-0.26-1.4-0.45-1.92-0.61v3.06
		c0,0.38,0,1-0.01,1.74l0,0.32c-0.01,1.63-0.02,4.1,0.01,4.66c0.1,2.35,0.41,2.77,4.04,2.77c0.98,0,2.64,0,3.55-0.39
		c0.83-0.36,1.22-1.01,1.47-2.47c0.08-0.43,0.18-1,0.67-1c0.21,0,0.69,0.1,0.69,1.08c0,0.36-0.33,3.1-0.52,3.93
		C383.3,149.46,382.79,149.46,381.29,149.46L381.29,149.46L381.29,149.46z"/>
	<path class="st4" d="M381.29,149.46c-4.07,0-6.61-0.11-8.12-0.18c-0.72-0.03-1.19-0.06-1.52-0.06l-0.21,0.01l-0.43,0.01l-0.21,0.01
		l-0.39,0.01c-0.85,0.03-1.92,0.08-2.59,0.08c-0.51,0-1.11-0.17-1.11-0.63c0-0.37,0.28-0.74,0.8-0.74c0.25,0,0.65-0.05,1.07-0.14
		c0.47-0.1,0.62-0.93,0.75-1.92c0.19-1.62,0.19-4.65,0.19-8.49v-3.79c-0.09,0-0.19,0-0.28,0c-0.67,0-1.43,0.03-2.49,0.11l-0.19,0.02
		l-0.16-0.18l-0.09-0.28l-0.06-0.18l0.12-0.2l0,0l0.1-0.06c0.3-0.19,1.4-0.81,3.06-1.28v-1.07c0-6.14,0-7.24-0.08-8.48
		c-0.07-1.18-0.28-1.81-1.29-2.03c-0.28-0.07-0.89-0.11-1.22-0.11c-0.74,0-0.8-0.47-0.8-0.62c0-0.21,0.11-0.68,1.11-0.68
		c1.35,0,3.18,0.07,3.85,0.1l0.32,0.01l0.24,0.01c0.07,0,8.02,0,8.91-0.04c0.66-0.03,1.28-0.1,1.57-0.18l0.16-0.07
		c0.12-0.06,0.29-0.15,0.51-0.15c0.54,0,0.54,0.63,0.54,0.84c0,0.17-0.04,0.34-0.09,0.57c-0.08,0.34-0.16,0.74-0.23,1.34
		c-0.01,0.11-0.02,0.33-0.04,0.6l-0.01,0.17c-0.04,0.73-0.09,1.53-0.15,1.86c-0.08,0.44-0.22,0.85-0.65,0.85
		c-0.2,0-0.66-0.11-0.66-1.09c0-0.26-0.04-0.85-0.2-1.24c-0.17-0.38-0.47-0.72-2.5-0.95c-0.55-0.07-3.95-0.11-5.04-0.11l0,9.93
		c1.31,0.03,2.62,0.26,3.9,0.67c1.29,0.42,2.54,0.63,3.72,0.63c1.64,0,2.53-0.42,2.55-0.42l0.24-0.12l0.33-0.16l0.57-0.27
		l-0.24,0.58l-0.13,0.33l-0.1,0.25c-0.01,0.01-1.29,3.09-5.39,3.09c-1.08,0-2.27-0.21-3.52-0.63c-0.79-0.26-1.4-0.45-1.92-0.61v3.06
		c0,0.38,0,1-0.01,1.74l0,0.32c-0.01,1.63-0.02,4.1,0.01,4.66c0.1,2.35,0.41,2.77,4.04,2.77c0.98,0,2.64,0,3.55-0.39
		c0.83-0.36,1.22-1.01,1.47-2.47c0.08-0.43,0.18-1,0.67-1c0.21,0,0.69,0.1,0.69,1.08c0,0.36-0.33,3.1-0.52,3.93
		C383.3,149.46,382.79,149.46,381.29,149.46L381.29,149.46L381.29,149.46z"/>
	<path class="st3" d="M381.29,149.22c-4.07,0-6.61-0.12-8.12-0.18c-0.72-0.03-1.19-0.05-1.52-0.05l-0.22,0.01l-0.43,0.02l-0.21,0.01
		c-0.89,0.03-2.2,0.09-2.97,0.09c-0.24,0-0.86-0.06-0.86-0.38c0-0.24,0.17-0.49,0.55-0.49c0.28,0,0.69-0.06,1.12-0.15
		c0.64-0.13,0.8-1.1,0.94-2.13c0.2-1.64,0.2-4.68,0.2-8.52v-4.03c-0.17-0.01-0.35-0.01-0.53-0.01c-0.67,0-1.44,0.03-2.51,0.11
		l-0.11,0.01l-0.03-0.1l-0.06-0.19l-0.03-0.1l0.09-0.06c0.01-0.01,1.23-0.78,3.18-1.31v-1.26c0-6.14,0-7.25-0.08-8.5
		c-0.07-1.2-0.3-2-1.49-2.25c-0.3-0.08-0.94-0.11-1.28-0.11c-0.31,0-0.55-0.1-0.55-0.38c0-0.41,0.63-0.44,0.87-0.44
		c1.38,0,3.27,0.07,3.89,0.1l0.26,0.01l0.25,0.01c0.08,0,8.04,0,8.93-0.04c0.69-0.04,1.31-0.11,1.62-0.18
		c0.07-0.01,0.12-0.05,0.19-0.08c0.11-0.06,0.24-0.13,0.42-0.13c0.15,0,0.29,0.08,0.29,0.6c0,0.14-0.03,0.29-0.08,0.51
		c-0.06,0.28-0.16,0.7-0.23,1.36c-0.01,0.11-0.02,0.34-0.04,0.61l-0.01,0.17c-0.04,0.67-0.09,1.51-0.15,1.84
		c-0.1,0.53-0.22,0.64-0.4,0.64c-0.21,0-0.42-0.18-0.42-0.85c0-0.3-0.04-0.91-0.21-1.33c-0.23-0.54-0.7-0.88-2.7-1.1
		c-0.64-0.08-4.77-0.12-5.31-0.12c0,0.01-0.01,0.06-0.01,0.15v10.27c1.38,0.01,2.75,0.23,4.07,0.66c1.32,0.43,2.6,0.64,3.8,0.64
		c1.69,0,2.65-0.44,2.65-0.44l0.24-0.12l0.32-0.16l-0.13,0.33l-0.1,0.24c-0.01,0.02-1.23,2.94-5.17,2.94
		c-1.06,0-2.22-0.21-3.44-0.61c-0.96-0.31-1.66-0.53-2.24-0.7v3.39c0,0.37,0,1-0.01,1.73c-0.01,1.64-0.02,4.39,0.01,5
		c0.11,2.61,0.67,3,4.28,3c1.01,0,2.69,0,3.65-0.41c0.92-0.39,1.35-1.11,1.61-2.66c0.06-0.33,0.11-0.79,0.43-0.79
		c0.4,0,0.45,0.54,0.45,0.83c0,0.36-0.32,3.05-0.52,3.88C383.11,149.22,382.79,149.22,381.29,149.22L381.29,149.22L381.29,149.22z"
		/>
	<path class="st4" d="M381.29,149.22c-4.07,0-6.61-0.12-8.12-0.18c-0.72-0.03-1.19-0.05-1.52-0.05l-0.22,0.01l-0.43,0.02l-0.21,0.01
		c-0.89,0.03-2.2,0.09-2.97,0.09c-0.24,0-0.86-0.06-0.86-0.38c0-0.24,0.17-0.49,0.55-0.49c0.28,0,0.69-0.06,1.12-0.15
		c0.64-0.13,0.8-1.1,0.94-2.13c0.2-1.64,0.2-4.68,0.2-8.52v-4.03c-0.17-0.01-0.35-0.01-0.53-0.01c-0.67,0-1.44,0.03-2.51,0.11
		l-0.11,0.01l-0.03-0.1l-0.06-0.19l-0.03-0.1l0.09-0.06c0.01-0.01,1.23-0.78,3.18-1.31v-1.26c0-6.14,0-7.25-0.08-8.5
		c-0.07-1.2-0.3-2-1.49-2.25c-0.3-0.08-0.94-0.11-1.28-0.11c-0.31,0-0.55-0.1-0.55-0.38c0-0.41,0.63-0.44,0.87-0.44
		c1.38,0,3.27,0.07,3.89,0.1l0.26,0.01l0.25,0.01c0.08,0,8.04,0,8.93-0.04c0.69-0.04,1.31-0.11,1.62-0.18
		c0.07-0.01,0.12-0.05,0.19-0.08c0.11-0.06,0.24-0.13,0.42-0.13c0.15,0,0.29,0.08,0.29,0.6c0,0.14-0.03,0.29-0.08,0.51
		c-0.06,0.28-0.16,0.7-0.23,1.36c-0.01,0.11-0.02,0.34-0.04,0.61l-0.01,0.17c-0.04,0.67-0.09,1.51-0.15,1.84
		c-0.1,0.53-0.22,0.64-0.4,0.64c-0.21,0-0.42-0.18-0.42-0.85c0-0.3-0.04-0.91-0.21-1.33c-0.23-0.54-0.7-0.88-2.7-1.1
		c-0.64-0.08-4.77-0.12-5.31-0.12c0,0.01-0.01,0.06-0.01,0.15v10.27c1.38,0.01,2.75,0.23,4.07,0.66c1.32,0.43,2.6,0.64,3.8,0.64
		c1.69,0,2.65-0.44,2.65-0.44l0.24-0.12l0.32-0.16l-0.13,0.33l-0.1,0.24c-0.01,0.02-1.23,2.94-5.17,2.94
		c-1.06,0-2.22-0.21-3.44-0.61c-0.96-0.31-1.66-0.53-2.24-0.7v3.39c0,0.37,0,1-0.01,1.73c-0.01,1.64-0.02,4.39,0.01,5
		c0.11,2.61,0.67,3,4.28,3c1.01,0,2.69,0,3.65-0.41c0.92-0.39,1.35-1.11,1.61-2.66c0.06-0.33,0.11-0.79,0.43-0.79
		c0.4,0,0.45,0.54,0.45,0.83c0,0.36-0.32,3.05-0.52,3.88C383.11,149.22,382.79,149.22,381.29,149.22L381.29,149.22L381.29,149.22z"
		/>
	<path class="st3" d="M360.74,82.49l-3.28,10.03c1.04-0.31,2.49-0.62,4.15-0.62c0.83,0,1.67,0.08,2.5,0.23
		C363.36,89.6,361.48,84.49,360.74,82.49L360.74,82.49L360.74,82.49z M375.84,106.23c-2.06,0-4.24-0.03-6.14-0.08l-0.78-0.01
		l-0.36-0.01c-0.64-0.02-1.36-0.04-1.36-0.65c0-0.44,0.37-0.58,0.64-0.66l0.02-0.01l0.11-0.01c0.53-0.04,0.71-0.08,0.77-0.1
		c-0.03,0-0.03-0.11-0.14-0.4l-0.11-0.29c-1.27-3.39-2.25-5.99-2.93-7.73c-0.56-0.11-1.13-0.26-1.68-0.44
		c-3.04-1-4.4-1.33-6.44-1.33c-0.21,0-0.43,0-0.65,0.01c-0.46,1.43-1.58,4.76-2.09,6.31c-0.15,0.46-0.25,0.76-0.26,0.8
		c-0.23,0.73-0.53,1.77-0.53,2.51c0,0.49,0.7,0.71,1.05,0.71h0.67c0.54,0,0.82,0.22,0.82,0.67c0,0.69-0.77,0.69-1.07,0.69
		c-0.57,0-1.68-0.04-2.36-0.07c-0.43-0.02-0.81-0.04-0.97-0.04c-0.13,0-0.44,0.01-0.85,0.03l-0.13,0c-0.96,0.04-2.25,0.08-3.43,0.08
		l-0.13,0l-0.21,0.01c-0.15,0-0.37-0.01-0.55-0.1c-0.22-0.11-0.34-0.32-0.34-0.59c0-0.4,0.35-0.67,0.89-0.67
		c0.26,0,0.78-0.03,1.07-0.07c1.42-0.19,2.09-1.36,2.83-3.44l8.86-24.49c0.47-1.29,0.7-1.86,1.31-1.86c0.62,0,0.88,0.59,1.31,1.74
		c0.16,0.4,0.71,1.86,1.48,3.9l0.21,0.55l0.35,0.93l0.37,0.98c1.16,3.04,2.56,6.74,3.84,10.1c0.22,0.01,0.43,0.02,0.64,0.02
		c1.62,0,2.55-0.42,2.55-0.42l0.24-0.11l0.32-0.15l0.56-0.27l-0.23,0.58l-0.13,0.33l-0.1,0.25c-0.19,0.43-0.94,1.83-2.78,2.6
		c0.68,1.77,1.29,3.33,1.76,4.5c1.32,3.31,2.31,3.97,3.03,4.18c0.43,0.15,0.91,0.22,1.43,0.22c0.24,0,0.88,0,0.88,0.63
		C377.11,106.23,376.25,106.23,375.84,106.23L375.84,106.23L375.84,106.23z"/>
	<path class="st4" d="M360.74,82.49l-3.28,10.03c1.04-0.31,2.49-0.62,4.15-0.62c0.83,0,1.67,0.08,2.5,0.23
		C363.36,89.6,361.48,84.49,360.74,82.49L360.74,82.49L360.74,82.49z M375.84,106.23c-2.06,0-4.24-0.03-6.14-0.08l-0.78-0.01
		l-0.36-0.01c-0.64-0.02-1.36-0.04-1.36-0.65c0-0.44,0.37-0.58,0.64-0.66l0.02-0.01l0.11-0.01c0.53-0.04,0.71-0.08,0.77-0.1
		c-0.03,0-0.03-0.11-0.14-0.4l-0.11-0.29c-1.27-3.39-2.25-5.99-2.93-7.73c-0.56-0.11-1.13-0.26-1.68-0.44
		c-3.04-1-4.4-1.33-6.44-1.33c-0.21,0-0.43,0-0.65,0.01c-0.46,1.43-1.58,4.76-2.09,6.31c-0.15,0.46-0.25,0.76-0.26,0.8
		c-0.23,0.73-0.53,1.77-0.53,2.51c0,0.49,0.7,0.71,1.05,0.71h0.67c0.54,0,0.82,0.22,0.82,0.67c0,0.69-0.77,0.69-1.07,0.69
		c-0.57,0-1.68-0.04-2.36-0.07c-0.43-0.02-0.81-0.04-0.97-0.04c-0.13,0-0.44,0.01-0.85,0.03l-0.13,0c-0.96,0.04-2.25,0.08-3.43,0.08
		l-0.13,0l-0.21,0.01c-0.15,0-0.37-0.01-0.55-0.1c-0.22-0.11-0.34-0.32-0.34-0.59c0-0.4,0.35-0.67,0.89-0.67
		c0.26,0,0.78-0.03,1.07-0.07c1.42-0.19,2.09-1.36,2.83-3.44l8.86-24.49c0.47-1.29,0.7-1.86,1.31-1.86c0.62,0,0.88,0.59,1.31,1.74
		c0.16,0.4,0.71,1.86,1.48,3.9l0.21,0.55l0.35,0.93l0.37,0.98c1.16,3.04,2.56,6.74,3.84,10.1c0.22,0.01,0.43,0.02,0.64,0.02
		c1.62,0,2.55-0.42,2.55-0.42l0.24-0.11l0.32-0.15l0.56-0.27l-0.23,0.58l-0.13,0.33l-0.1,0.25c-0.19,0.43-0.94,1.83-2.78,2.6
		c0.68,1.77,1.29,3.33,1.76,4.5c1.32,3.31,2.31,3.97,3.03,4.18c0.43,0.15,0.91,0.22,1.43,0.22c0.24,0,0.88,0,0.88,0.63
		C377.11,106.23,376.25,106.23,375.84,106.23L375.84,106.23L375.84,106.23z"/>
	<path class="st3" d="M360.73,81.76c-0.02,0.04-0.04,0.1-0.06,0.17l-3.58,10.96c1.08-0.36,2.67-0.76,4.53-0.76
		c0.96,0,1.92,0.11,2.85,0.31c-0.67-2.35-2.74-7.99-3.61-10.36l-0.05-0.14C360.77,81.86,360.75,81.8,360.73,81.76L360.73,81.76
		L360.73,81.76z M375.84,105.98c-2.18,0-4.35-0.03-6.13-0.08l-0.79-0.01c-0.74-0.04-1.48,0.03-1.48-0.42c0-0.18,0.08-0.32,0.46-0.42
		c0.02-0.01,0.76-0.03,0.96-0.14c0.15-0.08,0.09-0.34-0.03-0.69l-0.11-0.29c-1.3-3.48-2.3-6.12-2.98-7.86
		c-0.57-0.1-1.17-0.26-1.79-0.46c-3.08-1.01-4.45-1.35-6.52-1.35c-0.26,0-0.54,0.01-0.83,0.02c-0.43,1.32-1.61,4.86-2.15,6.47
		c-0.16,0.48-0.26,0.79-0.27,0.81c-0.25,0.8-0.54,1.82-0.54,2.57c0,0.66,0.81,0.95,1.29,0.95h0.67c0.55,0,0.58,0.25,0.58,0.43
		c0,0.25-0.14,0.44-0.82,0.44c-0.57,0-1.68-0.04-2.35-0.08c-0.44-0.02-0.82-0.04-0.98-0.04c-0.13,0-0.44,0.01-0.86,0.03
		c-0.96,0.04-2.32,0.09-3.54,0.09c-0.3,0-0.98,0.12-0.98-0.44c0-0.28,0.29-0.43,0.64-0.43c0.27,0,0.8-0.04,1.1-0.07
		c1.59-0.21,2.31-1.57,3.03-3.6l8.86-24.49c0.48-1.34,0.67-1.7,1.09-1.7c0.42,0,0.62,0.36,1.08,1.58c0.17,0.43,0.81,2.12,1.69,4.45
		l0.35,0.93c1.23,3.25,2.83,7.46,4.27,11.22c0.28,0.02,0.55,0.03,0.82,0.03c1.69,0,2.65-0.44,2.66-0.45l0.24-0.11l0.32-0.15
		l-0.13,0.33l-0.1,0.25c-0.08,0.19-0.82,1.8-2.87,2.55c0.72,1.86,1.36,3.51,1.84,4.73c1.32,3.31,2.36,4.08,3.19,4.32
		c0.45,0.15,0.95,0.23,1.5,0.23c0.42,0,0.63,0.07,0.63,0.39C376.87,105.88,376.52,105.98,375.84,105.98L375.84,105.98L375.84,105.98
		z"/>
	<path class="st4" d="M360.73,81.76c-0.02,0.04-0.04,0.1-0.06,0.17l-3.58,10.96c1.08-0.36,2.67-0.76,4.53-0.76
		c0.96,0,1.92,0.11,2.85,0.31c-0.67-2.35-2.74-7.99-3.61-10.36l-0.05-0.14C360.77,81.86,360.75,81.8,360.73,81.76L360.73,81.76
		L360.73,81.76z M375.84,105.98c-2.18,0-4.35-0.03-6.13-0.08l-0.79-0.01c-0.74-0.04-1.48,0.03-1.48-0.42c0-0.18,0.08-0.32,0.46-0.42
		c0.02-0.01,0.76-0.03,0.96-0.14c0.15-0.08,0.09-0.34-0.03-0.69l-0.11-0.29c-1.3-3.48-2.3-6.12-2.98-7.86
		c-0.57-0.1-1.17-0.26-1.79-0.46c-3.08-1.01-4.45-1.35-6.52-1.35c-0.26,0-0.54,0.01-0.83,0.02c-0.43,1.32-1.61,4.86-2.15,6.47
		c-0.16,0.48-0.26,0.79-0.27,0.81c-0.25,0.8-0.54,1.82-0.54,2.57c0,0.66,0.81,0.95,1.29,0.95h0.67c0.55,0,0.58,0.25,0.58,0.43
		c0,0.25-0.14,0.44-0.82,0.44c-0.57,0-1.68-0.04-2.35-0.08c-0.44-0.02-0.82-0.04-0.98-0.04c-0.13,0-0.44,0.01-0.86,0.03
		c-0.96,0.04-2.32,0.09-3.54,0.09c-0.3,0-0.98,0.12-0.98-0.44c0-0.28,0.29-0.43,0.64-0.43c0.27,0,0.8-0.04,1.1-0.07
		c1.59-0.21,2.31-1.57,3.03-3.6l8.86-24.49c0.48-1.34,0.67-1.7,1.09-1.7c0.42,0,0.62,0.36,1.08,1.58c0.17,0.43,0.81,2.12,1.69,4.45
		l0.35,0.93c1.23,3.25,2.83,7.46,4.27,11.22c0.28,0.02,0.55,0.03,0.82,0.03c1.69,0,2.65-0.44,2.66-0.45l0.24-0.11l0.32-0.15
		l-0.13,0.33l-0.1,0.25c-0.08,0.19-0.82,1.8-2.87,2.55c0.72,1.86,1.36,3.51,1.84,4.73c1.32,3.31,2.36,4.08,3.19,4.32
		c0.45,0.15,0.95,0.23,1.5,0.23c0.42,0,0.63,0.07,0.63,0.39C376.87,105.88,376.52,105.98,375.84,105.98L375.84,105.98L375.84,105.98
		z"/>
	<path class="st3" d="M417.23,118.56L417.23,118.56c-4.66,0-7.81-0.88-9.9-2.77c-4.85-4.36-7.97-9.73-10.47-14.05
		c-1.41-2.44-2.6-4.49-3.85-6.03c-0.23-0.31-1.25-1.4-1.94-1.81c-0.24-0.14-0.49-0.23-0.7-0.31c-0.11-0.04-0.21-0.07-0.3-0.09
		c-0.2-0.05-0.43-0.1-0.58-0.33c-0.05-0.08-0.09-0.18-0.09-0.31c0-0.33,0.31-0.45,0.49-0.52c0.33-0.14,0.65-0.27,0.76-0.27
		c1.55-0.48,2.58-1.36,3.22-1.99c0.55-0.54,0.74-0.96,0.76-1c0.51-1.07,0.77-2.39,0.77-3.93c-0.01-4.62-2.35-7.39-6.27-7.4
		c-1.11,0-2.12,0.11-2.46,0.21l0.02,16.42c0,3.69,0,6.88,0.2,8.51c0.14,1.31,0.39,1.71,1.11,1.82c0.51,0.07,1.36,0.15,1.69,0.15
		c0.55,0,0.79,0.32,0.79,0.64c-0.01,0.47-0.39,0.71-1.11,0.71c-1.6,0-3.33-0.06-4.26-0.09c-0.34-0.02-0.49-0.02-0.53-0.02
		l-0.13,0.01c-1.57,0.07-2.94,0.11-3.67,0.11c-0.92,0-1.11-0.39-1.11-0.71c0-0.32,0.24-0.64,0.79-0.64c0.32,0,0.9-0.08,1.19-0.15
		c0.39-0.07,0.6-0.58,0.78-1.83c0.19-1.62,0.19-4.65,0.19-8.5v-6.94c0-6.13,0-7.24-0.08-8.49c-0.08-1.22-0.28-1.63-1.3-1.87
		c-0.26-0.07-0.88-0.11-1.22-0.11c-0.47,0-0.78-0.25-0.79-0.64c0-0.27,0.11-0.71,0.85-0.71l0.18,0c1.04,0.01,2.39,0.04,4,0.1
		l0.19,0.01l0.3,0.01c0.15,0,0.66-0.02,1.29-0.04l0.59-0.02c0.98-0.03,2.09-0.06,2.72-0.06c2.55,0,5.23,0.13,7.42,1.72
		c0.95,0.69,2.62,2.67,2.89,5.71c0.04,0.47,0.06,0.93,0.06,1.38c0,2.34-0.57,4.28-1.69,5.75c-0.68,0.87-2.61,2.25-3.19,2.44
		c0,0,0,0,0,0c0.57,0.51,1.97,1.59,2.35,1.87c2.25,2.02,4.36,4.87,6.3,8.49c5.06,9.47,10.03,14.08,15.19,14.08
		c0.2,0,0.39-0.01,0.58-0.01c0.34,0.01,0.69,0.18,0.69,0.54c0,0.27-0.09,0.5-0.48,0.66C419.02,118.42,418.06,118.55,417.23,118.56
		L417.23,118.56L417.23,118.56z"/>
	<g>
		<defs>
			<rect id="SVGID_1_" x="19.99" y="8.56" width="400.35" height="171.39"/>
		</defs>
		<clipPath id="SVGID_2_">
			<use xlink:href="#SVGID_1_"  style="overflow:visible;"/>
		</clipPath>
		<path class="st5" d="M417.23,118.56L417.23,118.56c-4.66,0-7.81-0.88-9.9-2.77c-4.85-4.36-7.97-9.73-10.47-14.05
			c-1.41-2.44-2.6-4.49-3.85-6.03c-0.23-0.31-1.25-1.4-1.94-1.81c-0.24-0.14-0.49-0.23-0.7-0.31c-0.11-0.04-0.21-0.07-0.3-0.09
			c-0.2-0.05-0.43-0.1-0.58-0.33c-0.05-0.08-0.09-0.18-0.09-0.31c0-0.33,0.31-0.45,0.49-0.52c0.33-0.14,0.65-0.27,0.76-0.27
			c1.55-0.48,2.58-1.36,3.22-1.99c0.55-0.54,0.74-0.96,0.76-1c0.51-1.07,0.77-2.39,0.77-3.93c-0.01-4.62-2.35-7.39-6.27-7.4
			c-1.11,0-2.12,0.11-2.46,0.21l0.02,16.42c0,3.69,0,6.88,0.2,8.51c0.14,1.31,0.39,1.71,1.11,1.82c0.51,0.07,1.36,0.15,1.69,0.15
			c0.55,0,0.79,0.32,0.79,0.64c-0.01,0.47-0.39,0.71-1.11,0.71c-1.6,0-3.33-0.06-4.26-0.09c-0.34-0.02-0.49-0.02-0.53-0.02
			l-0.13,0.01c-1.57,0.07-2.94,0.11-3.67,0.11c-0.92,0-1.11-0.39-1.11-0.71c0-0.32,0.24-0.64,0.79-0.64c0.32,0,0.9-0.08,1.19-0.15
			c0.39-0.07,0.6-0.58,0.78-1.83c0.19-1.62,0.19-4.65,0.19-8.5v-6.94c0-6.13,0-7.24-0.08-8.49c-0.08-1.22-0.28-1.63-1.3-1.87
			c-0.26-0.07-0.88-0.11-1.22-0.11c-0.47,0-0.78-0.25-0.79-0.64c0-0.27,0.11-0.71,0.85-0.71l0.18,0c1.04,0.01,2.39,0.04,4,0.1
			l0.19,0.01l0.3,0.01c0.15,0,0.66-0.02,1.29-0.04l0.59-0.02c0.98-0.03,2.09-0.06,2.72-0.06c2.55,0,5.23,0.13,7.42,1.72
			c0.95,0.69,2.62,2.67,2.89,5.71c0.04,0.47,0.06,0.93,0.06,1.38c0,2.34-0.57,4.28-1.69,5.75c-0.68,0.87-2.61,2.25-3.19,2.44
			c0,0,0,0,0,0c0.57,0.51,1.97,1.59,2.35,1.87c2.25,2.02,4.36,4.87,6.3,8.49c5.06,9.47,10.03,14.08,15.19,14.08
			c0.2,0,0.39-0.01,0.58-0.01c0.34,0.01,0.69,0.18,0.69,0.54c0,0.27-0.09,0.5-0.48,0.66C419.02,118.42,418.06,118.55,417.23,118.56
			L417.23,118.56L417.23,118.56z"/>
	</g>
	<path class="st3" d="M417.23,118.32c-4.41,0-7.6-0.78-9.74-2.7c-4.83-4.34-7.93-9.7-10.43-14c-1.39-2.41-2.6-4.49-3.87-6.05
		c-0.22-0.29-1.26-1.42-2.01-1.87c-0.26-0.15-0.52-0.24-0.74-0.33c-0.34-0.13-0.61-0.09-0.76-0.32c-0.03-0.06-0.05-0.11-0.05-0.18
		c0-0.19,0.24-0.25,0.44-0.33c0.19-0.08,0.51-0.21,0.57-0.21c1.75-0.53,2.81-1.49,3.38-2.06c0.62-0.61,0.82-1.08,0.82-1.08
		c0.52-1.09,0.79-2.44,0.79-4.02c-0.01-4.78-2.44-7.64-6.51-7.64c-1.15,0-2.18,0.11-2.53,0.22c-0.11,0.05-0.15,0.11-0.15,0.25v16.4
		c0,3.7,0,6.89,0.2,8.53c0.13,1.22,0.37,1.89,1.31,2.03c0.53,0.08,1.38,0.16,1.72,0.16c0.36,0,0.55,0.17,0.55,0.4
		c-0.01,0.21-0.13,0.47-0.87,0.47c-1.66,0-3.48-0.07-4.35-0.1c-0.24-0.01-0.4-0.02-0.44-0.02l-0.15,0.01
		c-1.67,0.07-2.99,0.11-3.66,0.11c-0.21,0-0.87,0-0.87-0.47c0-0.23,0.19-0.4,0.55-0.4c0.34,0,0.94-0.08,1.24-0.15
		c0.58-0.11,0.79-0.85,0.96-2.03c0.19-1.64,0.19-4.68,0.19-8.53v-6.94c0-6.14,0-7.25-0.08-8.5c-0.09-1.29-0.32-1.82-1.49-2.09
		c-0.28-0.07-0.93-0.11-1.27-0.11c-0.27,0-0.54-0.1-0.55-0.41c0-0.56,0.65-0.45,0.87-0.45c1.33,0,3.07,0.07,3.9,0.1
		c0.27,0.01,0.46,0.02,0.5,0.02c0.15,0,0.66-0.01,1.3-0.03c1.08-0.03,2.54-0.08,3.3-0.08c2.38,0,5.11,0.1,7.28,1.67
		c0.91,0.66,2.52,2.58,2.79,5.54c0.04,0.46,0.06,0.91,0.06,1.36c0,2.29-0.55,4.17-1.65,5.6c-0.64,0.83-2.52,2.18-3.07,2.35
		c-0.22,0.06-0.32,0.13-0.36,0.15c0.01,0,0.03,0.05,0.09,0.11c0.28,0.31,2.17,1.76,2.53,2.03c2.22,1.99,4.31,4.82,6.23,8.41
		c5.06,9.48,10.1,14.21,15.4,14.21c0.21,0,0.4-0.01,0.59-0.01c0,0,0.44,0.01,0.44,0.3v0.1c0,0.12-0.08,0.24-0.33,0.33
		C418.96,118.19,418,118.31,417.23,118.32L417.23,118.32L417.23,118.32z"/>
	<g>
		<defs>
			<rect id="SVGID_3_" x="19.99" y="8.56" width="400.35" height="171.39"/>
		</defs>
		<clipPath id="SVGID_4_">
			<use xlink:href="#SVGID_3_"  style="overflow:visible;"/>
		</clipPath>
		<path class="st6" d="M417.23,118.32c-4.41,0-7.6-0.78-9.74-2.7c-4.83-4.34-7.93-9.7-10.43-14c-1.39-2.41-2.6-4.49-3.87-6.05
			c-0.22-0.29-1.26-1.42-2.01-1.87c-0.26-0.15-0.52-0.24-0.74-0.33c-0.34-0.13-0.61-0.09-0.76-0.32c-0.03-0.06-0.05-0.11-0.05-0.18
			c0-0.19,0.24-0.25,0.44-0.33c0.19-0.08,0.51-0.21,0.57-0.21c1.75-0.53,2.81-1.49,3.38-2.06c0.62-0.61,0.82-1.08,0.82-1.08
			c0.52-1.09,0.79-2.44,0.79-4.02c-0.01-4.78-2.44-7.64-6.51-7.64c-1.15,0-2.18,0.11-2.53,0.22c-0.11,0.05-0.15,0.11-0.15,0.25v16.4
			c0,3.7,0,6.89,0.2,8.53c0.13,1.22,0.37,1.89,1.31,2.03c0.53,0.08,1.38,0.16,1.72,0.16c0.36,0,0.55,0.17,0.55,0.4
			c-0.01,0.21-0.13,0.47-0.87,0.47c-1.66,0-3.48-0.07-4.35-0.1c-0.24-0.01-0.4-0.02-0.44-0.02l-0.15,0.01
			c-1.67,0.07-2.99,0.11-3.66,0.11c-0.21,0-0.87,0-0.87-0.47c0-0.23,0.19-0.4,0.55-0.4c0.34,0,0.94-0.08,1.24-0.15
			c0.58-0.11,0.79-0.85,0.96-2.03c0.19-1.64,0.19-4.68,0.19-8.53v-6.94c0-6.14,0-7.25-0.08-8.5c-0.09-1.29-0.32-1.82-1.49-2.09
			c-0.28-0.07-0.93-0.11-1.27-0.11c-0.27,0-0.54-0.1-0.55-0.41c0-0.56,0.65-0.45,0.87-0.45c1.33,0,3.07,0.07,3.9,0.1
			c0.27,0.01,0.46,0.02,0.5,0.02c0.15,0,0.66-0.01,1.3-0.03c1.08-0.03,2.54-0.08,3.3-0.08c2.38,0,5.11,0.1,7.28,1.67
			c0.91,0.66,2.52,2.58,2.79,5.54c0.04,0.46,0.06,0.91,0.06,1.36c0,2.29-0.55,4.17-1.65,5.6c-0.64,0.83-2.52,2.18-3.07,2.35
			c-0.22,0.06-0.32,0.13-0.36,0.15c0.01,0,0.03,0.05,0.09,0.11c0.28,0.31,2.17,1.76,2.53,2.03c2.22,1.99,4.31,4.82,6.23,8.41
			c5.06,9.48,10.1,14.21,15.4,14.21c0.21,0,0.4-0.01,0.59-0.01c0,0,0.44,0.01,0.44,0.3v0.1c0,0.12-0.08,0.24-0.33,0.33
			C418.96,118.19,418,118.31,417.23,118.32L417.23,118.32L417.23,118.32z"/>
	</g>
	<polygon class="st3" points="89.09,76.17 102.51,34.81 118.63,69.83 103.41,8.56 82.01,65.86 19.99,65.86 74.62,101.38 
		48.96,76.17 89.09,76.17 	"/>
	<path class="st3" d="M191.57,58.59c0,0-48.27-6.02-95.07,30.09c0,0-41.13,34.12-46.85,91.27c0,0,23.49-65.49,66.19-90.97
		C158.54,63.5,170.47,64.06,191.57,58.59L191.57,58.59z"/>
	<polygon class="st3" points="72.97,160.3 102.83,120.88 137.59,143.26 121.94,106.4 161.09,78.78 135.62,109.62 152.75,161.76 
		103.56,134.5 72.97,160.3 	"/>
</g>
</svg>
