<svg id="Layer_1" data-name="Layer 1" xmlns="http://www.w3.org/2000/svg" viewBox="0 0 540 45.12"><defs><style>.cls-1{fill:#173b67;}.cls-2{fill:#b4213d;}.cls-3{fill:#fefefe;}.cls-4{fill:#1a3c68;}.cls-5{fill:#ecedf1;}.cls-6{fill:#e6e7ed;}.cls-7{fill:#e5e7ed;}.cls-8{fill:#eff0f4;}.cls-9{fill:#dfe1e8;}.cls-10{fill:#e1e3ea;}.cls-11{fill:#e8e9ee;}.cls-12{fill:#e9eaef;}.cls-13{fill:#e7e8ed;}.cls-14{fill:#e3e5eb;}.cls-15{fill:#ebebf0;}.cls-16{fill:#dcdee6;}.cls-17{fill:#1a3d69;}.cls-18{fill:#f9f1f0;}.cls-19{fill:#f6e9e9;}.cls-20{fill:#f5e4e2;}.cls-21{fill:#f2dcd9;}.cls-22{fill:#f4e1e0;}.cls-23{fill:#f1d9d8;}.cls-24{fill:#f8eeee;}.cls-25{fill:#edd1d0;}.cls-26{fill:#c4545f;}.cls-27{fill:#193c68;}.cls-28{fill:#1d3f6a;}.cls-29{fill:#b72a43;}</style></defs><title>OTSBanner</title><path class="cls-1" d="M145.64,169.72h420v44.64H148c-.79,0-1.59-.06-2.39-.1ZM263.38,189l-1.66,0-1,.22-.77.14c-3.09,1.07-4.78,3.11-4.82,5.79a6,6,0,0,0,4.67,5.91c1.86.41,3.93-.06,5.91-.2.09,0,.14-.63.21-1V200l-.05,0c.44.07,1,.35,1.32.17A5.21,5.21,0,0,0,270,195.3l0-.72c-.28-3.36-2.57-5.44-5.49-4.74l1,1-.78-.71.39-.64Zm112.18,11.55c1.14-.75,2.53-1.3,3.36-2.3a5.13,5.13,0,0,0,.46-5.84c-1.24-2.4-3.44-3.38-6.09-3.4a16.25,16.25,0,0,0-2.61,0,7.06,7.06,0,0,0-5.71,5.41,6,6,0,0,0,3.51,6.23,19.37,19.37,0,0,0,4.29,1.05Zm24.95.78c3.72-.27,6.35-2.46,6.7-5.55.36-3.29-1.31-5.65-4.87-6.53a19.39,19.39,0,0,0-3.75-.23c-3.75.52-6.28,2.79-6.54,5.87-.21,2.64,2,5.55,4.94,6.27A17.84,17.84,0,0,0,400.51,201.36Zm18.24,0c3.29-.16,3.29-.21,3.38-3.34a15.36,15.36,0,0,1,.58-2.79h-4c1.66,1.69,1.63,3.89,0,5.26a23.66,23.66,0,0,1-4.59-1.1,5.2,5.2,0,0,1-2.79-5.8,4.43,4.43,0,0,1,5-3.6,29.47,29.47,0,0,1,5.63,1.46V189a63.45,63.45,0,0,0-6.77,0c-5.2.58-7.85,6-4.75,9.81C412.54,201.4,415.6,201.77,418.75,201.37Zm46.19-12.15h-7.18v12.05h7.35c.12-.7.24-1.37.27-1.55-1.5.14-3.49.89-4.23.24s-.68-2.77-1-4.76l4.41.83.26-1.88h-4.2V190l4.28,1c0-.49,0-1.11,0-1.71l0,.1Zm-120.64,12,1.26-.06,0-.36-1.22-.39V189.88l.69-.37-.71-.19H342l-1.14.08v.31l1.08.29v4.2h-7.13l-.48-.59v-2.7a.26.26,0,0,0,0-.39l.95-1H332v11.71h4.19c-2.82-1.65-1.43-3.9-1.69-5.9h7.45v5.06l-.8.85.85.05ZM181.71,186.89c-3.94,0-6.72,1.47-8.07,4.43a6.82,6.82,0,0,0,1.1,7.59c2.4,2.93,7.91,3.52,11.56,1.35a7.44,7.44,0,0,0,3.44-8.23C189,188.92,185.84,186.93,181.71,186.89Zm179.64,14.7.77-.44V189.48h-1.93c.18,2.84.35,5.62.56,9l-10.82-9.69-.76.37v12.1c2-.26,1.92-.26,1.81-2.27s0-4.14,0-6.53ZM476,196.05c.63-.8,1.13-1.32,1.51-1.92a3,3,0,0,0-2.41-4.8c-1.9-.1-3.81,0-5.71,0v11.91h3.2c-.3-1.52-.6-3-.89-4.42,2.41-1,3.27.53,4.27,1.7,1.65,1.91,3.39,3.52,6,2.71ZM302.65,187c-3.8,0-7.54.12-11.26-.05-1.93-.08-2.39.65-2.23,1.93l5.76-.94c0,3.71.06,6.9,0,10.08a19.57,19.57,0,0,1-.69,3.26h4.68c-1.85-1.43-2.55-8.33-1.3-13.39l5.07,1.19ZM245,196.07v-1.38a16.4,16.4,0,0,1-3.87-1.47c-.34-.24,0-2.36.38-2.5a13.2,13.2,0,0,1,3.83-.12l.1-1.35h-8c2.13,1.86,1,4.05,1.15,6a48.77,48.77,0,0,1-.33,6.1c1.77,0,3.84,0,5.91,0,1.7,0,1.83-.87,1.75-1.62-1.64.14-3.7.85-4.23.24-.84-1-.64-2.83-1-4.8ZM234.81,189a74.43,74.43,0,0,0-8.82.57c-2.39.43-4,2.92-4.15,5.26a5.48,5.48,0,0,0,3.69,5.81,30.82,30.82,0,0,0,6.55.82c2.13.17,2.63-1.16,2.59-3.07-3.25,2.7-7.07,2.59-9.42-.18-1.81-2.13-1.83-5.8.28-7a8.53,8.53,0,0,1,4.74-1.08c1.46.13,2.84,1.21,4.22,1.85C234.54,191.48,234.63,190.63,234.81,189Zm93.29,9a5.73,5.73,0,0,1-8.45.94c-2.41-2-3-5.87-.72-7.54a8.11,8.11,0,0,1,4.87-1.32c1.45.06,2.86,1.15,4.25,1.76V189a62.67,62.67,0,0,0-8.1.47,5.62,5.62,0,0,0-4.54,5.46,5.54,5.54,0,0,0,4,5.85,27.83,27.83,0,0,0,6.35.66C327.78,201.49,328.31,200.25,328.1,198Zm187.6-8.57c-1.2-.15-2.3-.36-3.4-.42a18.73,18.73,0,0,0-3.35,0,6.43,6.43,0,0,0-5.78,4.94c-.55,2.6.31,5.31,2.85,6.18a29.06,29.06,0,0,0,8.35,1.11c1.29,0,1.57-1.08,1-2.8-2,2.43-5.58,2.6-8.2.38-2.3-1.95-2.85-5.75-.7-7.37a8,8,0,0,1,4.85-1.4c1.48.06,2.92,1.15,4.35,1.78ZM305,201.29h7.54c.14-.57.28-1.13.34-1.35-1.54,0-3.45.55-4.39-.17-.78-.6-.43-2.68-.64-4.57l4.31.81v-1.85h-4.09V190.1l4.4.75c0-.39.13-1,.2-1.59h-7.93C306.3,190.89,306.4,198.84,305,201.29Zm140.35-2.61c-.58,2.22-.32,2.66,2.15,2.84a4,4,0,0,0,2.12-.1c1.31-.75,3-1.54,3.51-2.74s-.27-2.91-1-4.06-2.33-1.68-3.24-2.75a10.13,10.13,0,0,1-1.23-3,14.48,14.48,0,0,1,3.48-.76c.51,0,1,1,1.77,1.76.07-1,.12-1.83.18-2.82-1.18-.06-2.13-.13-3.07-.15-1.87,0-3.6.39-4.25,2.39s.34,3.39,1.84,4.55a18.89,18.89,0,0,1,3,2.37,3.41,3.41,0,0,1,.89,2.65,2.87,2.87,0,0,1-2.36,1.5A14.41,14.41,0,0,1,445.35,198.68Zm81.93,1.18c-1.78.07-3.76.72-4.55,0s-.59-2.77-.89-4.74l4.43.87.27-1.86h-4.36v-4.06l4.48.75v-1.52h-7.82c2,1.83,1,4,1.12,5.89a55.24,55.24,0,0,1-.34,6.12c1.66,0,3.66-.07,5.64,0C526.87,201.42,527.48,200.78,527.28,199.86Zm-39.47-1.11c-1.52-3.51-2.74-6.3-4.05-9.33h-2.83l6.42,12.63,6.67-12.8h-2.65C491.23,192.66,489.09,195.14,487.81,198.75Zm-54.88,2.54a4.9,4.9,0,0,1-1-6.11c1.23-1.91,2.66-3.69,4.12-5.68h-1.94c-1.21,1.85-2.25,3.46-3.47,5.34l-3.63-5.5h-3.39c4.53,3.87,7.3,7.93,4.89,11.95ZM281,189.34h-8.69c1.89,1.75,2,9,.54,11.9h3.5c-.26-1.88-.51-3.74-.83-6.09l4.74.9.23-1.88h-4.58V190l4.78.78Zm-80.76,5.36c-1.69-.5-4.35-.75-4.44-1.38-.71-4.69,2.31-3,4.75-2.31l-.28-1.53h-6.93c.12,4,.93,7.91-.6,11.78h3.44l-.89-6.12,4.82.92Zm8.22,6.59c-2.39-1.7-1.65-3.75-1.55-6.11l4.41.94.14-2h-4.54v-4.09l4.82.69.11-1.31h-7.52v11.84ZM383.2,189.45c.34,4.08,1,8-.55,11.88,2.23,0,4.46-.05,6.69,0,1.76.05,2-.79,1.88-1.63-1.71.16-3.28.68-4.56.28-.63-.19-1-2.06-1.05-3.19-.16-2.44-.05-4.89-.05-7.36ZM215,201.22h4.45c-1.61-1.54-2-9.61-.58-11.92H215C216.52,191.21,216.45,198.94,215,201.22Zm285.76.06c-1.63-1.61-2-9.77-.57-12H496.7v12Zm32.33-12.2c-.84.52-2.08.86-2.42,1.6a3.78,3.78,0,0,0,.24,3c.58.95,1.81,1.5,2.69,2.3s2,1.49,2.12,2.34c.06.66-1.34,1.46-2.06,2.23a1.69,1.69,0,0,0-.32.54,3.37,3.37,0,0,0,1.25-.19c1-.51,2.54-1,2.87-1.79s-.18-2.43-.79-3.38a8.26,8.26,0,0,0-2.62-2C531.48,192.1,531.38,191.6,533.06,189.08Z" transform="translate(-25.64 -169.72)"/><path class="cls-2" d="M145.64,169.72l-.06,44.53c-.79,0-1.59.11-2.39.11H25.64V169.72Zm-28.09,35.14c3.47,1,3.88.69,4.83-3.44h-2.31c.65,1.57,1.14,3-1.33,2.9-2.28-.83-3-2.43-2.3-4.7,1.78-1.43,3.56-1.43,5.58-.1-.17-.78-.5-1.61-1-1.72-1.87-.42-3.78-.53-5.26,1.12C113.81,201.59,114.49,203.85,117.55,204.86Zm-26.64.29c2.22.26,4-.44,4.72-2.65.55-1.64.24-3.42-1.47-4.06-1.4-.53-3.1-.29-4.66-.39a3.67,3.67,0,0,0,1.41,7.1Zm26.9-10.22-.94-6,2.73.15.05-.64c-2.28-1-4.71-.59-7.13-.25-.73-.52-1.47-1.46-2.2-1.45a3.12,3.12,0,0,0-2.46,1.34c-.28.69.33,1.89.79,2.72.33.58,1.21.83,1.6,1.4a5.18,5.18,0,0,1,.44,1.81,7.84,7.84,0,0,1-2,.12c-.39-.06-.69-.58-1-.9l-.59.64c.62.54,1.33,1.59,1.82,1.5,1.21-.23,2.77-.7,3.36-1.61,1-1.49-.43-2.54-1.59-3.51a9.21,9.21,0,0,1-1.45-2.15c.82.09,1.64.21,2.46.26a3.14,3.14,0,0,0,.86-.23c.24,2.15,2,.15,3.08,1.42l-.29,5.79,2.47-.39h0Zm12.87-2.14a32.38,32.38,0,0,0,3.57,4.14c.88.75,2.27.88,3.42,1.29l-5.59-6.06.62-.16c-.06-1.1.25-2.9-.24-3.15a17.81,17.81,0,0,0-4.59-1.13v7.41c2,.13,2,.13,1.91-.9Zm-54.76-8.31c-14.15-2.53-35.87,13.4-34.31,25.36C48.51,195.2,60.6,187.64,75.92,184.48Zm-19.06-1.66.77-.32-2.43-9.3a50.71,50.71,0,0,0-4.67,9.59c-.8,2.19-1.9,3.06-4.34,2.92-4.23-.25-8.48-.07-12.73-.07l-.09.53L45,192.78l.35-.46-4.46-4a50.63,50.63,0,0,1,6.73,0c2.91.44,4.16-.86,4.85-3.46a60.46,60.46,0,0,1,2.17-5.77ZM67.94,208c-1.42-3.78-2.53-7-3.86-10.12a2.68,2.68,0,0,1,.77-3.53,38.91,38.91,0,0,0,2.8-3.07l-.51-.66-7.52,4.51,3.91,8.19-8.84-4.85-5.84,6.63.4.54a31.49,31.49,0,0,0,3.57-2.42c1.45-1.31,2.65-1.44,4.44-.43C60.5,204.57,64,206,67.94,208Zm15.45-20c-2.57,0-4.18,1.4-4.22,3.61s1.78,3.78,4.28,3.8,4.49-1.59,4.52-3.86S86.39,187.92,83.39,187.94Zm13.34.16H95.32l.41,4.86-6.39-5.69v8l1.65-.09-.51-4.8,6.25,5.47Zm12.51,16.82c3.75.51,3.75.51,4.21-1.13l-2.3.52V202.2l3.35-1c-3.46-.65-3.46-.65-3.15-2.55l2,.49c-.38-1.58-1.29-1.77-4.13-1.12Zm13.38-17.69-3.51,7.94h1.41l1.75-2.44,2.45,2-.29.45h2.18Zm-23.44.8v7c3.64.46,3.91.38,4.15-1.18l-2.19.48v-2l2.62-.86c-2.66-.82-2.66-.82-2.49-2.6l2,.26C102.85,187.62,102.85,187.62,99.18,188Zm-25.92-1.26v8.3c4.51.54,5,.41,5.35-1.28l-3,.47V186.8c-.27,0-.66-.08-1-.08S73.61,186.75,73.26,186.77Zm55,12c-.25-1.12-1.62-1.35-3.87-.5v7l2-.13-.29-2.9,2.55-.68-2.51-2Zm-29.47-1-1.72.13v7c4,.67,4.13.63,4.54-1.15-2.61.92-2.81.77-2.82-2.12C98.8,200.44,98.81,199.28,98.81,197.76Zm-16.92-.6c-2.14-.44-3.09.71-3.64,2.17a3.89,3.89,0,0,0,1.2,4.71c1.47,1.23,2.47,1.4,3.77.62C78.94,202,78.5,200,81.89,197.16Zm23.23,7.17v-6.42H103.2v7c4.25.57,4.25.57,4.43-1.07Z" transform="translate(-25.64 -169.72)"/><path class="cls-3" d="M25.64,214.36H143.19c.8,0,1.6-.07,2.39-.11s1.6.1,2.39.1H565.64c-.08.16-.15.45-.24.46-.64,0-1.28,0-1.92,0q-267.84,0-535.68,0A10.42,10.42,0,0,1,25.64,214.36Z" transform="translate(-25.64 -169.72)"/><path class="cls-4" d="M264.69,190.15l.78.71c2.74,2.09,3.1,4.76,1.13,8.42l-.71.71v-.05l-3.52,1.31a9.11,9.11,0,0,0-1.61-1.2,5.51,5.51,0,0,1-3.3-5.84c.17-2.66,2-3.85,4.34-4.41h1.44Z" transform="translate(-25.64 -169.72)"/><path class="cls-5" d="M181.71,186.89c4.13,0,7.24,2,8,5.14a7.44,7.44,0,0,1-3.44,8.23c-3.65,2.17-9.16,1.58-11.56-1.35a6.82,6.82,0,0,1-1.1-7.59C175,188.36,177.77,186.85,181.71,186.89Zm5.76,7.46c0-3.94-2.62-6.6-6.34-6.52a5.48,5.48,0,0,0-5.75,5.91c0,3.58,2.91,6.9,5.9,6.81C185.35,200.44,187.51,198.28,187.47,194.35Z" transform="translate(-25.64 -169.72)"/><path class="cls-6" d="M361.35,201.59,351,192.45c0,2.39-.09,4.46,0,6.53s.21,2-1.81,2.27v-12.1l.76-.37,10.82,9.69c-.21-3.37-.38-6.15-.56-9h1.93v11.67Z" transform="translate(-25.64 -169.72)"/><path class="cls-7" d="M476,196.05l5.94,5.16c-2.58.81-4.32-.8-6-2.71-1-1.17-1.86-2.74-4.27-1.7.29,1.42.59,2.9.89,4.42h-3.2V189.31c1.9,0,3.81-.08,5.71,0a3,3,0,0,1,2.41,4.8C477.14,194.73,476.64,195.25,476,196.05Zm-4.11-5.87a15.9,15.9,0,0,0,.05,3.19,7.7,7.7,0,0,0,1.23,2.08c.92-.58,2.32-1,2.65-1.77C476.7,191.56,475.18,190.2,471.9,190.18Z" transform="translate(-25.64 -169.72)"/><path class="cls-8" d="M334.78,194.19h7.13V190l.07-.68h2.36l0,.56v10.55l-.06.81H342l-.05-.9v-5.06h-7.45c.26,2-1.13,4.25,1.69,5.9H332V189.47h3.3c-.34.37-.65.7-.95,1a.74.74,0,0,0,0,.39v2.71Z" transform="translate(-25.64 -169.72)"/><path class="cls-9" d="M302.65,187v2.08l-5.07-1.19c-1.25,5.06-.55,12,1.3,13.39H294.2a19.57,19.57,0,0,0,.69-3.26c.09-3.18,0-6.37,0-10.08l-5.76.94c-.16-1.28.3-2,2.23-1.93C295.11,187.11,298.85,187,302.65,187Z" transform="translate(-25.64 -169.72)"/><path class="cls-10" d="M245,196.07l-4.25-.9c.32,2,.12,3.83,1,4.8.53.61,2.59-.1,4.23-.24.08.75-.05,1.66-1.75,1.62-2.07,0-4.14,0-5.91,0a48.77,48.77,0,0,0,.33-6.1c-.12-1.94,1-4.13-1.15-6h8l-.1,1.35a13.2,13.2,0,0,0-3.83.12c-.4.14-.72,2.26-.38,2.5a16.4,16.4,0,0,0,3.87,1.47Z" transform="translate(-25.64 -169.72)"/><path class="cls-11" d="M234.81,189c-.18,1.68-.27,2.53-.32,3-1.38-.64-2.76-1.72-4.22-1.85a8.53,8.53,0,0,0-4.74,1.08c-2.11,1.23-2.09,4.9-.28,7,2.35,2.77,6.17,2.88,9.42.18,0,1.91-.46,3.24-2.59,3.07a30.82,30.82,0,0,1-6.55-.82,5.48,5.48,0,0,1-3.69-5.81c.13-2.34,1.76-4.83,4.15-5.26A74.43,74.43,0,0,1,234.81,189Z" transform="translate(-25.64 -169.72)"/><path class="cls-12" d="M328.1,198c.21,2.28-.32,3.52-2.32,3.43a27.83,27.83,0,0,1-6.35-.66,5.54,5.54,0,0,1-4-5.85,5.62,5.62,0,0,1,4.54-5.46,62.67,62.67,0,0,1,8.1-.47v2.85c-1.39-.61-2.8-1.7-4.25-1.76a8.11,8.11,0,0,0-4.87,1.32c-2.24,1.67-1.69,5.57.72,7.54A5.73,5.73,0,0,0,328.1,198Z" transform="translate(-25.64 -169.72)"/><path class="cls-13" d="M515.7,189.4v2.43c-1.43-.63-2.87-1.72-4.35-1.78a8,8,0,0,0-4.85,1.4c-2.15,1.62-1.6,5.42.7,7.37,2.62,2.22,6.23,2.05,8.2-.38.54,1.72.26,2.85-1,2.8a29.06,29.06,0,0,1-8.35-1.11c-2.54-.87-3.4-3.58-2.85-6.18A6.43,6.43,0,0,1,509,189a18.73,18.73,0,0,1,3.35,0C513.4,189,514.5,189.25,515.7,189.4Z" transform="translate(-25.64 -169.72)"/><path class="cls-14" d="M305,201.29c1.4-2.45,1.3-10.4-.26-12h7.93c-.07.54-.15,1.2-.2,1.59l-4.4-.75v4.06h4.09V196l-4.31-.81c.21,1.89-.14,4,.64,4.57.94.72,2.85.17,4.39.17-.06.22-.2.78-.34,1.35Z" transform="translate(-25.64 -169.72)"/><path class="cls-15" d="M445.35,198.68a14.41,14.41,0,0,0,3.75,1.67,2.87,2.87,0,0,0,2.36-1.5,3.41,3.41,0,0,0-.89-2.65,18.89,18.89,0,0,0-3-2.37c-1.5-1.16-2.47-2.61-1.84-4.55s2.38-2.41,4.25-2.39c.94,0,1.89.09,3.07.15-.06,1-.11,1.8-.18,2.82-.75-.78-1.26-1.76-1.77-1.76a14.48,14.48,0,0,0-3.48.76,10.13,10.13,0,0,0,1.23,3c.91,1.07,2.5,1.62,3.24,2.75s1.46,3,1,4.06-2.2,2-3.51,2.74a4,4,0,0,1-2.12.1C445,201.34,444.77,200.9,445.35,198.68Z" transform="translate(-25.64 -169.72)"/><path class="cls-13" d="M527.28,199.86c.2.92-.41,1.56-2,1.49-2-.09-4,0-5.64,0a55.24,55.24,0,0,0,.34-6.12c-.09-1.89.89-4.06-1.12-5.89h7.82v1.52l-4.48-.75v4.06h4.36l-.27,1.86-4.43-.87c.3,2,0,4,.89,4.74S525.5,199.93,527.28,199.86Z" transform="translate(-25.64 -169.72)"/><path class="cls-11" d="M487.81,198.75c1.28-3.61,3.42-6.09,3.56-9.5H494l-6.67,12.8-6.42-12.63h2.83C485.07,192.45,486.29,195.24,487.81,198.75Z" transform="translate(-25.64 -169.72)"/><path class="cls-10" d="M464.86,189.24V191l-4.28-1v4.15h4.2l-.26,1.88-4.41-.83c.36,2,.17,4,1,4.76s2.73-.1,4.23-.24c0,.18-.15.85-.27,1.55h-7.35V189.22h7.18Z" transform="translate(-25.64 -169.72)"/><path class="cls-13" d="M418.75,201.37c-3.15.4-6.21,0-8.3-2.53-3.1-3.82-.45-9.23,4.75-9.81a63.45,63.45,0,0,1,6.77,0v2.47a29.47,29.47,0,0,0-5.63-1.46,4.43,4.43,0,0,0-5,3.6,5.2,5.2,0,0,0,2.79,5.8,23.66,23.66,0,0,0,4.59,1.1Z" transform="translate(-25.64 -169.72)"/><path class="cls-13" d="M432.93,201.29h-4.41c2.41-4-.36-8.08-4.89-11.95H427l3.63,5.5c1.22-1.88,2.26-3.49,3.47-5.34h1.94c-1.46,2-2.89,3.77-4.12,5.68A4.9,4.9,0,0,0,432.93,201.29Z" transform="translate(-25.64 -169.72)"/><path class="cls-7" d="M281,189.34l-.31,1.48-4.78-.78v4.13h4.58l-.23,1.88-4.74-.9c.32,2.35.57,4.21.83,6.09h-3.5c1.49-2.93,1.35-10.15-.54-11.9Z" transform="translate(-25.64 -169.72)"/><path class="cls-7" d="M200.19,194.7l-.13,1.36-4.82-.92.89,6.12h-3.44c1.53-3.87.72-7.78.6-11.78h6.93l.28,1.53c-2.44-.65-5.46-2.38-4.75,2.31C195.84,194,198.5,194.2,200.19,194.7Z" transform="translate(-25.64 -169.72)"/><path class="cls-7" d="M208.41,201.29h-4.13V189.45h7.52l-.11,1.31-4.82-.69v4.09h4.54l-.14,2-4.41-.94C206.76,197.54,206,199.59,208.41,201.29Z" transform="translate(-25.64 -169.72)"/><path class="cls-6" d="M383.2,189.45h2.36c0,2.47-.11,4.92.05,7.36.07,1.13.42,3,1.05,3.19,1.28.4,2.85-.12,4.56-.28.16.84-.12,1.68-1.88,1.63-2.23-.07-4.46,0-6.69,0C384.22,197.42,383.54,193.53,383.2,189.45Z" transform="translate(-25.64 -169.72)"/><path class="cls-13" d="M372.77,201.72a19.37,19.37,0,0,1-4.29-1.05,6,6,0,0,1-3.51-6.23,7.06,7.06,0,0,1,5.71-5.41,16.25,16.25,0,0,1,2.61,0l-.11.78c-2.3.17-4.71.13-5.37,3.12-.13.42-.25.84-.38,1.25-.19,2.19.24,4.11,2.33,5.3l.5.34,2.87,1.1Z" transform="translate(-25.64 -169.72)"/><path class="cls-15" d="M261.8,189.8c-2.38.56-4.17,1.75-4.34,4.41a5.51,5.51,0,0,0,3.3,5.84,9.11,9.11,0,0,1,1.61,1.2l3.52-1.31c-.07.34-.12,1-.21,1-2,.14-4.05.61-5.91.2a6,6,0,0,1-4.67-5.91c0-2.68,1.73-4.72,4.82-5.79l.77-.14,1-.22Z" transform="translate(-25.64 -169.72)"/><path class="cls-5" d="M400.51,201.36a17.84,17.84,0,0,1-3.52-.17c-3-.72-5.15-3.63-4.94-6.27.26-3.08,2.79-5.35,6.54-5.87v.77c-3.68,1.43-4.86,3.47-3.88,6.7.8,2.63,2.39,3.73,5.79,4Z" transform="translate(-25.64 -169.72)"/><path class="cls-12" d="M215,201.22c1.48-2.28,1.55-10,.06-11.92h3.81c-1.4,2.31-1,10.38.58,11.92Z" transform="translate(-25.64 -169.72)"/><path class="cls-16" d="M500.73,201.28h-4v-12h3.46C498.71,191.51,499.1,199.67,500.73,201.28Z" transform="translate(-25.64 -169.72)"/><path class="cls-14" d="M400.51,201.36v-.82c3.71-1,5.16-3.35,4.22-6.89-.67-2.51-2.54-3.67-6.13-3.83v-.77a19.39,19.39,0,0,1,3.75.23c3.56.88,5.23,3.24,4.87,6.53C406.86,198.9,404.23,201.09,400.51,201.36Z" transform="translate(-25.64 -169.72)"/><path class="cls-12" d="M533.06,189.08c-1.68,2.52-1.58,3,1,4.66a8.26,8.26,0,0,1,2.62,2c.61,1,1.14,2.46.79,3.38s-1.83,1.28-2.87,1.79a3.37,3.37,0,0,1-1.25.19,1.69,1.69,0,0,1,.32-.54c.72-.77,2.12-1.57,2.06-2.23-.09-.85-1.32-1.61-2.12-2.34s-2.11-1.35-2.69-2.3a3.78,3.78,0,0,1-.24-3C531,189.94,532.22,189.6,533.06,189.08Z" transform="translate(-25.64 -169.72)"/><path class="cls-5" d="M373.18,189.82l.11-.78c2.65,0,4.85,1,6.09,3.4a5.13,5.13,0,0,1-.46,5.84c-.83,1-2.22,1.55-3.36,2.3l-.45-.6h0l.61-.47c2.28-1.43,2.12-3.58,1.7-5.81l-.34-.69L374,190.31l-.81-.32Z" transform="translate(-25.64 -169.72)"/><path class="cls-15" d="M266.6,199.28c2-3.66,1.61-6.33-1.13-8.42l-1-1c2.92-.7,5.21,1.38,5.49,4.74,0,.24,0,.48,0,.72a5.21,5.21,0,0,1-2.85,4.89c-.3.18-.88-.1-1.33-.17Z" transform="translate(-25.64 -169.72)"/><path class="cls-10" d="M418.75,201.37v-.87c1.59-1.37,1.62-3.57,0-5.26h4a15.36,15.36,0,0,0-.58,2.79C422,201.16,422,201.21,418.75,201.37Z" transform="translate(-25.64 -169.72)"/><path class="cls-17" d="M375.11,200l.45.6-2.79,1.14.36-.79Z" transform="translate(-25.64 -169.72)"/><path class="cls-6" d="M344.3,201.24l.06-.81,1.22.39,0,.36Z" transform="translate(-25.64 -169.72)"/><path class="cls-6" d="M342,189.31l-.07.68-1.08-.29v-.31Z" transform="translate(-25.64 -169.72)"/><path class="cls-13" d="M261.8,189.8l-.08-.75,1.66,0-.14.77Z" transform="translate(-25.64 -169.72)"/><path class="cls-6" d="M344.36,189.88l0-.56.71.19Z" transform="translate(-25.64 -169.72)"/><path class="cls-6" d="M341.92,200.34l.05.9-.85-.05Z" transform="translate(-25.64 -169.72)"/><path class="cls-15" d="M263.24,189.8l.14-.77,1.7.48-.39.64Z" transform="translate(-25.64 -169.72)"/><path class="cls-13" d="M260.69,189.27l-.77.14Z" transform="translate(-25.64 -169.72)"/><path class="cls-13" d="M266.6,199.28l-.77.74.06,0Z" transform="translate(-25.64 -169.72)"/><path class="cls-10" d="M464.94,189.22l-.06.14,0-.11Z" transform="translate(-25.64 -169.72)"/><path class="cls-13" d="M270,195.3c0-.24,0-.48,0-.72Z" transform="translate(-25.64 -169.72)"/><path class="cls-6" d="M334.78,194.19l-.48-.58Z" transform="translate(-25.64 -169.72)"/><path class="cls-6" d="M334.3,190.9a.74.74,0,0,1,0-.39A.26.26,0,0,1,334.3,190.9Z" transform="translate(-25.64 -169.72)"/><path class="cls-18" d="M75.92,184.48c-15.32,3.16-27.41,10.72-34.31,25.36C40.05,197.88,61.77,182,75.92,184.48Z" transform="translate(-25.64 -169.72)"/><path class="cls-19" d="M56.86,182.82l-2.19-3.73a60.46,60.46,0,0,0-2.17,5.77c-.69,2.6-1.94,3.9-4.85,3.46a50.63,50.63,0,0,0-6.73,0l4.46,4-.35.46-11.66-6.61.09-.53c4.25,0,8.5-.18,12.73.07,2.44.14,3.54-.73,4.34-2.92a50.71,50.71,0,0,1,4.67-9.59l2.43,9.3Z" transform="translate(-25.64 -169.72)"/><path class="cls-18" d="M67.94,208c-4-1.92-7.44-3.39-10.68-5.21-1.79-1-3-.88-4.44.43a31.49,31.49,0,0,1-3.57,2.42l-.4-.54,5.84-6.63,8.84,4.85-3.91-8.19,7.52-4.51.51.66a38.91,38.91,0,0,1-2.8,3.07,2.68,2.68,0,0,0-.77,3.53C65.41,201,66.52,204.18,67.94,208Z" transform="translate(-25.64 -169.72)"/><path class="cls-20" d="M129.78,194.23c.12,1,.12,1-1.91.9v-7.41a17.81,17.81,0,0,1,4.59,1.13c.49.25.18,2.05.24,3.15l-.62.16,5.59,6.06c-1.15-.41-2.54-.54-3.42-1.29a32.38,32.38,0,0,1-3.57-4.14c-.71-.53-.79-.89.12-1.42a1.78,1.78,0,0,0,.53-1.59c-.14-.47-.85-.77-1.31-1.15l-.63.32Z" transform="translate(-25.64 -169.72)"/><path class="cls-20" d="M83.39,187.94c3,0,4.6,1.22,4.58,3.55s-1.92,3.88-4.52,3.86-4.32-1.64-4.28-3.8S80.82,188,83.39,187.94Zm2.94,3.19a2.83,2.83,0,0,0-2.94-2.53,2.5,2.5,0,0,0-2.52,2.65,2.82,2.82,0,0,0,2.81,3.21C85.4,194.56,86.26,193.41,86.33,191.13Z" transform="translate(-25.64 -169.72)"/><path class="cls-19" d="M96.73,188.1v7.72l-6.25-5.47.51,4.8-1.65.09v-8L95.73,193l-.41-4.86Z" transform="translate(-25.64 -169.72)"/><path class="cls-21" d="M109.24,204.92v-6.86c2.84-.65,3.75-.46,4.13,1.12l-2-.49c-.31,1.9-.31,1.9,3.15,2.55l-3.35,1v2.11l2.3-.52C113,205.43,113,205.43,109.24,204.92Z" transform="translate(-25.64 -169.72)"/><path class="cls-22" d="M112.55,188.09a3.14,3.14,0,0,1-.86.23c-.82,0-1.64-.17-2.46-.26a9.21,9.21,0,0,0,1.45,2.15c1.16,1,2.55,2,1.59,3.51-.59.91-2.15,1.38-3.36,1.61-.49.09-1.2-1-1.82-1.5l.59-.64c.34.32.64.84,1,.9a7.84,7.84,0,0,0,2-.12,5.18,5.18,0,0,0-.44-1.81c-.39-.57-1.27-.82-1.6-1.4-.46-.83-1.07-2-.79-2.72a3.12,3.12,0,0,1,2.46-1.34c.73,0,1.47.93,2.2,1.45Z" transform="translate(-25.64 -169.72)"/><path class="cls-22" d="M122.62,187.23l4,7.93h-2.18l.29-.45-2.45-2-1.75,2.44h-1.41Z" transform="translate(-25.64 -169.72)"/><path class="cls-21" d="M99.18,188c3.67-.41,3.67-.41,4.07,1.14l-2-.26c-.17,1.78-.17,1.78,2.49,2.6l-2.62.86v2l2.19-.48c-.24,1.56-.51,1.64-4.15,1.18Z" transform="translate(-25.64 -169.72)"/><path class="cls-23" d="M73.26,186.77c.35,0,.81-.06,1.28-.05s.78.06,1,.08v7.46l3-.47c-.31,1.69-.84,1.82-5.35,1.28Z" transform="translate(-25.64 -169.72)"/><path class="cls-24" d="M128.28,198.73l-2.13.76,2.51,2-2.55.68.29,2.9-2,.13v-7C126.66,197.38,128,197.61,128.28,198.73Z" transform="translate(-25.64 -169.72)"/><path class="cls-23" d="M112.55,188.09l0,.06c2.42-.34,4.85-.75,7.13.25l-.05.64-2.73-.15c.33,2.14.63,4.09.94,6v0l-2.47.39.29-5.79C114.6,188.24,112.79,190.24,112.55,188.09Z" transform="translate(-25.64 -169.72)"/><path class="cls-25" d="M98.81,197.76c0,1.52,0,2.68,0,3.84,0,2.89.21,3,2.82,2.12-.41,1.78-.56,1.82-4.54,1.15v-7Z" transform="translate(-25.64 -169.72)"/><path class="cls-20" d="M81.89,197.16c-3.39,2.84-3,4.86,1.33,7.5-1.3.78-2.3.61-3.77-.62a3.89,3.89,0,0,1-1.2-4.71C78.8,197.87,79.75,196.72,81.89,197.16Z" transform="translate(-25.64 -169.72)"/><path class="cls-20" d="M105.12,204.33l2.51-.52c-.18,1.64-.18,1.64-4.43,1.07v-7h1.92Z" transform="translate(-25.64 -169.72)"/><path class="cls-22" d="M89.5,198.05c1.56.1,3.26-.14,4.66.39,1.71.64,2,2.42,1.47,4.06-.74,2.21-2.5,2.91-4.72,2.65v-.77c2.82-.3,4.27-2.22,2.89-4.2-.64-.92-2.22-1.18-3.37-1.73Z" transform="translate(-25.64 -169.72)"/><path class="cls-24" d="M90.91,204.38v.77a3.67,3.67,0,0,1-1.41-7.1l.93.4C87.87,200.73,88,202.53,90.91,204.38Z" transform="translate(-25.64 -169.72)"/><path class="cls-24" d="M116.44,199.62c-.66,2.27,0,3.87,2.3,4.7l-1.19.54c-3.06-1-3.74-3.27-1.78-5.94Z" transform="translate(-25.64 -169.72)"/><path class="cls-21" d="M117.55,204.86l1.19-.54c2.47.07,2-1.33,1.33-2.9h2.31C121.43,205.55,121,205.84,117.55,204.86Z" transform="translate(-25.64 -169.72)"/><path class="cls-25" d="M116.44,199.62l-.67-.7c1.48-1.65,3.39-1.54,5.26-1.12.49.11.82.94,1,1.72C120,198.19,118.22,198.19,116.44,199.62Z" transform="translate(-25.64 -169.72)"/><path class="cls-26" d="M129.78,194.23l-.39-5.28.63-.32c.46.38,1.17.68,1.31,1.15a1.78,1.78,0,0,1-.53,1.59c-.91.53-.83.89-.12,1.42Z" transform="translate(-25.64 -169.72)"/><polygon class="cls-22" points="92.17 25.19 92.17 25.21 92.37 25.2 92.17 25.19"/><path class="cls-27" d="M187.47,194.35c0,3.93-2.12,6.09-6.19,6.2-3,.09-5.86-3.23-5.9-6.81a5.48,5.48,0,0,1,5.75-5.91C184.85,187.75,187.44,190.41,187.47,194.35Z" transform="translate(-25.64 -169.72)"/><path class="cls-28" d="M471.9,190.18c3.28,0,4.8,1.38,3.93,3.5-.33.81-1.73,1.19-2.65,1.77a7.7,7.7,0,0,1-1.23-2.08A15.9,15.9,0,0,1,471.9,190.18Z" transform="translate(-25.64 -169.72)"/><path class="cls-1" d="M375.11,200l-2,1-2.87-1.1-.5-.34c-2.09-1.19-2.52-3.11-2.33-5.3.13-.41.25-.83.38-1.25.66-3,3.07-2.95,5.37-3.12l0,.17.81.32,3.11,2.71.34.69c.42,2.23.58,4.38-1.7,5.81l-.61.47Z" transform="translate(-25.64 -169.72)"/><path class="cls-17" d="M367.81,192.94c-.13.42-.25.84-.38,1.25C367.56,193.78,367.68,193.36,367.81,192.94Z" transform="translate(-25.64 -169.72)"/><path class="cls-17" d="M369.76,199.49l.5.34Z" transform="translate(-25.64 -169.72)"/><path class="cls-28" d="M398.6,189.82c3.59.16,5.46,1.32,6.13,3.83.94,3.54-.51,5.91-4.22,6.89-3.4-.29-5-1.39-5.79-4C393.74,193.29,394.92,191.25,398.6,189.82Z" transform="translate(-25.64 -169.72)"/><path class="cls-17" d="M375.09,200l.61-.47Z" transform="translate(-25.64 -169.72)"/><path class="cls-17" d="M374,190.31l-.81-.32Z" transform="translate(-25.64 -169.72)"/><path class="cls-17" d="M377.4,193.71l-.34-.69Z" transform="translate(-25.64 -169.72)"/><path class="cls-29" d="M86.33,191.13c-.07,2.28-.93,3.43-2.65,3.33a2.82,2.82,0,0,1-2.81-3.21,2.5,2.5,0,0,1,2.52-2.65A2.83,2.83,0,0,1,86.33,191.13Z" transform="translate(-25.64 -169.72)"/><path class="cls-29" d="M90.91,204.38c-2.9-1.85-3-3.65-.48-5.93,1.15.55,2.73.81,3.37,1.73C95.18,202.16,93.73,204.08,90.91,204.38Z" transform="translate(-25.64 -169.72)"/></svg>